<svg xmlns="http://www.w3.org/2000/svg" xmlns:xlink="http://www.w3.org/1999/xlink" width="800" zoomAndPan="magnify" viewBox="0 0 600 599.999999" height="800" preserveAspectRatio="xMidYMid meet" version="1.0"><defs><g/><clipPath id="id1"><path d="M 273.167969 233.082031 L 317.855469 233.082031 L 317.855469 277.765625 L 273.167969 277.765625 Z M 273.167969 233.082031 " clip-rule="nonzero"/></clipPath><clipPath id="id2"><path d="M 264.582031 258 L 267 258 L 267 261 L 264.582031 261 Z M 264.582031 258 " clip-rule="nonzero"/></clipPath><clipPath id="id3"><path d="M 311 252 L 313.503906 252 L 313.503906 255 L 311 255 Z M 311 252 " clip-rule="nonzero"/></clipPath><clipPath id="id4"><path d="M 291 233.082031 L 293 233.082031 L 293 235 L 291 235 Z M 291 233.082031 " clip-rule="nonzero"/></clipPath><clipPath id="id5"><path d="M 283 233.082031 L 286 233.082031 L 286 236 L 283 236 Z M 283 233.082031 " clip-rule="nonzero"/></clipPath><clipPath id="id6"><path d="M 287 233.082031 L 290 233.082031 L 290 235 L 287 235 Z M 287 233.082031 " clip-rule="nonzero"/></clipPath><clipPath id="id7"><path d="M 264.582031 254 L 267 254 L 267 257 L 264.582031 257 Z M 264.582031 254 " clip-rule="nonzero"/></clipPath><clipPath id="id8"><path d="M 311 260 L 313.503906 260 L 313.503906 263 L 311 263 Z M 311 260 " clip-rule="nonzero"/></clipPath><clipPath id="id9"><path d="M 311 256 L 313.503906 256 L 313.503906 259 L 311 259 Z M 311 256 " clip-rule="nonzero"/></clipPath><clipPath id="id10"><path d="M 286 280 L 289 280 L 289 282.003906 L 286 282.003906 Z M 286 280 " clip-rule="nonzero"/></clipPath><clipPath id="id11"><path d="M 269.636719 258 L 271 258 L 271 261 L 269.636719 261 Z M 269.636719 258 " clip-rule="nonzero"/></clipPath><clipPath id="id12"><path d="M 307 254 L 309.46875 254 L 309.46875 257 L 307 257 Z M 307 254 " clip-rule="nonzero"/></clipPath><clipPath id="id13"><path d="M 291 238.453125 L 293 238.453125 L 293 240 L 291 240 Z M 291 238.453125 " clip-rule="nonzero"/></clipPath><clipPath id="id14"><path d="M 285 238.453125 L 287 238.453125 L 287 241 L 285 241 Z M 285 238.453125 " clip-rule="nonzero"/></clipPath><clipPath id="id15"><path d="M 288 238.453125 L 290 238.453125 L 290 240 L 288 240 Z M 288 238.453125 " clip-rule="nonzero"/></clipPath><clipPath id="id16"><path d="M 269.636719 255 L 271 255 L 271 258 L 269.636719 258 Z M 269.636719 255 " clip-rule="nonzero"/></clipPath><clipPath id="id17"><path d="M 307 260 L 309.46875 260 L 309.46875 263 L 307 263 Z M 307 260 " clip-rule="nonzero"/></clipPath><clipPath id="id18"><path d="M 290 276 L 293 276 L 293 278.285156 L 290 278.285156 Z M 290 276 " clip-rule="nonzero"/></clipPath><clipPath id="id19"><path d="M 308 257 L 309.46875 257 L 309.46875 260 L 308 260 Z M 308 257 " clip-rule="nonzero"/></clipPath><clipPath id="id20"><path d="M 287 277 L 290 277 L 290 278.285156 L 287 278.285156 Z M 287 277 " clip-rule="nonzero"/></clipPath></defs><g clip-path="url(#id1)"><path fill="#ffffff" d="M 295.511719 235.316406 C 306.601562 235.316406 315.621094 244.335938 315.621094 255.425781 C 315.621094 266.511719 306.601562 275.53125 295.511719 275.53125 C 284.421875 275.53125 275.402344 266.511719 275.402344 255.425781 C 275.402344 244.335938 284.421875 235.316406 295.511719 235.316406 M 295.511719 233.082031 C 283.171875 233.082031 273.167969 243.085938 273.167969 255.425781 C 273.167969 267.765625 283.171875 277.765625 295.511719 277.765625 C 307.851562 277.765625 317.855469 267.765625 317.855469 255.425781 C 317.855469 243.085938 307.851562 233.082031 295.511719 233.082031 Z M 295.511719 233.082031 " fill-opacity="1" fill-rule="nonzero"/></g><g clip-path="url(#id2)"><path fill="#ffffff" d="M 266.183594 259.414062 C 266.183594 259.296875 266.183594 259.183594 266.144531 259.03125 C 266.109375 258.613281 265.765625 258.304688 265.34375 258.304688 C 264.925781 258.34375 264.621094 258.6875 264.621094 259.109375 C 264.621094 259.222656 264.621094 259.375 264.65625 259.488281 C 264.695312 259.910156 265.078125 260.214844 265.496094 260.175781 C 265.878906 260.214844 266.222656 259.832031 266.183594 259.414062 Z M 266.183594 259.414062 " fill-opacity="1" fill-rule="nonzero"/></g><path fill="#ffffff" d="M 266.910156 248.996094 C 267.289062 249.148438 267.75 248.957031 267.902344 248.574219 C 267.941406 248.5 268.015625 248.382812 268.054688 248.269531 C 268.246094 247.886719 268.054688 247.429688 267.671875 247.277344 C 267.289062 247.125 266.832031 247.277344 266.679688 247.660156 C 266.640625 247.773438 266.566406 247.886719 266.527344 248.039062 C 266.335938 248.382812 266.527344 248.84375 266.910156 248.996094 Z M 266.910156 248.996094 " fill-opacity="1" fill-rule="nonzero"/><path fill="#ffffff" d="M 265.839844 252.660156 C 266.261719 252.773438 266.679688 252.503906 266.757812 252.085938 C 266.792969 251.972656 266.832031 251.855469 266.832031 251.742188 C 266.949219 251.324219 266.679688 250.902344 266.296875 250.828125 C 265.878906 250.710938 265.460938 250.980469 265.382812 251.359375 C 265.34375 251.476562 265.304688 251.628906 265.269531 251.742188 C 265.152344 252.164062 265.421875 252.582031 265.839844 252.660156 Z M 265.839844 252.660156 " fill-opacity="1" fill-rule="nonzero"/><path fill="#ffffff" d="M 266.757812 263.078125 C 266.71875 262.960938 266.679688 262.847656 266.679688 262.734375 C 266.605469 262.3125 266.183594 262.046875 265.765625 262.121094 C 265.34375 262.199219 265.117188 262.617188 265.191406 263.039062 C 265.230469 263.152344 265.269531 263.304688 265.269531 263.417969 C 265.382812 263.839844 265.800781 264.070312 266.183594 263.992188 C 266.605469 263.878906 266.871094 263.457031 266.757812 263.078125 Z M 266.757812 263.078125 " fill-opacity="1" fill-rule="nonzero"/><path fill="#ffffff" d="M 270.953125 241.09375 C 270.878906 241.210938 270.761719 241.285156 270.6875 241.402344 C 270.421875 241.707031 270.421875 242.203125 270.761719 242.46875 C 271.070312 242.734375 271.566406 242.699219 271.832031 242.394531 C 271.910156 242.316406 271.984375 242.203125 272.0625 242.125 C 272.328125 241.820312 272.328125 241.324219 272.023438 241.058594 C 271.71875 240.75 271.222656 240.789062 270.953125 241.09375 Z M 270.953125 241.09375 " fill-opacity="1" fill-rule="nonzero"/><path fill="#ffffff" d="M 271.640625 272.464844 C 271.375 272.160156 270.878906 272.121094 270.574219 272.386719 C 270.265625 272.65625 270.230469 273.152344 270.496094 273.457031 C 270.574219 273.570312 270.648438 273.648438 270.761719 273.761719 C 271.03125 274.066406 271.527344 274.105469 271.832031 273.839844 C 272.136719 273.570312 272.175781 273.074219 271.910156 272.769531 C 271.792969 272.65625 271.71875 272.578125 271.640625 272.464844 Z M 271.640625 272.464844 " fill-opacity="1" fill-rule="nonzero"/><path fill="#ffffff" d="M 267.785156 266.207031 C 267.632812 265.824219 267.175781 265.632812 266.792969 265.785156 C 266.414062 265.9375 266.222656 266.394531 266.375 266.777344 C 266.414062 266.890625 266.488281 267.007812 266.527344 267.121094 C 266.679688 267.503906 267.136719 267.695312 267.519531 267.542969 C 267.902344 267.386719 268.09375 266.929688 267.941406 266.550781 C 267.902344 266.433594 267.824219 266.320312 267.785156 266.207031 Z M 267.785156 266.207031 " fill-opacity="1" fill-rule="nonzero"/><path fill="#ffffff" d="M 269.464844 269.488281 C 269.238281 269.144531 268.777344 269.03125 268.398438 269.21875 C 268.054688 269.449219 267.941406 269.90625 268.128906 270.289062 C 268.207031 270.402344 268.28125 270.519531 268.320312 270.632812 C 268.550781 270.976562 269.007812 271.089844 269.390625 270.859375 C 269.734375 270.632812 269.847656 270.175781 269.617188 269.792969 C 269.582031 269.714844 269.542969 269.601562 269.464844 269.488281 Z M 269.464844 269.488281 " fill-opacity="1" fill-rule="nonzero"/><path fill="#ffffff" d="M 269.617188 243.957031 C 269.273438 243.726562 268.777344 243.84375 268.550781 244.1875 C 268.472656 244.300781 268.398438 244.414062 268.320312 244.53125 C 268.09375 244.875 268.207031 245.371094 268.550781 245.597656 C 268.894531 245.828125 269.390625 245.710938 269.617188 245.371094 C 269.695312 245.253906 269.734375 245.179688 269.808594 245.0625 C 270.039062 244.683594 269.960938 244.1875 269.617188 243.957031 Z M 269.617188 243.957031 " fill-opacity="1" fill-rule="nonzero"/><path fill="#ffffff" d="M 309.460938 247.164062 C 309.648438 247.542969 310.109375 247.699219 310.488281 247.507812 C 310.871094 247.316406 311.023438 246.859375 310.832031 246.476562 C 310.757812 246.363281 310.71875 246.246094 310.640625 246.132812 C 310.453125 245.75 309.992188 245.597656 309.613281 245.828125 C 309.230469 246.019531 309.117188 246.476562 309.304688 246.859375 C 309.34375 246.933594 309.382812 247.046875 309.460938 247.164062 Z M 309.460938 247.164062 " fill-opacity="1" fill-rule="nonzero"/><path fill="#ffffff" d="M 295.339844 235.523438 C 295.453125 235.5625 295.570312 235.601562 295.683594 235.636719 C 296.066406 235.753906 296.523438 235.523438 296.636719 235.140625 C 296.75 234.722656 296.523438 234.300781 296.140625 234.1875 C 296.027344 234.148438 295.875 234.113281 295.757812 234.074219 C 295.339844 233.960938 294.917969 234.1875 294.804688 234.609375 C 294.691406 234.988281 294.917969 235.410156 295.339844 235.523438 Z M 295.339844 235.523438 " fill-opacity="1" fill-rule="nonzero"/><path fill="#ffffff" d="M 298.773438 236.820312 C 298.886719 236.859375 299.003906 236.9375 299.117188 236.972656 C 299.5 237.164062 299.957031 237.011719 300.148438 236.628906 C 300.339844 236.25 300.1875 235.789062 299.804688 235.601562 C 299.691406 235.523438 299.574219 235.484375 299.460938 235.449219 C 299.078125 235.257812 298.621094 235.449219 298.429688 235.828125 C 298.238281 236.171875 298.390625 236.628906 298.773438 236.820312 Z M 298.773438 236.820312 " fill-opacity="1" fill-rule="nonzero"/><path fill="#ffffff" d="M 301.980469 238.652344 C 302.09375 238.730469 302.171875 238.804688 302.285156 238.882812 C 302.628906 239.109375 303.125 239.035156 303.351562 238.691406 C 303.582031 238.347656 303.507812 237.890625 303.164062 237.621094 C 303.046875 237.546875 302.933594 237.46875 302.855469 237.394531 C 302.515625 237.164062 302.019531 237.242188 301.789062 237.585938 C 301.558594 237.929688 301.636719 238.425781 301.980469 238.652344 Z M 301.980469 238.652344 " fill-opacity="1" fill-rule="nonzero"/><g clip-path="url(#id3)"><path fill="#ffffff" d="M 311.632812 253.804688 C 311.671875 253.917969 311.671875 254.03125 311.710938 254.183594 C 311.789062 254.605469 312.167969 254.871094 312.589844 254.832031 C 313.007812 254.757812 313.277344 254.375 313.238281 253.957031 C 313.238281 253.839844 313.199219 253.6875 313.160156 253.574219 C 313.085938 253.15625 312.703125 252.886719 312.285156 252.925781 C 311.863281 253 311.558594 253.382812 311.632812 253.804688 Z M 311.632812 253.804688 " fill-opacity="1" fill-rule="nonzero"/></g><path fill="#ffffff" d="M 310.757812 250.214844 C 310.796875 250.332031 310.832031 250.445312 310.871094 250.558594 C 310.984375 250.941406 311.445312 251.171875 311.824219 251.054688 C 312.246094 250.941406 312.4375 250.484375 312.320312 250.101562 C 312.285156 249.988281 312.246094 249.835938 312.207031 249.71875 C 312.054688 249.339844 311.632812 249.109375 311.253906 249.222656 C 310.832031 249.375 310.605469 249.835938 310.757812 250.214844 Z M 310.757812 250.214844 " fill-opacity="1" fill-rule="nonzero"/><g clip-path="url(#id4)"><path fill="#ffffff" d="M 291.714844 234.796875 C 291.828125 234.796875 292.132812 234.835938 292.171875 234.835938 C 292.554688 234.835938 292.859375 234.570312 292.933594 234.1875 C 292.972656 233.769531 292.707031 233.386719 292.285156 233.347656 C 292.171875 233.347656 292.019531 233.308594 291.90625 233.308594 C 291.484375 233.273438 291.105469 233.578125 291.066406 233.996094 C 290.988281 234.378906 291.292969 234.761719 291.714844 234.796875 Z M 291.714844 234.796875 " fill-opacity="1" fill-rule="nonzero"/></g><path fill="#ffffff" d="M 277.136719 237.8125 C 277.402344 237.8125 277.632812 237.660156 277.824219 237.546875 C 278.203125 237.355469 278.320312 236.859375 278.128906 236.515625 C 277.9375 236.132812 277.441406 236.019531 277.097656 236.210938 C 276.984375 236.285156 276.871094 236.324219 276.753906 236.402344 C 276.375 236.628906 276.257812 237.089844 276.488281 237.433594 C 276.601562 237.699219 276.871094 237.8125 277.136719 237.8125 Z M 277.136719 237.8125 " fill-opacity="1" fill-rule="nonzero"/><path fill="#ffffff" d="M 274.007812 239.988281 C 274.3125 239.988281 274.542969 239.757812 274.769531 239.570312 C 275.113281 239.300781 275.152344 238.84375 274.886719 238.5 C 274.617188 238.15625 274.160156 238.117188 273.816406 238.386719 C 273.703125 238.460938 273.625 238.539062 273.511719 238.613281 C 273.167969 238.882812 273.128906 239.378906 273.398438 239.683594 C 273.550781 239.914062 273.777344 239.988281 274.007812 239.988281 Z M 274.007812 239.988281 " fill-opacity="1" fill-rule="nonzero"/><path fill="#ffffff" d="M 280.570312 236.171875 C 280.800781 236.171875 280.992188 236.058594 281.179688 235.980469 C 281.5625 235.828125 281.792969 235.410156 281.640625 234.988281 C 281.488281 234.609375 281.066406 234.378906 280.648438 234.53125 C 280.53125 234.570312 280.417969 234.609375 280.265625 234.683594 C 279.882812 234.835938 279.691406 235.292969 279.808594 235.675781 C 279.960938 235.980469 280.265625 236.171875 280.570312 236.171875 Z M 280.570312 236.171875 " fill-opacity="1" fill-rule="nonzero"/><g clip-path="url(#id5)"><path fill="#ffffff" d="M 284.234375 235.140625 C 284.425781 235.140625 284.578125 235.105469 284.769531 235.066406 C 285.1875 234.988281 285.457031 234.570312 285.378906 234.1875 C 285.304688 233.769531 284.882812 233.5 284.5 233.578125 C 284.386719 233.617188 284.234375 233.617188 284.121094 233.652344 C 283.699219 233.730469 283.433594 234.148438 283.507812 234.570312 C 283.546875 234.875 283.851562 235.140625 284.234375 235.140625 Z M 284.234375 235.140625 " fill-opacity="1" fill-rule="nonzero"/></g><g clip-path="url(#id6)"><path fill="#ffffff" d="M 288.011719 234.644531 C 288.011719 234.644531 288.28125 234.644531 288.433594 234.644531 C 288.851562 234.644531 289.195312 234.300781 289.15625 233.84375 C 289.15625 233.425781 288.8125 233.082031 288.355469 233.121094 C 288.242188 233.121094 288.089844 233.121094 287.972656 233.121094 C 287.554688 233.121094 287.210938 233.5 287.25 233.921875 C 287.25 234.339844 287.59375 234.644531 288.011719 234.644531 Z M 288.011719 234.644531 " fill-opacity="1" fill-rule="nonzero"/></g><g clip-path="url(#id7)"><path fill="#ffffff" d="M 265.34375 256.4375 C 265.765625 256.472656 266.144531 256.167969 266.183594 255.75 C 266.183594 255.636719 266.222656 255.519531 266.222656 255.367188 C 266.261719 254.949219 265.957031 254.566406 265.535156 254.527344 C 265.117188 254.488281 264.734375 254.796875 264.695312 255.214844 C 264.695312 255.328125 264.65625 255.480469 264.65625 255.597656 C 264.621094 256.054688 264.925781 256.398438 265.34375 256.4375 Z M 265.34375 256.4375 " fill-opacity="1" fill-rule="nonzero"/></g><path fill="#ffffff" d="M 298.851562 278.226562 C 298.734375 278.265625 298.621094 278.339844 298.507812 278.378906 C 298.125 278.570312 297.933594 278.988281 298.125 279.371094 C 298.316406 279.753906 298.773438 279.90625 299.15625 279.753906 C 299.269531 279.714844 299.382812 279.636719 299.5 279.601562 C 299.878906 279.410156 300.035156 278.953125 299.84375 278.570312 C 299.691406 278.226562 299.230469 278.074219 298.851562 278.226562 Z M 298.851562 278.226562 " fill-opacity="1" fill-rule="nonzero"/><path fill="#ffffff" d="M 302.054688 276.394531 C 301.941406 276.472656 301.863281 276.546875 301.75 276.585938 C 301.40625 276.816406 301.292969 277.3125 301.523438 277.652344 C 301.75 277.996094 302.246094 278.113281 302.589844 277.882812 C 302.703125 277.808594 302.820312 277.730469 302.933594 277.652344 C 303.277344 277.425781 303.351562 276.929688 303.125 276.585938 C 302.855469 276.242188 302.398438 276.164062 302.054688 276.394531 Z M 302.054688 276.394531 " fill-opacity="1" fill-rule="nonzero"/><path fill="#ffffff" d="M 304.878906 274.066406 C 304.804688 274.144531 304.6875 274.21875 304.613281 274.335938 C 304.308594 274.640625 304.269531 275.097656 304.574219 275.402344 C 304.839844 275.707031 305.335938 275.707031 305.644531 275.441406 C 305.757812 275.363281 305.832031 275.25 305.910156 275.171875 C 306.214844 274.867188 306.214844 274.410156 305.949219 274.105469 C 305.679688 273.800781 305.183594 273.761719 304.878906 274.066406 Z M 304.878906 274.066406 " fill-opacity="1" fill-rule="nonzero"/><path fill="#ffffff" d="M 295.414062 279.5625 C 295.300781 279.601562 295.1875 279.636719 295.074219 279.675781 C 294.652344 279.792969 294.421875 280.210938 294.539062 280.628906 C 294.613281 280.972656 294.917969 281.203125 295.261719 281.203125 C 295.339844 281.203125 295.722656 281.089844 295.835938 281.050781 C 296.253906 280.9375 296.484375 280.515625 296.371094 280.097656 C 296.253906 279.675781 295.796875 279.449219 295.414062 279.5625 Z M 295.414062 279.5625 " fill-opacity="1" fill-rule="nonzero"/><path fill="#ffffff" d="M 310.335938 267.882812 C 309.957031 267.695312 309.496094 267.847656 309.304688 268.191406 C 309.230469 268.304688 309.191406 268.417969 309.117188 268.535156 C 308.925781 268.914062 309.039062 269.371094 309.421875 269.5625 C 309.804688 269.753906 310.261719 269.640625 310.453125 269.257812 C 310.527344 269.144531 310.566406 269.03125 310.640625 268.914062 C 310.871094 268.535156 310.71875 268.074219 310.335938 267.882812 Z M 310.335938 267.882812 " fill-opacity="1" fill-rule="nonzero"/><g clip-path="url(#id8)"><path fill="#ffffff" d="M 312.511719 260.597656 C 312.09375 260.519531 311.710938 260.824219 311.632812 261.246094 C 311.597656 261.359375 311.597656 261.472656 311.558594 261.589844 C 311.480469 262.007812 311.75 262.390625 312.167969 262.464844 C 312.589844 262.542969 312.96875 262.273438 313.046875 261.855469 C 313.085938 261.742188 313.085938 261.589844 313.121094 261.472656 C 313.238281 261.054688 312.933594 260.671875 312.511719 260.597656 Z M 312.511719 260.597656 " fill-opacity="1" fill-rule="nonzero"/></g><path fill="#ffffff" d="M 308.503906 242.8125 C 308.238281 242.46875 307.78125 242.394531 307.4375 242.660156 C 307.09375 242.925781 307.015625 243.386719 307.285156 243.726562 C 307.359375 243.84375 307.4375 243.917969 307.511719 244.035156 C 307.742188 244.378906 308.238281 244.453125 308.582031 244.1875 C 308.925781 243.917969 309 243.460938 308.734375 243.117188 C 308.695312 243.003906 308.621094 242.925781 308.503906 242.8125 Z M 308.503906 242.8125 " fill-opacity="1" fill-rule="nonzero"/><path fill="#ffffff" d="M 308.429688 271.167969 C 308.085938 270.898438 307.628906 270.976562 307.359375 271.320312 C 307.285156 271.433594 307.207031 271.511719 307.132812 271.625 C 306.863281 271.96875 306.941406 272.425781 307.285156 272.691406 C 307.628906 272.960938 308.085938 272.882812 308.351562 272.539062 C 308.429688 272.425781 308.503906 272.351562 308.582031 272.234375 C 308.808594 271.890625 308.734375 271.394531 308.429688 271.167969 Z M 308.429688 271.167969 " fill-opacity="1" fill-rule="nonzero"/><path fill="#ffffff" d="M 305.910156 239.875 C 305.605469 239.570312 305.109375 239.605469 304.839844 239.914062 C 304.535156 240.21875 304.574219 240.714844 304.878906 240.980469 C 304.957031 241.058594 305.070312 241.132812 305.148438 241.246094 C 305.453125 241.554688 305.949219 241.554688 306.214844 241.246094 C 306.519531 240.941406 306.519531 240.445312 306.214844 240.179688 C 306.101562 240.066406 305.988281 239.988281 305.910156 239.875 Z M 305.910156 239.875 " fill-opacity="1" fill-rule="nonzero"/><path fill="#ffffff" d="M 291.789062 280.289062 C 291.675781 280.289062 291.5625 280.324219 291.410156 280.324219 C 290.988281 280.363281 290.683594 280.746094 290.722656 281.164062 C 290.761719 281.546875 291.105469 281.851562 291.484375 281.851562 C 291.523438 281.851562 291.828125 281.8125 291.941406 281.8125 C 292.363281 281.777344 292.667969 281.394531 292.59375 280.972656 C 292.59375 280.554688 292.210938 280.25 291.789062 280.289062 Z M 291.789062 280.289062 " fill-opacity="1" fill-rule="nonzero"/><path fill="#ffffff" d="M 274.234375 275.058594 C 273.929688 274.792969 273.433594 274.832031 273.167969 275.136719 C 272.902344 275.441406 272.9375 275.9375 273.242188 276.203125 C 273.359375 276.28125 273.433594 276.355469 273.550781 276.472656 C 273.855469 276.738281 274.351562 276.699219 274.617188 276.355469 C 274.886719 276.011719 274.847656 275.554688 274.503906 275.289062 C 274.425781 275.210938 274.351562 275.136719 274.234375 275.058594 Z M 274.234375 275.058594 " fill-opacity="1" fill-rule="nonzero"/><path fill="#ffffff" d="M 277.554688 277.386719 C 277.441406 277.3125 277.328125 277.273438 277.25 277.195312 C 276.90625 276.96875 276.410156 277.082031 276.21875 277.464844 C 275.992188 277.808594 276.105469 278.304688 276.488281 278.492188 C 276.601562 278.570312 276.714844 278.644531 276.832031 278.683594 C 277.175781 278.875 277.671875 278.761719 277.863281 278.417969 C 278.050781 278.074219 277.9375 277.617188 277.554688 277.386719 Z M 277.554688 277.386719 " fill-opacity="1" fill-rule="nonzero"/><path fill="#ffffff" d="M 280.914062 278.988281 C 280.800781 278.953125 280.683594 278.914062 280.570312 278.835938 C 280.1875 278.683594 279.730469 278.875 279.578125 279.257812 C 279.425781 279.636719 279.617188 280.097656 280 280.25 C 280.113281 280.289062 280.226562 280.363281 280.378906 280.402344 C 280.761719 280.554688 281.21875 280.363281 281.371094 279.945312 C 281.488281 279.5625 281.296875 279.140625 280.914062 278.988281 Z M 280.914062 278.988281 " fill-opacity="1" fill-rule="nonzero"/><path fill="#ffffff" d="M 311.75 264.335938 C 311.328125 264.222656 310.910156 264.410156 310.796875 264.832031 C 310.757812 264.945312 310.71875 265.0625 310.679688 265.175781 C 310.527344 265.558594 310.757812 266.015625 311.136719 266.167969 C 311.519531 266.320312 311.976562 266.089844 312.128906 265.710938 C 312.167969 265.59375 312.207031 265.441406 312.246094 265.328125 C 312.359375 264.871094 312.128906 264.449219 311.75 264.335938 Z M 311.75 264.335938 " fill-opacity="1" fill-rule="nonzero"/><path fill="#ffffff" d="M 284.464844 280.019531 C 284.347656 279.980469 284.234375 279.980469 284.121094 279.945312 C 283.699219 279.867188 283.320312 280.097656 283.203125 280.515625 C 283.128906 280.9375 283.355469 281.316406 283.777344 281.433594 C 283.890625 281.46875 284.273438 281.546875 284.3125 281.546875 C 284.65625 281.546875 284.996094 281.28125 285.074219 280.9375 C 285.152344 280.476562 284.882812 280.097656 284.464844 280.019531 Z M 284.464844 280.019531 " fill-opacity="1" fill-rule="nonzero"/><g clip-path="url(#id9)"><path fill="#ffffff" d="M 312.703125 256.703125 C 312.285156 256.703125 311.941406 257.046875 311.941406 257.464844 C 311.941406 257.464844 311.941406 257.808594 311.941406 257.925781 C 311.941406 258.34375 312.285156 258.6875 312.703125 258.6875 C 313.121094 258.6875 313.464844 258.34375 313.464844 257.925781 C 313.464844 257.808594 313.464844 257.464844 313.464844 257.464844 C 313.464844 257.046875 313.121094 256.703125 312.703125 256.703125 Z M 312.703125 256.703125 " fill-opacity="1" fill-rule="nonzero"/></g><g clip-path="url(#id10)"><path fill="#ffffff" d="M 288.128906 280.441406 C 288.011719 280.441406 287.898438 280.441406 287.746094 280.441406 C 287.324219 280.441406 286.980469 280.746094 286.945312 281.164062 C 286.90625 281.585938 287.25 281.929688 287.667969 281.964844 C 287.785156 281.964844 288.089844 282.003906 288.089844 282.003906 C 288.507812 282.003906 288.851562 281.699219 288.851562 281.28125 C 288.851562 280.820312 288.546875 280.441406 288.128906 280.441406 Z M 288.128906 280.441406 " fill-opacity="1" fill-rule="nonzero"/></g><g clip-path="url(#id11)"><path fill="#ffffff" d="M 270.941406 259.890625 C 270.941406 259.796875 270.941406 259.703125 270.910156 259.582031 C 270.878906 259.238281 270.601562 258.988281 270.257812 258.988281 C 269.917969 259.019531 269.667969 259.300781 269.667969 259.640625 C 269.667969 259.734375 269.667969 259.859375 269.699219 259.953125 C 269.730469 260.296875 270.039062 260.542969 270.382812 260.511719 C 270.695312 260.542969 270.972656 260.234375 270.941406 259.890625 Z M 270.941406 259.890625 " fill-opacity="1" fill-rule="nonzero"/></g><path fill="#ffffff" d="M 271.53125 251.410156 C 271.84375 251.535156 272.214844 251.378906 272.339844 251.066406 C 272.371094 251.003906 272.433594 250.910156 272.464844 250.820312 C 272.621094 250.507812 272.464844 250.136719 272.152344 250.011719 C 271.84375 249.886719 271.46875 250.011719 271.347656 250.320312 C 271.316406 250.414062 271.253906 250.507812 271.222656 250.632812 C 271.066406 250.910156 271.222656 251.285156 271.53125 251.410156 Z M 271.53125 251.410156 " fill-opacity="1" fill-rule="nonzero"/><path fill="#ffffff" d="M 270.664062 254.390625 C 271.003906 254.484375 271.347656 254.265625 271.40625 253.925781 C 271.4375 253.832031 271.46875 253.738281 271.46875 253.644531 C 271.5625 253.304688 271.347656 252.960938 271.035156 252.898438 C 270.695312 252.808594 270.351562 253.023438 270.289062 253.335938 C 270.257812 253.429688 270.226562 253.554688 270.195312 253.644531 C 270.101562 253.988281 270.320312 254.328125 270.664062 254.390625 Z M 270.664062 254.390625 " fill-opacity="1" fill-rule="nonzero"/><path fill="#ffffff" d="M 271.40625 262.875 C 271.378906 262.78125 271.347656 262.6875 271.347656 262.59375 C 271.285156 262.253906 270.941406 262.035156 270.601562 262.097656 C 270.257812 262.160156 270.070312 262.5 270.132812 262.84375 C 270.164062 262.9375 270.195312 263.058594 270.195312 263.152344 C 270.289062 263.496094 270.632812 263.683594 270.941406 263.621094 C 271.285156 263.527344 271.5 263.183594 271.40625 262.875 Z M 271.40625 262.875 " fill-opacity="1" fill-rule="nonzero"/><path fill="#ffffff" d="M 274.824219 244.976562 C 274.761719 245.070312 274.671875 245.132812 274.609375 245.226562 C 274.390625 245.476562 274.390625 245.878906 274.671875 246.097656 C 274.917969 246.3125 275.324219 246.28125 275.539062 246.035156 C 275.601562 245.972656 275.664062 245.878906 275.726562 245.816406 C 275.945312 245.566406 275.945312 245.164062 275.695312 244.945312 C 275.445312 244.699219 275.042969 244.730469 274.824219 244.976562 Z M 274.824219 244.976562 " fill-opacity="1" fill-rule="nonzero"/><path fill="#ffffff" d="M 275.386719 270.515625 C 275.167969 270.269531 274.761719 270.238281 274.515625 270.453125 C 274.265625 270.671875 274.234375 271.078125 274.453125 271.324219 C 274.515625 271.417969 274.578125 271.480469 274.671875 271.574219 C 274.886719 271.820312 275.292969 271.851562 275.539062 271.636719 C 275.789062 271.417969 275.820312 271.015625 275.601562 270.765625 C 275.507812 270.671875 275.445312 270.609375 275.386719 270.515625 Z M 275.386719 270.515625 " fill-opacity="1" fill-rule="nonzero"/><path fill="#ffffff" d="M 272.246094 265.421875 C 272.121094 265.109375 271.75 264.957031 271.4375 265.078125 C 271.128906 265.203125 270.972656 265.578125 271.097656 265.886719 C 271.128906 265.980469 271.191406 266.074219 271.222656 266.167969 C 271.347656 266.476562 271.71875 266.632812 272.03125 266.507812 C 272.339844 266.386719 272.496094 266.011719 272.371094 265.703125 C 272.339844 265.609375 272.277344 265.515625 272.246094 265.421875 Z M 272.246094 265.421875 " fill-opacity="1" fill-rule="nonzero"/><path fill="#ffffff" d="M 273.613281 268.09375 C 273.425781 267.8125 273.054688 267.722656 272.742188 267.875 C 272.464844 268.0625 272.371094 268.433594 272.527344 268.746094 C 272.589844 268.839844 272.652344 268.933594 272.683594 269.027344 C 272.867188 269.304688 273.242188 269.398438 273.550781 269.210938 C 273.832031 269.027344 273.925781 268.652344 273.738281 268.34375 C 273.707031 268.28125 273.675781 268.1875 273.613281 268.09375 Z M 273.613281 268.09375 " fill-opacity="1" fill-rule="nonzero"/><path fill="#ffffff" d="M 273.738281 247.308594 C 273.457031 247.121094 273.054688 247.214844 272.867188 247.496094 C 272.804688 247.585938 272.742188 247.679688 272.683594 247.773438 C 272.496094 248.054688 272.589844 248.457031 272.867188 248.644531 C 273.148438 248.832031 273.550781 248.738281 273.738281 248.457031 C 273.800781 248.363281 273.832031 248.300781 273.894531 248.207031 C 274.082031 247.898438 274.019531 247.496094 273.738281 247.308594 Z M 273.738281 247.308594 " fill-opacity="1" fill-rule="nonzero"/><path fill="#ffffff" d="M 306.175781 249.917969 C 306.332031 250.226562 306.703125 250.351562 307.015625 250.199219 C 307.324219 250.042969 307.449219 249.667969 307.292969 249.359375 C 307.230469 249.265625 307.199219 249.171875 307.136719 249.078125 C 306.984375 248.769531 306.609375 248.644531 306.300781 248.832031 C 305.988281 248.984375 305.894531 249.359375 306.050781 249.667969 C 306.082031 249.730469 306.113281 249.824219 306.175781 249.917969 Z M 306.175781 249.917969 " fill-opacity="1" fill-rule="nonzero"/><path fill="#ffffff" d="M 294.679688 240.441406 C 294.773438 240.472656 294.867188 240.503906 294.960938 240.535156 C 295.269531 240.628906 295.644531 240.441406 295.734375 240.128906 C 295.828125 239.789062 295.644531 239.445312 295.332031 239.355469 C 295.238281 239.324219 295.113281 239.292969 295.019531 239.261719 C 294.679688 239.167969 294.335938 239.355469 294.246094 239.695312 C 294.152344 240.007812 294.335938 240.347656 294.679688 240.441406 Z M 294.679688 240.441406 " fill-opacity="1" fill-rule="nonzero"/><path fill="#ffffff" d="M 297.476562 241.496094 C 297.570312 241.527344 297.664062 241.589844 297.753906 241.621094 C 298.066406 241.777344 298.4375 241.652344 298.59375 241.34375 C 298.75 241.03125 298.625 240.660156 298.316406 240.503906 C 298.222656 240.441406 298.128906 240.410156 298.035156 240.378906 C 297.722656 240.222656 297.351562 240.378906 297.195312 240.691406 C 297.039062 240.96875 297.164062 241.34375 297.476562 241.496094 Z M 297.476562 241.496094 " fill-opacity="1" fill-rule="nonzero"/><path fill="#ffffff" d="M 300.085938 242.988281 C 300.179688 243.050781 300.242188 243.113281 300.335938 243.175781 C 300.613281 243.363281 301.019531 243.300781 301.203125 243.019531 C 301.390625 242.742188 301.328125 242.367188 301.050781 242.148438 C 300.957031 242.089844 300.863281 242.027344 300.800781 241.964844 C 300.519531 241.777344 300.117188 241.839844 299.929688 242.117188 C 299.742188 242.398438 299.804688 242.800781 300.085938 242.988281 Z M 300.085938 242.988281 " fill-opacity="1" fill-rule="nonzero"/><g clip-path="url(#id12)"><path fill="#ffffff" d="M 307.945312 255.324219 C 307.976562 255.417969 307.976562 255.511719 308.007812 255.632812 C 308.070312 255.976562 308.382812 256.195312 308.722656 256.164062 C 309.066406 256.101562 309.28125 255.789062 309.25 255.449219 C 309.25 255.355469 309.21875 255.230469 309.1875 255.136719 C 309.128906 254.796875 308.816406 254.578125 308.476562 254.609375 C 308.132812 254.671875 307.882812 254.980469 307.945312 255.324219 Z M 307.945312 255.324219 " fill-opacity="1" fill-rule="nonzero"/></g><path fill="#ffffff" d="M 307.230469 252.402344 C 307.261719 252.496094 307.292969 252.589844 307.324219 252.683594 C 307.417969 252.992188 307.792969 253.179688 308.101562 253.085938 C 308.445312 252.992188 308.597656 252.621094 308.503906 252.308594 C 308.476562 252.21875 308.445312 252.09375 308.414062 252 C 308.289062 251.6875 307.945312 251.503906 307.636719 251.59375 C 307.292969 251.71875 307.109375 252.09375 307.230469 252.402344 Z M 307.230469 252.402344 " fill-opacity="1" fill-rule="nonzero"/><g clip-path="url(#id13)"><path fill="#ffffff" d="M 291.726562 239.851562 C 291.820312 239.851562 292.070312 239.882812 292.101562 239.882812 C 292.410156 239.882812 292.660156 239.664062 292.722656 239.355469 C 292.753906 239.011719 292.535156 238.703125 292.195312 238.671875 C 292.101562 238.671875 291.976562 238.640625 291.882812 238.640625 C 291.542969 238.609375 291.230469 238.855469 291.199219 239.199219 C 291.136719 239.507812 291.386719 239.820312 291.726562 239.851562 Z M 291.726562 239.851562 " fill-opacity="1" fill-rule="nonzero"/></g><path fill="#ffffff" d="M 279.859375 242.304688 C 280.078125 242.304688 280.261719 242.179688 280.417969 242.089844 C 280.730469 241.933594 280.824219 241.527344 280.667969 241.25 C 280.511719 240.9375 280.109375 240.84375 279.828125 241 C 279.734375 241.0625 279.640625 241.09375 279.546875 241.15625 C 279.238281 241.34375 279.144531 241.714844 279.332031 241.996094 C 279.425781 242.210938 279.640625 242.304688 279.859375 242.304688 Z M 279.859375 242.304688 " fill-opacity="1" fill-rule="nonzero"/><path fill="#ffffff" d="M 277.3125 244.078125 C 277.558594 244.078125 277.746094 243.890625 277.933594 243.734375 C 278.210938 243.515625 278.242188 243.144531 278.027344 242.863281 C 277.808594 242.585938 277.4375 242.554688 277.15625 242.773438 C 277.0625 242.832031 277 242.894531 276.90625 242.957031 C 276.628906 243.175781 276.597656 243.578125 276.8125 243.828125 C 276.9375 244.015625 277.125 244.078125 277.3125 244.078125 Z M 277.3125 244.078125 " fill-opacity="1" fill-rule="nonzero"/><path fill="#ffffff" d="M 282.65625 240.96875 C 282.84375 240.96875 282.996094 240.875 283.152344 240.8125 C 283.464844 240.691406 283.648438 240.347656 283.523438 240.007812 C 283.402344 239.695312 283.058594 239.507812 282.71875 239.632812 C 282.625 239.664062 282.53125 239.695312 282.40625 239.757812 C 282.097656 239.882812 281.941406 240.253906 282.035156 240.566406 C 282.160156 240.8125 282.40625 240.96875 282.65625 240.96875 Z M 282.65625 240.96875 " fill-opacity="1" fill-rule="nonzero"/><g clip-path="url(#id14)"><path fill="#ffffff" d="M 285.636719 240.128906 C 285.792969 240.128906 285.917969 240.097656 286.074219 240.070312 C 286.414062 240.007812 286.632812 239.664062 286.570312 239.355469 C 286.507812 239.011719 286.167969 238.792969 285.855469 238.855469 C 285.761719 238.886719 285.636719 238.886719 285.546875 238.917969 C 285.203125 238.980469 284.984375 239.324219 285.046875 239.664062 C 285.078125 239.914062 285.328125 240.128906 285.636719 240.128906 Z M 285.636719 240.128906 " fill-opacity="1" fill-rule="nonzero"/></g><g clip-path="url(#id15)"><path fill="#ffffff" d="M 288.714844 239.726562 C 288.714844 239.726562 288.929688 239.726562 289.054688 239.726562 C 289.398438 239.726562 289.675781 239.445312 289.644531 239.074219 C 289.644531 238.730469 289.367188 238.453125 288.992188 238.484375 C 288.902344 238.484375 288.777344 238.484375 288.683594 238.484375 C 288.339844 238.484375 288.0625 238.792969 288.09375 239.136719 C 288.09375 239.476562 288.371094 239.726562 288.714844 239.726562 Z M 288.714844 239.726562 " fill-opacity="1" fill-rule="nonzero"/></g><g clip-path="url(#id16)"><path fill="#ffffff" d="M 270.257812 257.46875 C 270.601562 257.5 270.910156 257.25 270.941406 256.910156 C 270.941406 256.816406 270.972656 256.722656 270.972656 256.597656 C 271.003906 256.257812 270.753906 255.945312 270.414062 255.914062 C 270.070312 255.882812 269.761719 256.132812 269.730469 256.472656 C 269.730469 256.566406 269.699219 256.691406 269.699219 256.785156 C 269.667969 257.15625 269.917969 257.4375 270.257812 257.46875 Z M 270.257812 257.46875 " fill-opacity="1" fill-rule="nonzero"/></g><path fill="#ffffff" d="M 297.539062 275.207031 C 297.445312 275.238281 297.351562 275.300781 297.257812 275.332031 C 296.949219 275.488281 296.792969 275.828125 296.949219 276.140625 C 297.101562 276.453125 297.476562 276.574219 297.785156 276.453125 C 297.878906 276.421875 297.972656 276.359375 298.066406 276.328125 C 298.375 276.171875 298.5 275.800781 298.347656 275.488281 C 298.222656 275.207031 297.847656 275.085938 297.539062 275.207031 Z M 297.539062 275.207031 " fill-opacity="1" fill-rule="nonzero"/><path fill="#ffffff" d="M 300.148438 273.71875 C 300.054688 273.78125 299.992188 273.839844 299.898438 273.871094 C 299.621094 274.058594 299.527344 274.464844 299.714844 274.742188 C 299.898438 275.023438 300.304688 275.117188 300.582031 274.929688 C 300.675781 274.867188 300.769531 274.804688 300.863281 274.742188 C 301.140625 274.554688 301.203125 274.152344 301.019531 273.871094 C 300.800781 273.59375 300.425781 273.53125 300.148438 273.71875 Z M 300.148438 273.71875 " fill-opacity="1" fill-rule="nonzero"/><path fill="#ffffff" d="M 302.445312 271.820312 C 302.386719 271.882812 302.292969 271.945312 302.230469 272.039062 C 301.980469 272.289062 301.949219 272.660156 302.199219 272.910156 C 302.414062 273.15625 302.820312 273.15625 303.070312 272.941406 C 303.160156 272.878906 303.222656 272.785156 303.285156 272.722656 C 303.535156 272.472656 303.535156 272.101562 303.316406 271.851562 C 303.097656 271.605469 302.695312 271.574219 302.445312 271.820312 Z M 302.445312 271.820312 " fill-opacity="1" fill-rule="nonzero"/><path fill="#ffffff" d="M 294.742188 276.296875 C 294.648438 276.328125 294.554688 276.359375 294.460938 276.390625 C 294.121094 276.484375 293.933594 276.824219 294.027344 277.167969 C 294.089844 277.445312 294.335938 277.632812 294.617188 277.632812 C 294.679688 277.632812 294.992188 277.539062 295.082031 277.507812 C 295.425781 277.414062 295.613281 277.074219 295.519531 276.730469 C 295.425781 276.390625 295.050781 276.203125 294.742188 276.296875 Z M 294.742188 276.296875 " fill-opacity="1" fill-rule="nonzero"/><path fill="#ffffff" d="M 306.890625 266.789062 C 306.578125 266.632812 306.207031 266.757812 306.050781 267.039062 C 305.988281 267.128906 305.957031 267.222656 305.894531 267.316406 C 305.742188 267.628906 305.832031 268 306.144531 268.15625 C 306.457031 268.3125 306.828125 268.21875 306.984375 267.90625 C 307.046875 267.8125 307.078125 267.722656 307.136719 267.628906 C 307.324219 267.316406 307.199219 266.945312 306.890625 266.789062 Z M 306.890625 266.789062 " fill-opacity="1" fill-rule="nonzero"/><g clip-path="url(#id17)"><path fill="#ffffff" d="M 308.660156 260.855469 C 308.320312 260.792969 308.007812 261.039062 307.945312 261.382812 C 307.914062 261.476562 307.914062 261.570312 307.882812 261.664062 C 307.820312 262.003906 308.039062 262.316406 308.382812 262.375 C 308.722656 262.4375 309.035156 262.222656 309.097656 261.878906 C 309.128906 261.785156 309.128906 261.664062 309.15625 261.570312 C 309.25 261.226562 309.003906 260.917969 308.660156 260.855469 Z M 308.660156 260.855469 " fill-opacity="1" fill-rule="nonzero"/></g><path fill="#ffffff" d="M 305.398438 246.375 C 305.179688 246.097656 304.808594 246.035156 304.527344 246.25 C 304.25 246.46875 304.1875 246.839844 304.40625 247.121094 C 304.464844 247.214844 304.527344 247.277344 304.589844 247.371094 C 304.777344 247.648438 305.179688 247.710938 305.460938 247.496094 C 305.742188 247.277344 305.800781 246.902344 305.585938 246.625 C 305.554688 246.53125 305.492188 246.46875 305.398438 246.375 Z M 305.398438 246.375 " fill-opacity="1" fill-rule="nonzero"/><path fill="#ffffff" d="M 305.335938 269.460938 C 305.058594 269.242188 304.683594 269.304688 304.464844 269.585938 C 304.40625 269.679688 304.34375 269.742188 304.28125 269.832031 C 304.0625 270.113281 304.125 270.484375 304.40625 270.703125 C 304.683594 270.921875 305.058594 270.859375 305.273438 270.578125 C 305.335938 270.484375 305.398438 270.425781 305.460938 270.332031 C 305.648438 270.050781 305.585938 269.648438 305.335938 269.460938 Z M 305.335938 269.460938 " fill-opacity="1" fill-rule="nonzero"/><path fill="#ffffff" d="M 303.285156 243.984375 C 303.039062 243.734375 302.632812 243.765625 302.414062 244.015625 C 302.167969 244.261719 302.199219 244.667969 302.445312 244.882812 C 302.507812 244.945312 302.601562 245.007812 302.664062 245.101562 C 302.914062 245.351562 303.316406 245.351562 303.535156 245.101562 C 303.78125 244.851562 303.78125 244.449219 303.535156 244.230469 C 303.441406 244.136719 303.347656 244.078125 303.285156 243.984375 Z M 303.285156 243.984375 " fill-opacity="1" fill-rule="nonzero"/><g clip-path="url(#id18)"><path fill="#ffffff" d="M 291.789062 276.886719 C 291.695312 276.886719 291.605469 276.917969 291.480469 276.917969 C 291.136719 276.949219 290.890625 277.257812 290.921875 277.601562 C 290.949219 277.910156 291.230469 278.160156 291.542969 278.160156 C 291.574219 278.160156 291.820312 278.128906 291.914062 278.128906 C 292.257812 278.097656 292.503906 277.789062 292.441406 277.445312 C 292.441406 277.105469 292.132812 276.855469 291.789062 276.886719 Z M 291.789062 276.886719 " fill-opacity="1" fill-rule="nonzero"/></g><path fill="#ffffff" d="M 277.496094 272.628906 C 277.25 272.414062 276.84375 272.445312 276.628906 272.691406 C 276.410156 272.941406 276.441406 273.34375 276.691406 273.5625 C 276.78125 273.625 276.84375 273.6875 276.9375 273.78125 C 277.1875 273.996094 277.589844 273.964844 277.808594 273.6875 C 278.027344 273.40625 277.996094 273.035156 277.714844 272.816406 C 277.652344 272.753906 277.589844 272.691406 277.496094 272.628906 Z M 277.496094 272.628906 " fill-opacity="1" fill-rule="nonzero"/><path fill="#ffffff" d="M 280.199219 274.523438 C 280.109375 274.464844 280.015625 274.433594 279.953125 274.371094 C 279.671875 274.183594 279.269531 274.277344 279.113281 274.585938 C 278.925781 274.867188 279.019531 275.269531 279.332031 275.425781 C 279.425781 275.488281 279.515625 275.550781 279.609375 275.582031 C 279.890625 275.738281 280.292969 275.644531 280.449219 275.363281 C 280.605469 275.085938 280.511719 274.710938 280.199219 274.523438 Z M 280.199219 274.523438 " fill-opacity="1" fill-rule="nonzero"/><path fill="#ffffff" d="M 282.933594 275.828125 C 282.84375 275.800781 282.75 275.769531 282.65625 275.707031 C 282.34375 275.582031 281.972656 275.738281 281.847656 276.046875 C 281.722656 276.359375 281.878906 276.730469 282.1875 276.855469 C 282.28125 276.886719 282.375 276.949219 282.5 276.980469 C 282.8125 277.105469 283.183594 276.949219 283.308594 276.605469 C 283.402344 276.296875 283.246094 275.953125 282.933594 275.828125 Z M 282.933594 275.828125 " fill-opacity="1" fill-rule="nonzero"/><path fill="#ffffff" d="M 308.039062 263.898438 C 307.699219 263.804688 307.355469 263.960938 307.261719 264.304688 C 307.230469 264.394531 307.199219 264.488281 307.167969 264.582031 C 307.046875 264.894531 307.230469 265.265625 307.542969 265.390625 C 307.851562 265.515625 308.226562 265.328125 308.351562 265.019531 C 308.382812 264.925781 308.414062 264.800781 308.445312 264.707031 C 308.535156 264.335938 308.351562 263.992188 308.039062 263.898438 Z M 308.039062 263.898438 " fill-opacity="1" fill-rule="nonzero"/><path fill="#ffffff" d="M 285.824219 276.667969 C 285.730469 276.636719 285.636719 276.636719 285.546875 276.605469 C 285.203125 276.542969 284.890625 276.730469 284.800781 277.074219 C 284.738281 277.414062 284.921875 277.726562 285.265625 277.820312 C 285.359375 277.851562 285.667969 277.910156 285.699219 277.910156 C 285.980469 277.910156 286.257812 277.695312 286.320312 277.414062 C 286.382812 277.042969 286.167969 276.730469 285.824219 276.667969 Z M 285.824219 276.667969 " fill-opacity="1" fill-rule="nonzero"/><g clip-path="url(#id19)"><path fill="#ffffff" d="M 308.816406 257.683594 C 308.476562 257.683594 308.195312 257.964844 308.195312 258.304688 C 308.195312 258.304688 308.195312 258.585938 308.195312 258.679688 C 308.195312 259.019531 308.476562 259.300781 308.816406 259.300781 C 309.15625 259.300781 309.4375 259.019531 309.4375 258.679688 C 309.4375 258.585938 309.4375 258.304688 309.4375 258.304688 C 309.4375 257.964844 309.15625 257.683594 308.816406 257.683594 Z M 308.816406 257.683594 " fill-opacity="1" fill-rule="nonzero"/></g><g clip-path="url(#id20)"><path fill="#ffffff" d="M 288.808594 277.011719 C 288.714844 277.011719 288.621094 277.011719 288.496094 277.011719 C 288.15625 277.011719 287.875 277.257812 287.84375 277.601562 C 287.8125 277.941406 288.09375 278.222656 288.433594 278.253906 C 288.527344 278.253906 288.777344 278.285156 288.777344 278.285156 C 289.117188 278.285156 289.398438 278.035156 289.398438 277.695312 C 289.398438 277.320312 289.148438 277.011719 288.808594 277.011719 Z M 288.808594 277.011719 " fill-opacity="1" fill-rule="nonzero"/></g><g fill="#ffffff" fill-opacity="1"><g transform="translate(268.31106, 317.29471)"><g><path d="M 17.710938 0 C 15.328125 -4.644531 13.003906 -9.367188 10.777344 -14.015625 C 9.863281 -13.882812 8.359375 -13.917969 7.464844 -14.015625 C 5.253906 -9.367188 2.96875 -4.644531 0.589844 0 L 2.835938 0 L 4.417969 -3.390625 C 7.21875 -3.425781 11.121094 -3.425781 13.882812 -3.390625 C 14.339844 -2.34375 14.777344 -1.332031 15.386719 0 Z M 5.007812 -4.664062 C 6.417969 -7.691406 7.828125 -10.703125 9.0625 -13.023438 C 11.367188 -8.757812 12.492188 -6.472656 13.308594 -4.664062 C 10.835938 -4.628906 7.523438 -4.628906 5.007812 -4.664062 Z M 5.007812 -4.664062 "/></g></g></g><g fill="#ffffff" fill-opacity="1"><g transform="translate(286.604819, 317.29471)"><g><path d="M 12.53125 -10.28125 C 11.902344 -10.113281 11.179688 -10.054688 10.53125 -10.054688 L 10.53125 -6 C 10.53125 -3.542969 9.351562 -1.3125 6.167969 -1.3125 C 3.980469 -1.3125 3.066406 -2.894531 3.066406 -5.066406 L 3.066406 -10.28125 C 2.398438 -10.113281 1.847656 -10.054688 1.179688 -10.054688 C 1.351562 -8.285156 1.3125 -6.226562 1.3125 -4.304688 C 1.3125 -1.886719 2.246094 0.171875 5.273438 0.171875 C 8.035156 0.171875 9.921875 -1.390625 10.585938 -3.828125 L 10.738281 -3.828125 C 10.703125 -2.664062 10.605469 -1.332031 10.433594 0 L 12.53125 0 C 12.300781 -5.085938 12.320312 -7.332031 12.53125 -10.28125 Z M 12.53125 -10.28125 "/></g></g></g><g fill="#ffffff" fill-opacity="1"><g transform="translate(300.653513, 317.29471)"><g><path d="M 6.96875 0.210938 C 10.433594 0.210938 12.546875 -0.683594 12.546875 -2.875 C 12.546875 -7.597656 2.855469 -3.867188 2.855469 -7.273438 C 2.855469 -8.589844 4.113281 -9.179688 6.703125 -9.179688 C 8.777344 -9.179688 10.570312 -8.664062 11.996094 -7.960938 C 11.863281 -8.625 11.84375 -9.121094 11.976562 -9.578125 C 10.246094 -10.09375 8.816406 -10.417969 6.796875 -10.417969 C 4.683594 -10.417969 1.007812 -10.1875 1.007812 -7.273438 C 1.007812 -2.589844 10.664062 -6.152344 10.664062 -2.914062 C 10.664062 -1.714844 9.351562 -1.085938 6.914062 -1.085938 C 4.914062 -1.085938 2.4375 -1.636719 1.238281 -2.589844 C 1.371094 -2.171875 1.371094 -1.429688 1.238281 -0.972656 C 2.78125 -0.171875 4.988281 0.210938 6.96875 0.210938 Z M 6.96875 0.210938 "/></g></g></g><g fill="#ffffff" fill-opacity="1"><g transform="translate(240.533466, 336.012415)"><g/></g></g><g fill="#ffffff" fill-opacity="1"><g transform="translate(246.239766, 336.012415)"><g><path d="M 10.359375 0.226562 C 16.167969 0.226562 19.59375 -2.457031 19.59375 -7.007812 C 19.59375 -11.617188 16.167969 -14.261719 10.359375 -14.261719 C 4.53125 -14.261719 1.105469 -11.632812 1.105469 -7.007812 C 1.105469 -2.457031 4.550781 0.226562 10.359375 0.226562 Z M 10.359375 -1.140625 C 5.808594 -1.140625 3.121094 -3.238281 3.121094 -6.96875 C 3.121094 -10.683594 5.808594 -12.910156 10.359375 -12.910156 C 14.832031 -12.910156 17.59375 -10.683594 17.59375 -6.96875 C 17.59375 -3.238281 14.832031 -1.140625 10.359375 -1.140625 Z M 10.359375 -1.140625 "/></g></g></g><g fill="#ffffff" fill-opacity="1"><g transform="translate(266.932086, 336.012415)"><g><path d="M 12.53125 -10.28125 C 11.902344 -10.113281 11.179688 -10.054688 10.53125 -10.054688 L 10.53125 -6 C 10.53125 -3.542969 9.351562 -1.3125 6.167969 -1.3125 C 3.980469 -1.3125 3.066406 -2.894531 3.066406 -5.066406 L 3.066406 -10.28125 C 2.398438 -10.113281 1.847656 -10.054688 1.179688 -10.054688 C 1.351562 -8.285156 1.3125 -6.226562 1.3125 -4.304688 C 1.3125 -1.886719 2.246094 0.171875 5.273438 0.171875 C 8.035156 0.171875 9.921875 -1.390625 10.585938 -3.828125 L 10.738281 -3.828125 C 10.703125 -2.664062 10.605469 -1.332031 10.433594 0 L 12.53125 0 C 12.300781 -5.085938 12.320312 -7.332031 12.53125 -10.28125 Z M 12.53125 -10.28125 "/></g></g></g><g fill="#ffffff" fill-opacity="1"><g transform="translate(280.98078, 336.012415)"><g><path d="M 10.417969 -10.167969 C 9.101562 -7.253906 7.828125 -4.132812 6.339844 -0.953125 C 4.914062 -3.960938 3.578125 -7.253906 2.246094 -10.167969 C 1.597656 -10.054688 0.875 -10.074219 0.113281 -10.167969 C 1.921875 -6.722656 3.503906 -3.410156 5.046875 0 L 7.578125 0 C 9.578125 -4.246094 10.585938 -6.550781 12.511719 -10.167969 C 11.75 -10.054688 11.082031 -10.074219 10.417969 -10.167969 Z M 10.417969 -10.167969 "/></g></g></g><g fill="#ffffff" fill-opacity="1"><g transform="translate(293.582729, 336.012415)"><g><path d="M 2.648438 -12.1875 C 3.636719 -12.1875 4.152344 -12.472656 4.152344 -13.140625 C 4.152344 -13.804688 3.636719 -14.109375 2.648438 -14.109375 C 1.75 -14.109375 1.277344 -13.804688 1.277344 -13.140625 C 1.277344 -12.472656 1.75 -12.1875 2.648438 -12.1875 Z M 1.695312 -10.167969 C 1.828125 -6.722656 1.828125 -3.425781 1.695312 0 L 3.675781 0 C 3.542969 -3.445312 3.542969 -6.722656 3.675781 -10.167969 C 2.96875 -10.054688 2.417969 -10.074219 1.695312 -10.167969 Z M 1.695312 -10.167969 "/></g></g></g><g fill="#ffffff" fill-opacity="1"><g transform="translate(299.00804, 336.012415)"><g><path d="M 13.347656 -15.0625 C 12.816406 -14.871094 11.824219 -14.777344 11.195312 -14.738281 C 11.292969 -13.480469 11.367188 -9.386719 11.40625 -6.609375 L 11.253906 -6.609375 C 10.511719 -8.625 9.007812 -10.417969 6.132812 -10.417969 C 3.027344 -10.417969 0.953125 -8.320312 0.953125 -5.292969 C 0.953125 -2.054688 3.105469 0.265625 6.761719 0.265625 C 8.96875 0.265625 10.644531 -0.820312 11.445312 -2.609375 C 11.425781 -1.695312 11.40625 -0.855469 11.347656 0 L 13.234375 0 C 13.003906 -1.980469 12.988281 -12.28125 13.347656 -15.0625 Z M 7.3125 -0.914062 C 4.914062 -0.914062 2.835938 -2.324219 2.835938 -5.179688 C 2.835938 -7.484375 4.359375 -9.082031 6.777344 -9.082031 C 10.722656 -9.082031 11.445312 -5.484375 11.445312 -3.523438 L 11.445312 -3.332031 C 10.398438 -1.429688 8.757812 -0.914062 7.3125 -0.914062 Z M 7.3125 -0.914062 "/></g></g></g><g fill="#ffffff" fill-opacity="1"><g transform="translate(313.875291, 336.012415)"><g><path d="M 7.292969 0.210938 C 11.273438 0.210938 13.613281 -1.769531 13.613281 -5.140625 C 13.613281 -8.4375 11.273438 -10.417969 7.292969 -10.417969 C 3.292969 -10.417969 0.953125 -8.4375 0.953125 -5.140625 C 0.953125 -1.769531 3.292969 0.210938 7.292969 0.210938 Z M 7.273438 -1.007812 C 4.457031 -1.007812 2.855469 -2.511719 2.855469 -5.140625 C 2.855469 -7.597656 4.457031 -9.121094 7.273438 -9.121094 C 10.054688 -9.121094 11.710938 -7.597656 11.710938 -5.140625 C 11.710938 -2.511719 10.054688 -1.007812 7.273438 -1.007812 Z M 7.273438 -1.007812 "/></g></g></g><g fill="#ffffff" fill-opacity="1"><g transform="translate(328.437962, 336.012415)"><g><path d="M 6.96875 0.210938 C 10.433594 0.210938 12.546875 -0.683594 12.546875 -2.875 C 12.546875 -7.597656 2.855469 -3.867188 2.855469 -7.273438 C 2.855469 -8.589844 4.113281 -9.179688 6.703125 -9.179688 C 8.777344 -9.179688 10.570312 -8.664062 11.996094 -7.960938 C 11.863281 -8.625 11.84375 -9.121094 11.976562 -9.578125 C 10.246094 -10.09375 8.816406 -10.417969 6.796875 -10.417969 C 4.683594 -10.417969 1.007812 -10.1875 1.007812 -7.273438 C 1.007812 -2.589844 10.664062 -6.152344 10.664062 -2.914062 C 10.664062 -1.714844 9.351562 -1.085938 6.914062 -1.085938 C 4.914062 -1.085938 2.4375 -1.636719 1.238281 -2.589844 C 1.371094 -2.171875 1.371094 -1.429688 1.238281 -0.972656 C 2.78125 -0.171875 4.988281 0.210938 6.96875 0.210938 Z M 6.96875 0.210938 "/></g></g></g></svg>