<svg xmlns="http://www.w3.org/2000/svg" xmlns:xlink="http://www.w3.org/1999/xlink" width="800" zoomAndPan="magnify" viewBox="0 0 600 599.999999" height="800" preserveAspectRatio="xMidYMid meet" version="1.0"><defs><g/><clipPath id="id1"><path d="M 138.386719 272.113281 L 188.652344 272.113281 L 188.652344 322.382812 L 138.386719 322.382812 Z M 138.386719 272.113281 " clip-rule="nonzero"/></clipPath><clipPath id="id2"><path d="M 128.726562 300 L 131 300 L 131 303 L 128.726562 303 Z M 128.726562 300 " clip-rule="nonzero"/></clipPath><clipPath id="id3"><path d="M 181 294 L 183.761719 294 L 183.761719 297 L 181 297 Z M 181 294 " clip-rule="nonzero"/></clipPath><clipPath id="id4"><path d="M 158 272.113281 L 161 272.113281 L 161 275 L 158 275 Z M 158 272.113281 " clip-rule="nonzero"/></clipPath><clipPath id="id5"><path d="M 150 272.113281 L 153 272.113281 L 153 275 L 150 275 Z M 150 272.113281 " clip-rule="nonzero"/></clipPath><clipPath id="id6"><path d="M 154 272.113281 L 157 272.113281 L 157 274 L 154 274 Z M 154 272.113281 " clip-rule="nonzero"/></clipPath><clipPath id="id7"><path d="M 128.726562 296 L 131 296 L 131 299 L 128.726562 299 Z M 128.726562 296 " clip-rule="nonzero"/></clipPath><clipPath id="id8"><path d="M 181 303 L 183.761719 303 L 183.761719 306 L 181 306 Z M 181 303 " clip-rule="nonzero"/></clipPath><clipPath id="id9"><path d="M 182 298 L 183.761719 298 L 183.761719 301 L 182 301 Z M 182 298 " clip-rule="nonzero"/></clipPath><clipPath id="id10"><path d="M 153 325 L 157 325 L 157 327.148438 L 153 327.148438 Z M 153 325 " clip-rule="nonzero"/></clipPath><clipPath id="id11"><path d="M 134.414062 301 L 136 301 L 136 303 L 134.414062 303 Z M 134.414062 301 " clip-rule="nonzero"/></clipPath><clipPath id="id12"><path d="M 134.414062 304 L 137 304 L 137 307 L 134.414062 307 Z M 134.414062 304 " clip-rule="nonzero"/></clipPath><clipPath id="id13"><path d="M 158 278.15625 L 161 278.15625 L 161 280 L 158 280 Z M 158 278.15625 " clip-rule="nonzero"/></clipPath><clipPath id="id14"><path d="M 151 278.15625 L 154 278.15625 L 154 281 L 151 281 Z M 151 278.15625 " clip-rule="nonzero"/></clipPath><clipPath id="id15"><path d="M 155 278.15625 L 157 278.15625 L 157 280 L 155 280 Z M 155 278.15625 " clip-rule="nonzero"/></clipPath><clipPath id="id16"><path d="M 134.414062 297 L 136 297 L 136 300 L 134.414062 300 Z M 134.414062 297 " clip-rule="nonzero"/></clipPath><clipPath id="id17"><path d="M 161 320 L 164 320 L 164 322.964844 L 161 322.964844 Z M 161 320 " clip-rule="nonzero"/></clipPath><clipPath id="id18"><path d="M 158 321 L 161 321 L 161 322.964844 L 158 322.964844 Z M 158 321 " clip-rule="nonzero"/></clipPath><clipPath id="id19"><path d="M 151 321 L 154 321 L 154 322.964844 L 151 322.964844 Z M 151 321 " clip-rule="nonzero"/></clipPath><clipPath id="id20"><path d="M 177 299 L 179.222656 299 L 179.222656 302 L 177 302 Z M 177 299 " clip-rule="nonzero"/></clipPath><clipPath id="id21"><path d="M 154 321 L 157 321 L 157 322.964844 L 154 322.964844 Z M 154 321 " clip-rule="nonzero"/></clipPath></defs><g fill="#a1d2b9" fill-opacity="1"><g transform="translate(193.971526, 317.701648)"><g><path d="M 31.929688 0 C 27.640625 -8.378906 23.449219 -16.894531 19.433594 -25.269531 C 17.785156 -25.03125 15.074219 -25.097656 13.460938 -25.269531 C 9.476562 -16.894531 5.355469 -8.378906 1.0625 0 L 5.117188 0 L 7.964844 -6.113281 C 13.011719 -6.179688 20.050781 -6.179688 25.03125 -6.113281 C 25.855469 -4.222656 26.644531 -2.402344 27.742188 0 Z M 9.03125 -8.410156 C 11.570312 -13.871094 14.113281 -19.296875 16.34375 -23.484375 C 20.496094 -15.792969 22.523438 -11.675781 24 -8.410156 C 19.535156 -8.34375 13.5625 -8.34375 9.03125 -8.410156 Z M 9.03125 -8.410156 "/></g></g></g><g fill="#a1d2b9" fill-opacity="1"><g transform="translate(226.957105, 317.701648)"><g><path d="M 22.59375 -18.539062 C 21.460938 -18.230469 20.15625 -18.128906 18.988281 -18.128906 L 18.988281 -10.816406 C 18.988281 -6.386719 16.859375 -2.367188 11.125 -2.367188 C 7.175781 -2.367188 5.527344 -5.21875 5.527344 -9.132812 L 5.527344 -18.539062 C 4.328125 -18.230469 3.332031 -18.128906 2.128906 -18.128906 C 2.4375 -14.9375 2.367188 -11.226562 2.367188 -7.757812 C 2.367188 -3.398438 4.050781 0.308594 9.511719 0.308594 C 14.488281 0.308594 17.886719 -2.507812 19.089844 -6.902344 L 19.363281 -6.902344 C 19.296875 -4.808594 19.125 -2.402344 18.816406 0 L 22.59375 0 C 22.179688 -9.167969 22.214844 -13.21875 22.59375 -18.539062 Z M 22.59375 -18.539062 "/></g></g></g><g fill="#a1d2b9" fill-opacity="1"><g transform="translate(252.288384, 317.701648)"><g><path d="M 12.566406 0.378906 C 18.816406 0.378906 22.625 -1.234375 22.625 -5.183594 C 22.625 -13.699219 5.148438 -6.96875 5.148438 -13.117188 C 5.148438 -15.484375 7.417969 -16.550781 12.085938 -16.550781 C 15.828125 -16.550781 19.054688 -15.621094 21.632812 -14.351562 C 21.390625 -15.554688 21.355469 -16.445312 21.597656 -17.269531 C 18.472656 -18.199219 15.898438 -18.78125 12.257812 -18.78125 C 8.445312 -18.78125 1.820312 -18.371094 1.820312 -13.117188 C 1.820312 -4.667969 19.226562 -11.089844 19.226562 -5.253906 C 19.226562 -3.089844 16.859375 -1.957031 12.464844 -1.957031 C 8.859375 -1.957031 4.394531 -2.953125 2.230469 -4.667969 C 2.472656 -3.914062 2.472656 -2.574219 2.230469 -1.75 C 5.011719 -0.308594 8.996094 0.378906 12.566406 0.378906 Z M 12.566406 0.378906 "/></g></g></g><g fill="#a1d2b9" fill-opacity="1"><g transform="translate(276.521293, 317.701648)"><g/></g></g><g fill="#a1d2b9" fill-opacity="1"><g transform="translate(286.818561, 317.701648)"><g><path d="M 18.679688 0.410156 C 29.152344 0.410156 35.332031 -4.429688 35.332031 -12.636719 C 35.332031 -20.945312 29.152344 -25.71875 18.679688 -25.71875 C 8.171875 -25.71875 1.992188 -20.980469 1.992188 -12.636719 C 1.992188 -4.429688 8.207031 0.410156 18.679688 0.410156 Z M 18.679688 -2.058594 C 10.472656 -2.058594 5.632812 -5.835938 5.632812 -12.566406 C 5.632812 -19.261719 10.472656 -23.277344 18.679688 -23.277344 C 26.746094 -23.277344 31.726562 -19.261719 31.726562 -12.566406 C 31.726562 -5.835938 26.746094 -2.058594 18.679688 -2.058594 Z M 18.679688 -2.058594 "/></g></g></g><g fill="#a1d2b9" fill-opacity="1"><g transform="translate(324.128999, 317.701648)"><g><path d="M 22.59375 -18.539062 C 21.460938 -18.230469 20.15625 -18.128906 18.988281 -18.128906 L 18.988281 -10.816406 C 18.988281 -6.386719 16.859375 -2.367188 11.125 -2.367188 C 7.175781 -2.367188 5.527344 -5.21875 5.527344 -9.132812 L 5.527344 -18.539062 C 4.328125 -18.230469 3.332031 -18.128906 2.128906 -18.128906 C 2.4375 -14.9375 2.367188 -11.226562 2.367188 -7.757812 C 2.367188 -3.398438 4.050781 0.308594 9.511719 0.308594 C 14.488281 0.308594 17.886719 -2.507812 19.089844 -6.902344 L 19.363281 -6.902344 C 19.296875 -4.808594 19.125 -2.402344 18.816406 0 L 22.59375 0 C 22.179688 -9.167969 22.214844 -13.21875 22.59375 -18.539062 Z M 22.59375 -18.539062 "/></g></g></g><g fill="#a1d2b9" fill-opacity="1"><g transform="translate(349.460278, 317.701648)"><g><path d="M 18.78125 -18.335938 C 16.414062 -13.082031 14.113281 -7.449219 11.433594 -1.714844 C 8.859375 -7.140625 6.453125 -13.082031 4.050781 -18.335938 C 2.882812 -18.128906 1.578125 -18.164062 0.207031 -18.335938 C 3.46875 -12.121094 6.316406 -6.144531 9.097656 0 L 13.664062 0 C 17.269531 -7.65625 19.089844 -11.8125 22.558594 -18.335938 C 21.183594 -18.128906 19.984375 -18.164062 18.78125 -18.335938 Z M 18.78125 -18.335938 "/></g></g></g><g fill="#a1d2b9" fill-opacity="1"><g transform="translate(372.182922, 317.701648)"><g><path d="M 4.773438 -21.972656 C 6.558594 -21.972656 7.484375 -22.488281 7.484375 -23.691406 C 7.484375 -24.894531 6.558594 -25.441406 4.773438 -25.441406 C 3.160156 -25.441406 2.300781 -24.894531 2.300781 -23.691406 C 2.300781 -22.488281 3.160156 -21.972656 4.773438 -21.972656 Z M 3.054688 -18.335938 C 3.296875 -12.121094 3.296875 -6.179688 3.054688 0 L 6.625 0 C 6.386719 -6.214844 6.386719 -12.121094 6.625 -18.335938 C 5.355469 -18.128906 4.359375 -18.164062 3.054688 -18.335938 Z M 3.054688 -18.335938 "/></g></g></g><g fill="#a1d2b9" fill-opacity="1"><g transform="translate(381.965331, 317.701648)"><g><path d="M 24.070312 -27.160156 C 23.109375 -26.816406 21.320312 -26.644531 20.1875 -26.574219 C 20.359375 -24.308594 20.496094 -16.925781 20.566406 -11.914062 L 20.292969 -11.914062 C 18.953125 -15.554688 16.242188 -18.78125 11.054688 -18.78125 C 5.460938 -18.78125 1.714844 -15.003906 1.714844 -9.546875 C 1.714844 -3.707031 5.597656 0.480469 12.1875 0.480469 C 16.171875 0.480469 19.191406 -1.476562 20.636719 -4.703125 C 20.601562 -3.054688 20.566406 -1.546875 20.464844 0 L 23.863281 0 C 23.449219 -3.570312 23.417969 -22.144531 24.070312 -27.160156 Z M 13.183594 -1.648438 C 8.859375 -1.648438 5.117188 -4.1875 5.117188 -9.339844 C 5.117188 -13.492188 7.863281 -16.378906 12.222656 -16.378906 C 19.332031 -16.378906 20.636719 -9.886719 20.636719 -6.351562 L 20.636719 -6.007812 C 18.746094 -2.574219 15.792969 -1.648438 13.183594 -1.648438 Z M 13.183594 -1.648438 "/></g></g></g><g fill="#a1d2b9" fill-opacity="1"><g transform="translate(408.772542, 317.701648)"><g><path d="M 13.148438 0.378906 C 20.328125 0.378906 24.550781 -3.191406 24.550781 -9.269531 C 24.550781 -15.210938 20.328125 -18.78125 13.148438 -18.78125 C 5.941406 -18.78125 1.714844 -15.210938 1.714844 -9.269531 C 1.714844 -3.191406 5.941406 0.378906 13.148438 0.378906 Z M 13.117188 -1.820312 C 8.035156 -1.820312 5.148438 -4.53125 5.148438 -9.269531 C 5.148438 -13.699219 8.035156 -16.445312 13.117188 -16.445312 C 18.128906 -16.445312 21.117188 -13.699219 21.117188 -9.269531 C 21.117188 -4.53125 18.128906 -1.820312 13.117188 -1.820312 Z M 13.117188 -1.820312 "/></g></g></g><g fill="#a1d2b9" fill-opacity="1"><g transform="translate(435.030575, 317.701648)"><g><path d="M 12.566406 0.378906 C 18.816406 0.378906 22.625 -1.234375 22.625 -5.183594 C 22.625 -13.699219 5.148438 -6.96875 5.148438 -13.117188 C 5.148438 -15.484375 7.417969 -16.550781 12.085938 -16.550781 C 15.828125 -16.550781 19.054688 -15.621094 21.632812 -14.351562 C 21.390625 -15.554688 21.355469 -16.445312 21.597656 -17.269531 C 18.472656 -18.199219 15.898438 -18.78125 12.257812 -18.78125 C 8.445312 -18.78125 1.820312 -18.371094 1.820312 -13.117188 C 1.820312 -4.667969 19.226562 -11.089844 19.226562 -5.253906 C 19.226562 -3.089844 16.859375 -1.957031 12.464844 -1.957031 C 8.859375 -1.957031 4.394531 -2.953125 2.230469 -4.667969 C 2.472656 -3.914062 2.472656 -2.574219 2.230469 -1.75 C 5.011719 -0.308594 8.996094 0.378906 12.566406 0.378906 Z M 12.566406 0.378906 "/></g></g></g><g fill="#a1d2b9" fill-opacity="1"><g transform="translate(203.287932, 283.065243)"><g><path d="M 1.308594 0 L 2.675781 0 C 2.582031 -2.546875 2.582031 -6.28125 2.652344 -8.835938 C 2.246094 -8.777344 1.777344 -8.777344 1.308594 -8.835938 C 1.382812 -6.28125 1.382812 -2.558594 1.308594 0 Z M 1.308594 0 "/></g></g></g><g fill="#a1d2b9" fill-opacity="1"><g transform="translate(207.27194, 283.065243)"><g><path d="M 1.007812 0 L 2.269531 0 L 2.269531 -2.570312 C 2.269531 -4.203125 3.15625 -5.632812 4.945312 -5.632812 C 6.398438 -5.632812 7.023438 -4.597656 7.023438 -3.15625 L 7.023438 0 L 8.261719 0 C 8.152344 -1.1875 8.175781 -2.449219 8.175781 -3.746094 C 8.175781 -5.257812 7.550781 -6.566406 5.558594 -6.566406 C 3.9375 -6.566406 2.664062 -5.488281 2.246094 -3.9375 L 2.136719 -3.9375 C 2.171875 -4.839844 2.234375 -5.632812 2.351562 -6.542969 C 2.042969 -6.425781 1.476562 -6.339844 1.007812 -6.316406 C 1.152344 -3.121094 1.152344 -1.859375 1.007812 0 Z M 1.007812 0 "/></g></g></g><g fill="#a1d2b9" fill-opacity="1"><g transform="translate(216.427957, 283.065243)"><g><path d="M 4.394531 0.132812 C 6.582031 0.132812 7.914062 -0.433594 7.914062 -1.8125 C 7.914062 -4.789062 1.800781 -2.4375 1.800781 -4.585938 C 1.800781 -5.414062 2.59375 -5.789062 4.226562 -5.789062 C 5.535156 -5.789062 6.664062 -5.464844 7.566406 -5.019531 C 7.480469 -5.4375 7.46875 -5.75 7.550781 -6.039062 C 6.460938 -6.363281 5.558594 -6.566406 4.285156 -6.566406 C 2.953125 -6.566406 0.636719 -6.425781 0.636719 -4.585938 C 0.636719 -1.632812 6.722656 -3.878906 6.722656 -1.835938 C 6.722656 -1.082031 5.894531 -0.683594 4.359375 -0.683594 C 3.097656 -0.683594 1.535156 -1.03125 0.78125 -1.632812 C 0.863281 -1.367188 0.863281 -0.902344 0.78125 -0.613281 C 1.753906 -0.109375 3.144531 0.132812 4.394531 0.132812 Z M 4.394531 0.132812 "/></g></g></g><g fill="#a1d2b9" fill-opacity="1"><g transform="translate(224.899972, 283.065243)"><g><path d="M 2.917969 -5.679688 C 4.144531 -5.679688 5.378906 -5.65625 6.53125 -5.609375 C 6.507812 -5.90625 6.507812 -6.113281 6.53125 -6.410156 C 5.390625 -6.363281 4.15625 -6.339844 2.917969 -6.339844 L 2.953125 -8.695312 C 2.582031 -8.539062 2.171875 -8.488281 1.703125 -8.441406 C 1.742188 -7.890625 1.765625 -7.144531 1.777344 -6.351562 C 1.164062 -6.363281 0.550781 -6.386719 -0.0234375 -6.410156 C 0 -6.195312 0 -5.824219 -0.0234375 -5.609375 C 0.5625 -5.632812 1.164062 -5.65625 1.789062 -5.667969 C 1.8125 -4.167969 1.8125 -2.691406 1.8125 -2.234375 C 1.8125 -0.445312 2.988281 0.0976562 4.285156 0.121094 C 5.078125 0.132812 5.90625 -0.046875 6.519531 -0.265625 C 6.472656 -0.550781 6.484375 -0.863281 6.53125 -1.164062 C 5.933594 -0.925781 5.210938 -0.734375 4.5625 -0.757812 C 3.613281 -0.792969 2.847656 -1.273438 2.871094 -2.714844 C 2.882812 -3.648438 2.894531 -4.660156 2.917969 -5.679688 Z M 2.917969 -5.679688 "/></g></g></g><g fill="#a1d2b9" fill-opacity="1"><g transform="translate(231.739991, 283.065243)"><g><path d="M 1.667969 -7.683594 C 2.292969 -7.683594 2.617188 -7.863281 2.617188 -8.285156 C 2.617188 -8.707031 2.292969 -8.898438 1.667969 -8.898438 C 1.105469 -8.898438 0.804688 -8.707031 0.804688 -8.285156 C 0.804688 -7.863281 1.105469 -7.683594 1.667969 -7.683594 Z M 1.070312 -6.410156 C 1.152344 -4.238281 1.152344 -2.160156 1.070312 0 L 2.316406 0 C 2.234375 -2.171875 2.234375 -4.238281 2.316406 -6.410156 C 1.875 -6.339844 1.523438 -6.351562 1.070312 -6.410156 Z M 1.070312 -6.410156 "/></g></g></g><g fill="#a1d2b9" fill-opacity="1"><g transform="translate(235.160001, 283.065243)"><g><path d="M 2.917969 -5.679688 C 4.144531 -5.679688 5.378906 -5.65625 6.53125 -5.609375 C 6.507812 -5.90625 6.507812 -6.113281 6.53125 -6.410156 C 5.390625 -6.363281 4.15625 -6.339844 2.917969 -6.339844 L 2.953125 -8.695312 C 2.582031 -8.539062 2.171875 -8.488281 1.703125 -8.441406 C 1.742188 -7.890625 1.765625 -7.144531 1.777344 -6.351562 C 1.164062 -6.363281 0.550781 -6.386719 -0.0234375 -6.410156 C 0 -6.195312 0 -5.824219 -0.0234375 -5.609375 C 0.5625 -5.632812 1.164062 -5.65625 1.789062 -5.667969 C 1.8125 -4.167969 1.8125 -2.691406 1.8125 -2.234375 C 1.8125 -0.445312 2.988281 0.0976562 4.285156 0.121094 C 5.078125 0.132812 5.90625 -0.046875 6.519531 -0.265625 C 6.472656 -0.550781 6.484375 -0.863281 6.53125 -1.164062 C 5.933594 -0.925781 5.210938 -0.734375 4.5625 -0.757812 C 3.613281 -0.792969 2.847656 -1.273438 2.871094 -2.714844 C 2.882812 -3.648438 2.894531 -4.660156 2.917969 -5.679688 Z M 2.917969 -5.679688 "/></g></g></g><g fill="#a1d2b9" fill-opacity="1"><g transform="translate(242.00002, 283.065243)"><g><path d="M 7.902344 -6.484375 C 7.503906 -6.375 7.046875 -6.339844 6.640625 -6.339844 L 6.640625 -3.78125 C 6.640625 -2.234375 5.894531 -0.828125 3.890625 -0.828125 C 2.507812 -0.828125 1.933594 -1.824219 1.933594 -3.195312 L 1.933594 -6.484375 C 1.511719 -6.375 1.164062 -6.339844 0.746094 -6.339844 C 0.851562 -5.222656 0.828125 -3.925781 0.828125 -2.714844 C 0.828125 -1.1875 1.417969 0.109375 3.324219 0.109375 C 5.066406 0.109375 6.257812 -0.875 6.675781 -2.414062 L 6.773438 -2.414062 C 6.75 -1.679688 6.6875 -0.839844 6.582031 0 L 7.902344 0 C 7.757812 -3.207031 7.769531 -4.621094 7.902344 -6.484375 Z M 7.902344 -6.484375 "/></g></g></g><g fill="#a1d2b9" fill-opacity="1"><g transform="translate(250.856041, 283.065243)"><g><path d="M 2.917969 -5.679688 C 4.144531 -5.679688 5.378906 -5.65625 6.53125 -5.609375 C 6.507812 -5.90625 6.507812 -6.113281 6.53125 -6.410156 C 5.390625 -6.363281 4.15625 -6.339844 2.917969 -6.339844 L 2.953125 -8.695312 C 2.582031 -8.539062 2.171875 -8.488281 1.703125 -8.441406 C 1.742188 -7.890625 1.765625 -7.144531 1.777344 -6.351562 C 1.164062 -6.363281 0.550781 -6.386719 -0.0234375 -6.410156 C 0 -6.195312 0 -5.824219 -0.0234375 -5.609375 C 0.5625 -5.632812 1.164062 -5.65625 1.789062 -5.667969 C 1.8125 -4.167969 1.8125 -2.691406 1.8125 -2.234375 C 1.8125 -0.445312 2.988281 0.0976562 4.285156 0.121094 C 5.078125 0.132812 5.90625 -0.046875 6.519531 -0.265625 C 6.472656 -0.550781 6.484375 -0.863281 6.53125 -1.164062 C 5.933594 -0.925781 5.210938 -0.734375 4.5625 -0.757812 C 3.613281 -0.792969 2.847656 -1.273438 2.871094 -2.714844 C 2.882812 -3.648438 2.894531 -4.660156 2.917969 -5.679688 Z M 2.917969 -5.679688 "/></g></g></g><g fill="#a1d2b9" fill-opacity="1"><g transform="translate(257.69606, 283.065243)"><g><path d="M 4.597656 0.132812 C 7.109375 0.132812 8.585938 -1.117188 8.585938 -3.242188 C 8.585938 -5.320312 7.109375 -6.566406 4.597656 -6.566406 C 2.078125 -6.566406 0.601562 -5.320312 0.601562 -3.242188 C 0.601562 -1.117188 2.078125 0.132812 4.597656 0.132812 Z M 4.585938 -0.636719 C 2.808594 -0.636719 1.800781 -1.585938 1.800781 -3.242188 C 1.800781 -4.789062 2.808594 -5.75 4.585938 -5.75 C 6.339844 -5.75 7.382812 -4.789062 7.382812 -3.242188 C 7.382812 -1.585938 6.339844 -0.636719 4.585938 -0.636719 Z M 4.585938 -0.636719 "/></g></g></g><g fill="#a1d2b9" fill-opacity="1"><g transform="translate(266.873867, 283.065243)"><g/></g></g><g clip-path="url(#id1)"><path fill="#a1d2b9" d="M 163.519531 274.628906 C 175.996094 274.628906 186.140625 284.773438 186.140625 297.246094 C 186.140625 309.722656 175.996094 319.867188 163.519531 319.867188 C 151.046875 319.867188 140.902344 309.722656 140.902344 297.246094 C 140.902344 284.773438 151.046875 274.628906 163.519531 274.628906 M 163.519531 272.113281 C 149.640625 272.113281 138.386719 283.367188 138.386719 297.246094 C 138.386719 311.128906 149.640625 322.382812 163.519531 322.382812 C 177.402344 322.382812 188.652344 311.128906 188.652344 297.246094 C 188.652344 283.367188 177.402344 272.113281 163.519531 272.113281 Z M 163.519531 272.113281 " fill-opacity="1" fill-rule="nonzero"/></g><g clip-path="url(#id2)"><path fill="#a1d2b9" d="M 130.53125 301.734375 C 130.53125 301.605469 130.53125 301.476562 130.488281 301.304688 C 130.445312 300.832031 130.058594 300.488281 129.585938 300.488281 C 129.113281 300.53125 128.769531 300.917969 128.769531 301.390625 C 128.769531 301.519531 128.769531 301.691406 128.8125 301.820312 C 128.855469 302.292969 129.285156 302.636719 129.757812 302.59375 C 130.1875 302.636719 130.574219 302.207031 130.53125 301.734375 Z M 130.53125 301.734375 " fill-opacity="1" fill-rule="nonzero"/></g><path fill="#a1d2b9" d="M 131.347656 290.015625 C 131.773438 290.1875 132.289062 289.972656 132.460938 289.542969 C 132.503906 289.457031 132.589844 289.328125 132.632812 289.199219 C 132.847656 288.769531 132.632812 288.253906 132.203125 288.082031 C 131.773438 287.910156 131.261719 288.082031 131.089844 288.511719 C 131.046875 288.640625 130.960938 288.769531 130.917969 288.941406 C 130.703125 289.328125 130.917969 289.84375 131.347656 290.015625 Z M 131.347656 290.015625 " fill-opacity="1" fill-rule="nonzero"/><path fill="#a1d2b9" d="M 130.144531 294.136719 C 130.617188 294.265625 131.089844 293.964844 131.175781 293.492188 C 131.21875 293.363281 131.261719 293.234375 131.261719 293.105469 C 131.390625 292.632812 131.089844 292.160156 130.660156 292.074219 C 130.1875 291.945312 129.714844 292.246094 129.628906 292.675781 C 129.585938 292.804688 129.542969 292.976562 129.5 293.105469 C 129.371094 293.578125 129.671875 294.050781 130.144531 294.136719 Z M 130.144531 294.136719 " fill-opacity="1" fill-rule="nonzero"/><path fill="#a1d2b9" d="M 131.175781 305.855469 C 131.132812 305.726562 131.089844 305.597656 131.089844 305.46875 C 131.003906 304.996094 130.53125 304.695312 130.058594 304.78125 C 129.585938 304.867188 129.328125 305.339844 129.414062 305.8125 C 129.457031 305.941406 129.5 306.113281 129.5 306.242188 C 129.628906 306.714844 130.101562 306.972656 130.53125 306.886719 C 131.003906 306.757812 131.304688 306.285156 131.175781 305.855469 Z M 131.175781 305.855469 " fill-opacity="1" fill-rule="nonzero"/><path fill="#a1d2b9" d="M 135.894531 281.128906 C 135.808594 281.257812 135.679688 281.34375 135.597656 281.472656 C 135.296875 281.816406 135.296875 282.375 135.679688 282.675781 C 136.023438 282.976562 136.582031 282.933594 136.882812 282.589844 C 136.96875 282.503906 137.054688 282.375 137.140625 282.289062 C 137.441406 281.945312 137.441406 281.386719 137.097656 281.085938 C 136.753906 280.742188 136.195312 280.785156 135.894531 281.128906 Z M 135.894531 281.128906 " fill-opacity="1" fill-rule="nonzero"/><path fill="#a1d2b9" d="M 136.667969 316.414062 C 136.367188 316.074219 135.808594 316.03125 135.46875 316.328125 C 135.125 316.628906 135.082031 317.1875 135.382812 317.53125 C 135.46875 317.660156 135.554688 317.746094 135.679688 317.875 C 135.980469 318.21875 136.539062 318.261719 136.882812 317.960938 C 137.226562 317.660156 137.269531 317.101562 136.96875 316.757812 C 136.839844 316.628906 136.753906 316.542969 136.667969 316.414062 Z M 136.667969 316.414062 " fill-opacity="1" fill-rule="nonzero"/><path fill="#a1d2b9" d="M 132.332031 309.375 C 132.160156 308.945312 131.644531 308.730469 131.21875 308.902344 C 130.789062 309.074219 130.574219 309.589844 130.746094 310.019531 C 130.789062 310.148438 130.875 310.277344 130.917969 310.40625 C 131.089844 310.835938 131.601562 311.050781 132.03125 310.878906 C 132.460938 310.707031 132.675781 310.191406 132.503906 309.761719 C 132.460938 309.632812 132.375 309.503906 132.332031 309.375 Z M 132.332031 309.375 " fill-opacity="1" fill-rule="nonzero"/><path fill="#a1d2b9" d="M 134.222656 313.066406 C 133.964844 312.679688 133.449219 312.550781 133.019531 312.765625 C 132.632812 313.023438 132.503906 313.539062 132.71875 313.96875 C 132.804688 314.097656 132.890625 314.226562 132.933594 314.355469 C 133.191406 314.742188 133.707031 314.871094 134.136719 314.613281 C 134.523438 314.355469 134.652344 313.839844 134.394531 313.410156 C 134.351562 313.324219 134.308594 313.195312 134.222656 313.066406 Z M 134.222656 313.066406 " fill-opacity="1" fill-rule="nonzero"/><path fill="#a1d2b9" d="M 134.394531 284.347656 C 134.007812 284.089844 133.449219 284.21875 133.191406 284.605469 C 133.105469 284.734375 133.019531 284.863281 132.933594 284.992188 C 132.675781 285.378906 132.804688 285.9375 133.191406 286.195312 C 133.578125 286.453125 134.136719 286.324219 134.394531 285.9375 C 134.480469 285.808594 134.523438 285.722656 134.609375 285.59375 C 134.867188 285.164062 134.78125 284.605469 134.394531 284.347656 Z M 134.394531 284.347656 " fill-opacity="1" fill-rule="nonzero"/><path fill="#a1d2b9" d="M 179.210938 287.953125 C 179.425781 288.382812 179.941406 288.554688 180.371094 288.339844 C 180.800781 288.125 180.96875 287.609375 180.757812 287.183594 C 180.671875 287.054688 180.628906 286.925781 180.542969 286.796875 C 180.328125 286.367188 179.8125 286.195312 179.382812 286.453125 C 178.953125 286.667969 178.824219 287.183594 179.039062 287.609375 C 179.082031 287.695312 179.125 287.824219 179.210938 287.953125 Z M 179.210938 287.953125 " fill-opacity="1" fill-rule="nonzero"/><path fill="#a1d2b9" d="M 163.328125 274.863281 C 163.457031 274.90625 163.585938 274.949219 163.714844 274.992188 C 164.144531 275.117188 164.65625 274.863281 164.785156 274.433594 C 164.914062 273.960938 164.65625 273.488281 164.230469 273.359375 C 164.101562 273.316406 163.929688 273.273438 163.800781 273.230469 C 163.328125 273.101562 162.855469 273.359375 162.726562 273.832031 C 162.597656 274.261719 162.855469 274.734375 163.328125 274.863281 Z M 163.328125 274.863281 " fill-opacity="1" fill-rule="nonzero"/><path fill="#a1d2b9" d="M 167.191406 276.320312 C 167.320312 276.363281 167.449219 276.449219 167.578125 276.492188 C 168.007812 276.707031 168.523438 276.535156 168.734375 276.105469 C 168.949219 275.675781 168.777344 275.160156 168.351562 274.949219 C 168.222656 274.863281 168.09375 274.820312 167.964844 274.777344 C 167.535156 274.5625 167.019531 274.777344 166.804688 275.203125 C 166.589844 275.589844 166.761719 276.105469 167.191406 276.320312 Z M 167.191406 276.320312 " fill-opacity="1" fill-rule="nonzero"/><path fill="#a1d2b9" d="M 170.796875 278.382812 C 170.925781 278.46875 171.011719 278.554688 171.140625 278.640625 C 171.527344 278.898438 172.085938 278.8125 172.34375 278.425781 C 172.601562 278.039062 172.515625 277.523438 172.128906 277.222656 C 172 277.136719 171.871094 277.050781 171.785156 276.964844 C 171.398438 276.707031 170.839844 276.792969 170.582031 277.179688 C 170.324219 277.566406 170.410156 278.125 170.796875 278.382812 Z M 170.796875 278.382812 " fill-opacity="1" fill-rule="nonzero"/><g clip-path="url(#id3)"><path fill="#a1d2b9" d="M 181.65625 295.425781 C 181.699219 295.554688 181.699219 295.679688 181.742188 295.851562 C 181.828125 296.324219 182.257812 296.625 182.730469 296.582031 C 183.203125 296.496094 183.503906 296.066406 183.460938 295.597656 C 183.460938 295.46875 183.417969 295.296875 183.375 295.167969 C 183.289062 294.695312 182.859375 294.394531 182.386719 294.4375 C 181.914062 294.523438 181.570312 294.953125 181.65625 295.425781 Z M 181.65625 295.425781 " fill-opacity="1" fill-rule="nonzero"/></g><path fill="#a1d2b9" d="M 180.671875 291.390625 C 180.714844 291.515625 180.757812 291.644531 180.800781 291.773438 C 180.929688 292.203125 181.441406 292.460938 181.871094 292.332031 C 182.34375 292.203125 182.558594 291.6875 182.429688 291.261719 C 182.386719 291.132812 182.34375 290.960938 182.300781 290.832031 C 182.128906 290.402344 181.65625 290.144531 181.226562 290.273438 C 180.757812 290.445312 180.5 290.960938 180.671875 291.390625 Z M 180.671875 291.390625 " fill-opacity="1" fill-rule="nonzero"/><g clip-path="url(#id4)"><path fill="#a1d2b9" d="M 159.25 274.046875 C 159.378906 274.046875 159.722656 274.089844 159.765625 274.089844 C 160.195312 274.089844 160.535156 273.789062 160.621094 273.359375 C 160.664062 272.886719 160.363281 272.457031 159.894531 272.414062 C 159.765625 272.414062 159.59375 272.371094 159.464844 272.371094 C 158.992188 272.328125 158.5625 272.671875 158.519531 273.144531 C 158.433594 273.574219 158.777344 274.003906 159.25 274.046875 Z M 159.25 274.046875 " fill-opacity="1" fill-rule="nonzero"/></g><path fill="#a1d2b9" d="M 142.851562 277.4375 C 143.152344 277.4375 143.410156 277.265625 143.625 277.136719 C 144.050781 276.921875 144.179688 276.363281 143.964844 275.976562 C 143.753906 275.546875 143.195312 275.417969 142.808594 275.632812 C 142.679688 275.71875 142.550781 275.761719 142.421875 275.847656 C 141.992188 276.105469 141.863281 276.621094 142.121094 277.007812 C 142.25 277.308594 142.550781 277.4375 142.851562 277.4375 Z M 142.851562 277.4375 " fill-opacity="1" fill-rule="nonzero"/><path fill="#a1d2b9" d="M 139.332031 279.882812 C 139.675781 279.882812 139.929688 279.625 140.1875 279.410156 C 140.574219 279.113281 140.617188 278.597656 140.316406 278.210938 C 140.015625 277.824219 139.503906 277.78125 139.117188 278.082031 C 138.988281 278.167969 138.902344 278.253906 138.773438 278.339844 C 138.386719 278.640625 138.34375 279.195312 138.644531 279.539062 C 138.816406 279.796875 139.074219 279.882812 139.332031 279.882812 Z M 139.332031 279.882812 " fill-opacity="1" fill-rule="nonzero"/><path fill="#a1d2b9" d="M 146.714844 275.589844 C 146.972656 275.589844 147.1875 275.460938 147.402344 275.375 C 147.832031 275.203125 148.085938 274.734375 147.917969 274.261719 C 147.746094 273.832031 147.273438 273.574219 146.800781 273.746094 C 146.671875 273.789062 146.542969 273.832031 146.371094 273.917969 C 145.941406 274.089844 145.726562 274.605469 145.855469 275.03125 C 146.027344 275.375 146.371094 275.589844 146.714844 275.589844 Z M 146.714844 275.589844 " fill-opacity="1" fill-rule="nonzero"/><g clip-path="url(#id5)"><path fill="#a1d2b9" d="M 150.835938 274.433594 C 151.050781 274.433594 151.222656 274.390625 151.4375 274.347656 C 151.910156 274.261719 152.207031 273.789062 152.121094 273.359375 C 152.039062 272.886719 151.566406 272.585938 151.136719 272.671875 C 151.007812 272.714844 150.835938 272.714844 150.707031 272.757812 C 150.234375 272.84375 149.933594 273.316406 150.019531 273.789062 C 150.0625 274.132812 150.40625 274.433594 150.835938 274.433594 Z M 150.835938 274.433594 " fill-opacity="1" fill-rule="nonzero"/></g><g clip-path="url(#id6)"><path fill="#a1d2b9" d="M 155.085938 273.875 C 155.085938 273.875 155.386719 273.875 155.558594 273.875 C 156.03125 273.875 156.414062 273.488281 156.371094 272.972656 C 156.371094 272.5 155.988281 272.113281 155.472656 272.15625 C 155.34375 272.15625 155.171875 272.15625 155.042969 272.15625 C 154.570312 272.15625 154.183594 272.585938 154.226562 273.058594 C 154.226562 273.53125 154.613281 273.875 155.085938 273.875 Z M 155.085938 273.875 " fill-opacity="1" fill-rule="nonzero"/></g><g clip-path="url(#id7)"><path fill="#a1d2b9" d="M 129.585938 298.386719 C 130.058594 298.429688 130.488281 298.085938 130.53125 297.613281 C 130.53125 297.484375 130.574219 297.355469 130.574219 297.183594 C 130.617188 296.710938 130.273438 296.28125 129.800781 296.238281 C 129.328125 296.195312 128.898438 296.539062 128.855469 297.011719 C 128.855469 297.140625 128.8125 297.3125 128.8125 297.441406 C 128.769531 297.957031 129.113281 298.34375 129.585938 298.386719 Z M 129.585938 298.386719 " fill-opacity="1" fill-rule="nonzero"/></g><path fill="#a1d2b9" d="M 167.277344 322.898438 C 167.148438 322.941406 167.019531 323.027344 166.890625 323.070312 C 166.460938 323.285156 166.246094 323.757812 166.460938 324.1875 C 166.675781 324.613281 167.191406 324.785156 167.621094 324.613281 C 167.75 324.570312 167.878906 324.484375 168.007812 324.445312 C 168.4375 324.230469 168.605469 323.714844 168.394531 323.285156 C 168.222656 322.898438 167.707031 322.726562 167.277344 322.898438 Z M 167.277344 322.898438 " fill-opacity="1" fill-rule="nonzero"/><path fill="#a1d2b9" d="M 170.882812 320.835938 C 170.753906 320.921875 170.667969 321.007812 170.539062 321.050781 C 170.152344 321.308594 170.023438 321.867188 170.28125 322.253906 C 170.539062 322.640625 171.097656 322.769531 171.484375 322.511719 C 171.613281 322.425781 171.742188 322.339844 171.871094 322.253906 C 172.257812 321.996094 172.34375 321.4375 172.085938 321.050781 C 171.785156 320.664062 171.269531 320.578125 170.882812 320.835938 Z M 170.882812 320.835938 " fill-opacity="1" fill-rule="nonzero"/><path fill="#a1d2b9" d="M 174.058594 318.21875 C 173.972656 318.304688 173.84375 318.390625 173.757812 318.519531 C 173.414062 318.863281 173.371094 319.378906 173.714844 319.722656 C 174.015625 320.066406 174.574219 320.066406 174.917969 319.765625 C 175.046875 319.679688 175.132812 319.550781 175.21875 319.464844 C 175.5625 319.121094 175.5625 318.605469 175.261719 318.261719 C 174.960938 317.917969 174.402344 317.875 174.058594 318.21875 Z M 174.058594 318.21875 " fill-opacity="1" fill-rule="nonzero"/><path fill="#a1d2b9" d="M 163.414062 324.402344 C 163.285156 324.445312 163.15625 324.484375 163.027344 324.527344 C 162.554688 324.65625 162.296875 325.128906 162.425781 325.601562 C 162.511719 325.988281 162.855469 326.246094 163.242188 326.246094 C 163.328125 326.246094 163.757812 326.117188 163.886719 326.074219 C 164.359375 325.945312 164.613281 325.472656 164.484375 325 C 164.359375 324.527344 163.84375 324.273438 163.414062 324.402344 Z M 163.414062 324.402344 " fill-opacity="1" fill-rule="nonzero"/><path fill="#a1d2b9" d="M 180.199219 311.265625 C 179.769531 311.050781 179.253906 311.222656 179.039062 311.609375 C 178.953125 311.738281 178.910156 311.867188 178.824219 311.996094 C 178.609375 312.421875 178.738281 312.9375 179.167969 313.152344 C 179.597656 313.367188 180.113281 313.238281 180.328125 312.808594 C 180.414062 312.679688 180.457031 312.550781 180.542969 312.421875 C 180.800781 311.996094 180.628906 311.480469 180.199219 311.265625 Z M 180.199219 311.265625 " fill-opacity="1" fill-rule="nonzero"/><g clip-path="url(#id8)"><path fill="#a1d2b9" d="M 182.644531 303.066406 C 182.171875 302.980469 181.742188 303.324219 181.65625 303.796875 C 181.613281 303.921875 181.613281 304.050781 181.570312 304.179688 C 181.484375 304.652344 181.785156 305.082031 182.257812 305.167969 C 182.730469 305.253906 183.160156 304.953125 183.246094 304.480469 C 183.289062 304.351562 183.289062 304.179688 183.332031 304.050781 C 183.460938 303.582031 183.117188 303.152344 182.644531 303.066406 Z M 182.644531 303.066406 " fill-opacity="1" fill-rule="nonzero"/></g><path fill="#a1d2b9" d="M 178.136719 283.0625 C 177.835938 282.675781 177.320312 282.589844 176.933594 282.890625 C 176.550781 283.191406 176.464844 283.703125 176.765625 284.089844 C 176.847656 284.21875 176.933594 284.304688 177.019531 284.433594 C 177.277344 284.820312 177.835938 284.90625 178.222656 284.605469 C 178.609375 284.304688 178.695312 283.789062 178.394531 283.402344 C 178.351562 283.273438 178.265625 283.191406 178.136719 283.0625 Z M 178.136719 283.0625 " fill-opacity="1" fill-rule="nonzero"/><path fill="#a1d2b9" d="M 178.050781 314.957031 C 177.664062 314.65625 177.148438 314.742188 176.847656 315.128906 C 176.765625 315.257812 176.679688 315.34375 176.59375 315.472656 C 176.292969 315.859375 176.378906 316.371094 176.765625 316.671875 C 177.148438 316.972656 177.664062 316.886719 177.964844 316.5 C 178.050781 316.371094 178.136719 316.285156 178.222656 316.160156 C 178.480469 315.773438 178.394531 315.214844 178.050781 314.957031 Z M 178.050781 314.957031 " fill-opacity="1" fill-rule="nonzero"/><path fill="#a1d2b9" d="M 175.21875 279.753906 C 174.875 279.410156 174.316406 279.453125 174.015625 279.796875 C 173.671875 280.140625 173.714844 280.699219 174.058594 281 C 174.144531 281.085938 174.273438 281.171875 174.359375 281.300781 C 174.703125 281.644531 175.261719 281.644531 175.5625 281.300781 C 175.90625 280.957031 175.90625 280.398438 175.5625 280.097656 C 175.433594 279.96875 175.304688 279.882812 175.21875 279.753906 Z M 175.21875 279.753906 " fill-opacity="1" fill-rule="nonzero"/><path fill="#a1d2b9" d="M 159.335938 325.214844 C 159.207031 325.214844 159.078125 325.257812 158.90625 325.257812 C 158.433594 325.300781 158.089844 325.730469 158.132812 326.203125 C 158.175781 326.632812 158.5625 326.976562 158.992188 326.976562 C 159.035156 326.976562 159.378906 326.933594 159.507812 326.933594 C 159.980469 326.890625 160.324219 326.460938 160.238281 325.988281 C 160.238281 325.515625 159.808594 325.171875 159.335938 325.214844 Z M 159.335938 325.214844 " fill-opacity="1" fill-rule="nonzero"/><path fill="#a1d2b9" d="M 139.589844 319.335938 C 139.246094 319.035156 138.6875 319.078125 138.386719 319.421875 C 138.085938 319.765625 138.128906 320.324219 138.472656 320.621094 C 138.601562 320.707031 138.6875 320.792969 138.816406 320.921875 C 139.160156 321.222656 139.71875 321.179688 140.015625 320.792969 C 140.316406 320.40625 140.273438 319.894531 139.886719 319.59375 C 139.800781 319.507812 139.71875 319.421875 139.589844 319.335938 Z M 139.589844 319.335938 " fill-opacity="1" fill-rule="nonzero"/><path fill="#a1d2b9" d="M 143.324219 321.953125 C 143.195312 321.867188 143.066406 321.824219 142.980469 321.738281 C 142.59375 321.480469 142.035156 321.609375 141.820312 322.039062 C 141.5625 322.425781 141.691406 322.984375 142.121094 323.199219 C 142.25 323.285156 142.378906 323.371094 142.507812 323.414062 C 142.894531 323.628906 143.453125 323.5 143.667969 323.113281 C 143.878906 322.726562 143.753906 322.210938 143.324219 321.953125 Z M 143.324219 321.953125 " fill-opacity="1" fill-rule="nonzero"/><path fill="#a1d2b9" d="M 147.101562 323.757812 C 146.972656 323.714844 146.84375 323.671875 146.714844 323.585938 C 146.285156 323.414062 145.769531 323.628906 145.597656 324.058594 C 145.425781 324.484375 145.640625 325 146.070312 325.171875 C 146.199219 325.214844 146.328125 325.300781 146.5 325.34375 C 146.929688 325.515625 147.445312 325.300781 147.617188 324.828125 C 147.746094 324.402344 147.53125 323.929688 147.101562 323.757812 Z M 147.101562 323.757812 " fill-opacity="1" fill-rule="nonzero"/><path fill="#a1d2b9" d="M 181.785156 307.273438 C 181.3125 307.144531 180.84375 307.359375 180.714844 307.832031 C 180.671875 307.960938 180.628906 308.085938 180.585938 308.214844 C 180.414062 308.644531 180.671875 309.160156 181.097656 309.332031 C 181.527344 309.503906 182.042969 309.246094 182.214844 308.816406 C 182.257812 308.6875 182.300781 308.515625 182.34375 308.386719 C 182.472656 307.875 182.214844 307.402344 181.785156 307.273438 Z M 181.785156 307.273438 " fill-opacity="1" fill-rule="nonzero"/><path fill="#a1d2b9" d="M 151.09375 324.914062 C 150.964844 324.871094 150.835938 324.871094 150.707031 324.828125 C 150.234375 324.742188 149.804688 325 149.675781 325.472656 C 149.589844 325.945312 149.847656 326.375 150.320312 326.503906 C 150.449219 326.546875 150.878906 326.632812 150.921875 326.632812 C 151.308594 326.632812 151.695312 326.332031 151.78125 325.945312 C 151.867188 325.429688 151.566406 325 151.09375 324.914062 Z M 151.09375 324.914062 " fill-opacity="1" fill-rule="nonzero"/><g clip-path="url(#id9)"><path fill="#a1d2b9" d="M 182.859375 298.6875 C 182.386719 298.6875 182 299.074219 182 299.546875 C 182 299.546875 182 299.929688 182 300.058594 C 182 300.53125 182.386719 300.917969 182.859375 300.917969 C 183.332031 300.917969 183.71875 300.53125 183.71875 300.058594 C 183.71875 299.929688 183.71875 299.546875 183.71875 299.546875 C 183.71875 299.074219 183.332031 298.6875 182.859375 298.6875 Z M 182.859375 298.6875 " fill-opacity="1" fill-rule="nonzero"/></g><g clip-path="url(#id10)"><path fill="#a1d2b9" d="M 155.214844 325.386719 C 155.085938 325.386719 154.957031 325.386719 154.785156 325.386719 C 154.3125 325.386719 153.925781 325.730469 153.882812 326.203125 C 153.839844 326.675781 154.226562 327.0625 154.699219 327.105469 C 154.828125 327.105469 155.171875 327.148438 155.171875 327.148438 C 155.644531 327.148438 156.03125 326.804688 156.03125 326.332031 C 156.03125 325.816406 155.6875 325.386719 155.214844 325.386719 Z M 155.214844 325.386719 " fill-opacity="1" fill-rule="nonzero"/></g><g clip-path="url(#id11)"><path fill="#a1d2b9" d="M 135.882812 302.273438 C 135.882812 302.167969 135.882812 302.0625 135.847656 301.921875 C 135.8125 301.539062 135.496094 301.257812 135.113281 301.257812 C 134.730469 301.292969 134.449219 301.609375 134.449219 301.992188 C 134.449219 302.097656 134.449219 302.238281 134.484375 302.34375 C 134.519531 302.726562 134.867188 303.007812 135.253906 302.972656 C 135.601562 303.007812 135.917969 302.65625 135.882812 302.273438 Z M 135.882812 302.273438 " fill-opacity="1" fill-rule="nonzero"/></g><path fill="#a1d2b9" d="M 136.546875 292.730469 C 136.894531 292.871094 137.316406 292.695312 137.457031 292.347656 C 137.488281 292.277344 137.558594 292.171875 137.59375 292.066406 C 137.769531 291.71875 137.59375 291.296875 137.246094 291.15625 C 136.894531 291.019531 136.476562 291.15625 136.335938 291.507812 C 136.300781 291.613281 136.230469 291.71875 136.195312 291.855469 C 136.023438 292.171875 136.195312 292.589844 136.546875 292.730469 Z M 136.546875 292.730469 " fill-opacity="1" fill-rule="nonzero"/><path fill="#a1d2b9" d="M 135.566406 296.085938 C 135.953125 296.191406 136.335938 295.945312 136.40625 295.5625 C 136.441406 295.457031 136.476562 295.351562 136.476562 295.246094 C 136.582031 294.863281 136.335938 294.476562 135.988281 294.410156 C 135.601562 294.304688 135.21875 294.546875 135.148438 294.898438 C 135.113281 295.003906 135.078125 295.140625 135.042969 295.246094 C 134.9375 295.632812 135.183594 296.015625 135.566406 296.085938 Z M 135.566406 296.085938 " fill-opacity="1" fill-rule="nonzero"/><g clip-path="url(#id12)"><path fill="#a1d2b9" d="M 136.40625 305.628906 C 136.371094 305.523438 136.335938 305.417969 136.335938 305.3125 C 136.265625 304.929688 135.882812 304.683594 135.496094 304.753906 C 135.113281 304.824219 134.902344 305.207031 134.972656 305.59375 C 135.007812 305.699219 135.042969 305.835938 135.042969 305.941406 C 135.148438 306.328125 135.53125 306.535156 135.882812 306.464844 C 136.265625 306.363281 136.511719 305.976562 136.40625 305.628906 Z M 136.40625 305.628906 " fill-opacity="1" fill-rule="nonzero"/></g><path fill="#a1d2b9" d="M 140.25 285.496094 C 140.179688 285.601562 140.078125 285.671875 140.007812 285.777344 C 139.761719 286.054688 139.761719 286.507812 140.078125 286.753906 C 140.355469 287 140.808594 286.964844 141.054688 286.683594 C 141.125 286.613281 141.195312 286.507812 141.265625 286.441406 C 141.507812 286.160156 141.507812 285.707031 141.230469 285.460938 C 140.949219 285.179688 140.496094 285.214844 140.25 285.496094 Z M 140.25 285.496094 " fill-opacity="1" fill-rule="nonzero"/><path fill="#a1d2b9" d="M 140.878906 314.226562 C 140.636719 313.945312 140.179688 313.910156 139.902344 314.15625 C 139.621094 314.398438 139.585938 314.855469 139.832031 315.132812 C 139.902344 315.238281 139.972656 315.308594 140.078125 315.414062 C 140.320312 315.695312 140.777344 315.726562 141.054688 315.484375 C 141.335938 315.238281 141.371094 314.785156 141.125 314.503906 C 141.019531 314.398438 140.949219 314.332031 140.878906 314.226562 Z M 140.878906 314.226562 " fill-opacity="1" fill-rule="nonzero"/><path fill="#a1d2b9" d="M 137.351562 308.492188 C 137.210938 308.144531 136.792969 307.96875 136.441406 308.109375 C 136.09375 308.25 135.917969 308.667969 136.058594 309.019531 C 136.09375 309.121094 136.160156 309.226562 136.195312 309.332031 C 136.335938 309.683594 136.757812 309.855469 137.105469 309.71875 C 137.457031 309.578125 137.628906 309.15625 137.488281 308.808594 C 137.457031 308.703125 137.386719 308.597656 137.351562 308.492188 Z M 137.351562 308.492188 " fill-opacity="1" fill-rule="nonzero"/><path fill="#a1d2b9" d="M 138.886719 311.5 C 138.679688 311.183594 138.257812 311.078125 137.910156 311.253906 C 137.59375 311.464844 137.488281 311.882812 137.664062 312.234375 C 137.734375 312.339844 137.804688 312.441406 137.839844 312.546875 C 138.050781 312.863281 138.46875 312.96875 138.816406 312.757812 C 139.132812 312.546875 139.238281 312.128906 139.027344 311.777344 C 138.992188 311.710938 138.957031 311.605469 138.886719 311.5 Z M 138.886719 311.5 " fill-opacity="1" fill-rule="nonzero"/><path fill="#a1d2b9" d="M 139.027344 288.117188 C 138.714844 287.90625 138.257812 288.011719 138.050781 288.328125 C 137.980469 288.433594 137.910156 288.535156 137.839844 288.640625 C 137.628906 288.957031 137.734375 289.410156 138.050781 289.621094 C 138.363281 289.828125 138.816406 289.726562 139.027344 289.410156 C 139.097656 289.304688 139.132812 289.234375 139.203125 289.128906 C 139.414062 288.78125 139.34375 288.328125 139.027344 288.117188 Z M 139.027344 288.117188 " fill-opacity="1" fill-rule="nonzero"/><path fill="#a1d2b9" d="M 175.515625 291.054688 C 175.691406 291.402344 176.109375 291.542969 176.460938 291.367188 C 176.808594 291.191406 176.949219 290.773438 176.773438 290.425781 C 176.703125 290.320312 176.671875 290.214844 176.601562 290.109375 C 176.425781 289.761719 176.007812 289.621094 175.65625 289.828125 C 175.308594 290.003906 175.203125 290.425781 175.375 290.773438 C 175.410156 290.84375 175.445312 290.949219 175.515625 291.054688 Z M 175.515625 291.054688 " fill-opacity="1" fill-rule="nonzero"/><path fill="#a1d2b9" d="M 162.585938 280.394531 C 162.691406 280.429688 162.792969 280.464844 162.898438 280.496094 C 163.25 280.601562 163.667969 280.394531 163.773438 280.042969 C 163.878906 279.660156 163.667969 279.273438 163.320312 279.167969 C 163.214844 279.136719 163.074219 279.101562 162.96875 279.066406 C 162.585938 278.960938 162.199219 279.167969 162.09375 279.554688 C 161.992188 279.902344 162.199219 280.289062 162.585938 280.394531 Z M 162.585938 280.394531 " fill-opacity="1" fill-rule="nonzero"/><path fill="#a1d2b9" d="M 165.730469 281.582031 C 165.835938 281.617188 165.941406 281.6875 166.046875 281.722656 C 166.394531 281.894531 166.8125 281.757812 166.988281 281.40625 C 167.164062 281.058594 167.023438 280.636719 166.675781 280.464844 C 166.570312 280.394531 166.464844 280.359375 166.359375 280.324219 C 166.011719 280.148438 165.589844 280.324219 165.414062 280.671875 C 165.242188 280.988281 165.382812 281.40625 165.730469 281.582031 Z M 165.730469 281.582031 " fill-opacity="1" fill-rule="nonzero"/><path fill="#a1d2b9" d="M 168.667969 283.257812 C 168.769531 283.328125 168.839844 283.398438 168.945312 283.46875 C 169.261719 283.679688 169.714844 283.609375 169.925781 283.292969 C 170.132812 282.980469 170.0625 282.558594 169.75 282.316406 C 169.644531 282.246094 169.539062 282.175781 169.46875 282.105469 C 169.15625 281.894531 168.703125 281.964844 168.492188 282.28125 C 168.28125 282.59375 168.351562 283.050781 168.667969 283.257812 Z M 168.667969 283.257812 " fill-opacity="1" fill-rule="nonzero"/><path fill="#a1d2b9" d="M 177.507812 297.132812 C 177.542969 297.238281 177.542969 297.34375 177.578125 297.484375 C 177.648438 297.867188 178 298.113281 178.382812 298.078125 C 178.765625 298.007812 179.011719 297.660156 178.976562 297.273438 C 178.976562 297.167969 178.941406 297.03125 178.90625 296.925781 C 178.835938 296.539062 178.488281 296.296875 178.101562 296.332031 C 177.71875 296.402344 177.4375 296.75 177.507812 297.132812 Z M 177.507812 297.132812 " fill-opacity="1" fill-rule="nonzero"/><path fill="#a1d2b9" d="M 176.703125 293.847656 C 176.738281 293.953125 176.773438 294.058594 176.808594 294.164062 C 176.914062 294.511719 177.335938 294.722656 177.683594 294.617188 C 178.066406 294.511719 178.242188 294.09375 178.136719 293.746094 C 178.101562 293.640625 178.066406 293.5 178.03125 293.394531 C 177.894531 293.046875 177.507812 292.835938 177.160156 292.941406 C 176.773438 293.082031 176.566406 293.5 176.703125 293.847656 Z M 176.703125 293.847656 " fill-opacity="1" fill-rule="nonzero"/><g clip-path="url(#id13)"><path fill="#a1d2b9" d="M 159.265625 279.730469 C 159.371094 279.730469 159.648438 279.765625 159.683594 279.765625 C 160.035156 279.765625 160.3125 279.519531 160.382812 279.167969 C 160.417969 278.785156 160.171875 278.4375 159.789062 278.402344 C 159.683594 278.402344 159.542969 278.367188 159.4375 278.367188 C 159.054688 278.332031 158.707031 278.609375 158.671875 278.996094 C 158.601562 279.34375 158.878906 279.695312 159.265625 279.730469 Z M 159.265625 279.730469 " fill-opacity="1" fill-rule="nonzero"/></g><path fill="#a1d2b9" d="M 145.914062 282.488281 C 146.15625 282.488281 146.367188 282.351562 146.542969 282.246094 C 146.890625 282.070312 146.996094 281.617188 146.820312 281.300781 C 146.648438 280.953125 146.191406 280.847656 145.878906 281.023438 C 145.773438 281.09375 145.667969 281.128906 145.5625 281.195312 C 145.214844 281.40625 145.109375 281.824219 145.320312 282.140625 C 145.425781 282.386719 145.667969 282.488281 145.914062 282.488281 Z M 145.914062 282.488281 " fill-opacity="1" fill-rule="nonzero"/><path fill="#a1d2b9" d="M 143.046875 284.480469 C 143.328125 284.480469 143.535156 284.273438 143.746094 284.097656 C 144.0625 283.851562 144.097656 283.433594 143.851562 283.121094 C 143.605469 282.804688 143.1875 282.769531 142.871094 283.015625 C 142.769531 283.085938 142.699219 283.152344 142.59375 283.222656 C 142.277344 283.46875 142.242188 283.921875 142.488281 284.203125 C 142.628906 284.414062 142.835938 284.480469 143.046875 284.480469 Z M 143.046875 284.480469 " fill-opacity="1" fill-rule="nonzero"/><path fill="#a1d2b9" d="M 149.058594 280.988281 C 149.269531 280.988281 149.441406 280.882812 149.617188 280.8125 C 149.96875 280.671875 150.175781 280.289062 150.039062 279.902344 C 149.898438 279.554688 149.511719 279.34375 149.128906 279.484375 C 149.023438 279.519531 148.917969 279.554688 148.777344 279.625 C 148.429688 279.765625 148.253906 280.183594 148.359375 280.53125 C 148.5 280.8125 148.777344 280.988281 149.058594 280.988281 Z M 149.058594 280.988281 " fill-opacity="1" fill-rule="nonzero"/><g clip-path="url(#id14)"><path fill="#a1d2b9" d="M 152.414062 280.042969 C 152.589844 280.042969 152.730469 280.007812 152.902344 279.972656 C 153.289062 279.902344 153.53125 279.519531 153.460938 279.167969 C 153.394531 278.785156 153.007812 278.539062 152.660156 278.609375 C 152.554688 278.644531 152.414062 278.644531 152.308594 278.679688 C 151.925781 278.75 151.679688 279.136719 151.75 279.519531 C 151.785156 279.800781 152.066406 280.042969 152.414062 280.042969 Z M 152.414062 280.042969 " fill-opacity="1" fill-rule="nonzero"/></g><g clip-path="url(#id15)"><path fill="#a1d2b9" d="M 155.875 279.589844 C 155.875 279.589844 156.117188 279.589844 156.257812 279.589844 C 156.644531 279.589844 156.957031 279.273438 156.921875 278.855469 C 156.921875 278.472656 156.609375 278.15625 156.1875 278.191406 C 156.082031 278.191406 155.945312 278.191406 155.839844 278.191406 C 155.453125 278.191406 155.140625 278.539062 155.175781 278.925781 C 155.175781 279.308594 155.488281 279.589844 155.875 279.589844 Z M 155.875 279.589844 " fill-opacity="1" fill-rule="nonzero"/></g><g clip-path="url(#id16)"><path fill="#a1d2b9" d="M 135.113281 299.546875 C 135.496094 299.582031 135.847656 299.300781 135.882812 298.917969 C 135.882812 298.8125 135.917969 298.707031 135.917969 298.566406 C 135.953125 298.183594 135.671875 297.832031 135.289062 297.796875 C 134.902344 297.765625 134.554688 298.042969 134.519531 298.429688 C 134.519531 298.53125 134.484375 298.671875 134.484375 298.777344 C 134.449219 299.195312 134.730469 299.511719 135.113281 299.546875 Z M 135.113281 299.546875 " fill-opacity="1" fill-rule="nonzero"/></g><path fill="#a1d2b9" d="M 165.800781 319.503906 C 165.695312 319.539062 165.589844 319.609375 165.484375 319.644531 C 165.136719 319.816406 164.960938 320.203125 165.136719 320.550781 C 165.3125 320.902344 165.730469 321.039062 166.078125 320.902344 C 166.183594 320.867188 166.289062 320.796875 166.394531 320.761719 C 166.742188 320.585938 166.882812 320.167969 166.710938 319.816406 C 166.570312 319.503906 166.148438 319.363281 165.800781 319.503906 Z M 165.800781 319.503906 " fill-opacity="1" fill-rule="nonzero"/><path fill="#a1d2b9" d="M 168.734375 317.824219 C 168.632812 317.894531 168.5625 317.964844 168.457031 318 C 168.140625 318.210938 168.039062 318.664062 168.246094 318.980469 C 168.457031 319.292969 168.910156 319.398438 169.226562 319.1875 C 169.332031 319.117188 169.433594 319.046875 169.539062 318.980469 C 169.855469 318.769531 169.925781 318.316406 169.714844 318 C 169.46875 317.6875 169.050781 317.617188 168.734375 317.824219 Z M 168.734375 317.824219 " fill-opacity="1" fill-rule="nonzero"/><path fill="#a1d2b9" d="M 171.324219 315.695312 C 171.253906 315.761719 171.148438 315.832031 171.078125 315.9375 C 170.796875 316.21875 170.761719 316.636719 171.042969 316.917969 C 171.289062 317.195312 171.742188 317.195312 172.023438 316.953125 C 172.125 316.882812 172.195312 316.777344 172.265625 316.707031 C 172.546875 316.425781 172.546875 316.007812 172.300781 315.726562 C 172.054688 315.449219 171.601562 315.414062 171.324219 315.695312 Z M 171.324219 315.695312 " fill-opacity="1" fill-rule="nonzero"/><g clip-path="url(#id17)"><path fill="#a1d2b9" d="M 162.65625 320.726562 C 162.550781 320.761719 162.445312 320.796875 162.339844 320.832031 C 161.957031 320.9375 161.746094 321.320312 161.851562 321.703125 C 161.921875 322.019531 162.199219 322.230469 162.515625 322.230469 C 162.585938 322.230469 162.933594 322.125 163.039062 322.089844 C 163.421875 321.984375 163.632812 321.601562 163.527344 321.214844 C 163.421875 320.832031 163.003906 320.621094 162.65625 320.726562 Z M 162.65625 320.726562 " fill-opacity="1" fill-rule="nonzero"/></g><path fill="#a1d2b9" d="M 176.320312 310.03125 C 175.972656 309.855469 175.550781 309.996094 175.375 310.3125 C 175.308594 310.414062 175.273438 310.519531 175.203125 310.625 C 175.027344 310.976562 175.132812 311.394531 175.480469 311.570312 C 175.832031 311.742188 176.25 311.640625 176.425781 311.289062 C 176.496094 311.183594 176.53125 311.078125 176.601562 310.976562 C 176.808594 310.625 176.671875 310.207031 176.320312 310.03125 Z M 176.320312 310.03125 " fill-opacity="1" fill-rule="nonzero"/><path fill="#a1d2b9" d="M 178.3125 303.355469 C 177.929688 303.285156 177.578125 303.566406 177.507812 303.949219 C 177.472656 304.054688 177.472656 304.160156 177.4375 304.265625 C 177.367188 304.648438 177.613281 305 178 305.070312 C 178.382812 305.136719 178.730469 304.894531 178.800781 304.507812 C 178.835938 304.40625 178.835938 304.265625 178.871094 304.160156 C 178.976562 303.773438 178.695312 303.425781 178.3125 303.355469 Z M 178.3125 303.355469 " fill-opacity="1" fill-rule="nonzero"/><path fill="#a1d2b9" d="M 174.644531 287.070312 C 174.398438 286.753906 173.980469 286.683594 173.664062 286.929688 C 173.351562 287.171875 173.28125 287.59375 173.523438 287.90625 C 173.59375 288.011719 173.664062 288.082031 173.734375 288.1875 C 173.945312 288.5 174.398438 288.570312 174.710938 288.328125 C 175.027344 288.082031 175.097656 287.664062 174.851562 287.347656 C 174.816406 287.242188 174.746094 287.171875 174.644531 287.070312 Z M 174.644531 287.070312 " fill-opacity="1" fill-rule="nonzero"/><path fill="#a1d2b9" d="M 174.574219 313.039062 C 174.257812 312.792969 173.839844 312.863281 173.59375 313.175781 C 173.523438 313.28125 173.453125 313.351562 173.382812 313.457031 C 173.140625 313.769531 173.210938 314.191406 173.523438 314.433594 C 173.839844 314.679688 174.257812 314.609375 174.503906 314.296875 C 174.574219 314.191406 174.644531 314.121094 174.710938 314.015625 C 174.921875 313.703125 174.851562 313.246094 174.574219 313.039062 Z M 174.574219 313.039062 " fill-opacity="1" fill-rule="nonzero"/><path fill="#a1d2b9" d="M 172.265625 284.378906 C 171.988281 284.097656 171.53125 284.132812 171.289062 284.414062 C 171.007812 284.691406 171.042969 285.144531 171.324219 285.390625 C 171.390625 285.460938 171.496094 285.53125 171.566406 285.636719 C 171.847656 285.914062 172.300781 285.914062 172.546875 285.636719 C 172.824219 285.355469 172.824219 284.902344 172.546875 284.65625 C 172.441406 284.550781 172.335938 284.480469 172.265625 284.378906 Z M 172.265625 284.378906 " fill-opacity="1" fill-rule="nonzero"/><g clip-path="url(#id18)"><path fill="#a1d2b9" d="M 159.335938 321.390625 C 159.230469 321.390625 159.125 321.425781 158.984375 321.425781 C 158.601562 321.460938 158.320312 321.808594 158.355469 322.195312 C 158.390625 322.542969 158.707031 322.824219 159.054688 322.824219 C 159.089844 322.824219 159.371094 322.789062 159.472656 322.789062 C 159.859375 322.753906 160.136719 322.402344 160.066406 322.019531 C 160.066406 321.636719 159.71875 321.355469 159.335938 321.390625 Z M 159.335938 321.390625 " fill-opacity="1" fill-rule="nonzero"/></g><path fill="#a1d2b9" d="M 143.257812 316.601562 C 142.976562 316.359375 142.523438 316.390625 142.277344 316.671875 C 142.035156 316.953125 142.070312 317.40625 142.347656 317.652344 C 142.453125 317.71875 142.523438 317.789062 142.628906 317.894531 C 142.90625 318.140625 143.363281 318.105469 143.605469 317.789062 C 143.851562 317.476562 143.816406 317.054688 143.5 316.8125 C 143.433594 316.742188 143.363281 316.671875 143.257812 316.601562 Z M 143.257812 316.601562 " fill-opacity="1" fill-rule="nonzero"/><path fill="#a1d2b9" d="M 146.296875 318.734375 C 146.191406 318.664062 146.089844 318.628906 146.019531 318.558594 C 145.703125 318.351562 145.25 318.453125 145.074219 318.804688 C 144.863281 319.117188 144.96875 319.574219 145.320312 319.746094 C 145.425781 319.816406 145.527344 319.886719 145.632812 319.921875 C 145.949219 320.097656 146.402344 319.992188 146.578125 319.679688 C 146.753906 319.363281 146.648438 318.945312 146.296875 318.734375 Z M 146.296875 318.734375 " fill-opacity="1" fill-rule="nonzero"/><path fill="#a1d2b9" d="M 149.375 320.203125 C 149.269531 320.167969 149.164062 320.132812 149.058594 320.0625 C 148.710938 319.921875 148.289062 320.097656 148.148438 320.445312 C 148.011719 320.796875 148.183594 321.214844 148.535156 321.355469 C 148.640625 321.390625 148.746094 321.460938 148.882812 321.496094 C 149.234375 321.636719 149.652344 321.460938 149.792969 321.074219 C 149.898438 320.726562 149.722656 320.34375 149.375 320.203125 Z M 149.375 320.203125 " fill-opacity="1" fill-rule="nonzero"/><path fill="#a1d2b9" d="M 177.613281 306.78125 C 177.230469 306.675781 176.84375 306.851562 176.738281 307.234375 C 176.703125 307.339844 176.671875 307.445312 176.636719 307.550781 C 176.496094 307.898438 176.703125 308.320312 177.054688 308.457031 C 177.402344 308.597656 177.824219 308.390625 177.964844 308.039062 C 178 307.933594 178.03125 307.792969 178.066406 307.691406 C 178.171875 307.269531 177.964844 306.886719 177.613281 306.78125 Z M 177.613281 306.78125 " fill-opacity="1" fill-rule="nonzero"/><g clip-path="url(#id19)"><path fill="#a1d2b9" d="M 152.625 321.144531 C 152.519531 321.109375 152.414062 321.109375 152.308594 321.074219 C 151.925781 321.007812 151.574219 321.214844 151.46875 321.601562 C 151.402344 321.984375 151.609375 322.335938 151.996094 322.4375 C 152.097656 322.472656 152.449219 322.542969 152.484375 322.542969 C 152.796875 322.542969 153.113281 322.300781 153.183594 321.984375 C 153.253906 321.566406 153.007812 321.214844 152.625 321.144531 Z M 152.625 321.144531 " fill-opacity="1" fill-rule="nonzero"/></g><g clip-path="url(#id20)"><path fill="#a1d2b9" d="M 178.488281 299.789062 C 178.101562 299.789062 177.789062 300.105469 177.789062 300.488281 C 177.789062 300.488281 177.789062 300.804688 177.789062 300.910156 C 177.789062 301.292969 178.101562 301.609375 178.488281 301.609375 C 178.871094 301.609375 179.1875 301.292969 179.1875 300.910156 C 179.1875 300.804688 179.1875 300.488281 179.1875 300.488281 C 179.1875 300.105469 178.871094 299.789062 178.488281 299.789062 Z M 178.488281 299.789062 " fill-opacity="1" fill-rule="nonzero"/></g><g clip-path="url(#id21)"><path fill="#a1d2b9" d="M 155.980469 321.53125 C 155.875 321.53125 155.769531 321.53125 155.628906 321.53125 C 155.246094 321.53125 154.929688 321.808594 154.894531 322.195312 C 154.859375 322.578125 155.175781 322.894531 155.558594 322.929688 C 155.664062 322.929688 155.945312 322.964844 155.945312 322.964844 C 156.328125 322.964844 156.644531 322.683594 156.644531 322.300781 C 156.644531 321.878906 156.363281 321.53125 155.980469 321.53125 Z M 155.980469 321.53125 " fill-opacity="1" fill-rule="nonzero"/></g></svg>