<svg xmlns="http://www.w3.org/2000/svg" xmlns:xlink="http://www.w3.org/1999/xlink" width="800" zoomAndPan="magnify" viewBox="0 0 600 599.999999" height="800" preserveAspectRatio="xMidYMid meet" version="1.0"><defs><g/><clipPath id="id1"><path d="M 274.242188 225.542969 L 324.507812 225.542969 L 324.507812 275.808594 L 274.242188 275.808594 Z M 274.242188 225.542969 " clip-rule="nonzero"/></clipPath><clipPath id="id2"><path d="M 264.582031 253 L 267 253 L 267 257 L 264.582031 257 Z M 264.582031 253 " clip-rule="nonzero"/></clipPath><clipPath id="id3"><path d="M 317 247 L 319.613281 247 L 319.613281 251 L 317 251 Z M 317 247 " clip-rule="nonzero"/></clipPath><clipPath id="id4"><path d="M 294 225.542969 L 297 225.542969 L 297 228 L 294 228 Z M 294 225.542969 " clip-rule="nonzero"/></clipPath><clipPath id="id5"><path d="M 290 225.542969 L 293 225.542969 L 293 228 L 290 228 Z M 290 225.542969 " clip-rule="nonzero"/></clipPath><clipPath id="id6"><path d="M 264.582031 249 L 267 249 L 267 252 L 264.582031 252 Z M 264.582031 249 " clip-rule="nonzero"/></clipPath><clipPath id="id7"><path d="M 317 256 L 319.613281 256 L 319.613281 259 L 317 259 Z M 317 256 " clip-rule="nonzero"/></clipPath><clipPath id="id8"><path d="M 293 278 L 297 278 L 297 280.578125 L 293 280.578125 Z M 293 278 " clip-rule="nonzero"/></clipPath><clipPath id="id9"><path d="M 285 278 L 288 278 L 288 280.578125 L 285 280.578125 Z M 285 278 " clip-rule="nonzero"/></clipPath><clipPath id="id10"><path d="M 317 252 L 319.613281 252 L 319.613281 255 L 317 255 Z M 317 252 " clip-rule="nonzero"/></clipPath><clipPath id="id11"><path d="M 289 278 L 292 278 L 292 280.578125 L 289 280.578125 Z M 289 278 " clip-rule="nonzero"/></clipPath><clipPath id="id12"><path d="M 270.269531 254 L 272 254 L 272 257 L 270.269531 257 Z M 270.269531 254 " clip-rule="nonzero"/></clipPath><clipPath id="id13"><path d="M 270.269531 247 L 273 247 L 273 250 L 270.269531 250 Z M 270.269531 247 " clip-rule="nonzero"/></clipPath><clipPath id="id14"><path d="M 270.269531 258 L 273 258 L 273 260 L 270.269531 260 Z M 270.269531 258 " clip-rule="nonzero"/></clipPath><clipPath id="id15"><path d="M 294 231.585938 L 297 231.585938 L 297 234 L 294 234 Z M 294 231.585938 " clip-rule="nonzero"/></clipPath><clipPath id="id16"><path d="M 291 231.585938 L 293 231.585938 L 293 234 L 291 234 Z M 291 231.585938 " clip-rule="nonzero"/></clipPath><clipPath id="id17"><path d="M 270.269531 251 L 272 251 L 272 253 L 270.269531 253 Z M 270.269531 251 " clip-rule="nonzero"/></clipPath><clipPath id="id18"><path d="M 294 274 L 296 274 L 296 276.390625 L 294 276.390625 Z M 294 274 " clip-rule="nonzero"/></clipPath><clipPath id="id19"><path d="M 313 253 L 315.074219 253 L 315.074219 256 L 313 256 Z M 313 253 " clip-rule="nonzero"/></clipPath><clipPath id="id20"><path d="M 290 274 L 293 274 L 293 276.390625 L 290 276.390625 Z M 290 274 " clip-rule="nonzero"/></clipPath></defs><g fill="#a1d2b9" fill-opacity="1"><g transform="translate(253.080048, 313.384929)"><g><path d="M 17.710938 0 C 15.328125 -4.644531 13.007812 -9.367188 10.777344 -14.015625 C 9.863281 -13.882812 8.359375 -13.921875 7.464844 -14.015625 C 5.253906 -9.367188 2.96875 -4.644531 0.589844 0 L 2.835938 0 L 4.417969 -3.390625 C 7.21875 -3.425781 11.121094 -3.425781 13.882812 -3.390625 C 14.339844 -2.34375 14.777344 -1.332031 15.386719 0 Z M 5.007812 -4.664062 C 6.417969 -7.691406 7.828125 -10.703125 9.0625 -13.023438 C 11.367188 -8.757812 12.492188 -6.472656 13.3125 -4.664062 C 10.835938 -4.628906 7.523438 -4.628906 5.007812 -4.664062 Z M 5.007812 -4.664062 "/></g></g></g><g fill="#a1d2b9" fill-opacity="1"><g transform="translate(271.368999, 313.384929)"><g><path d="M 12.53125 -10.28125 C 11.902344 -10.113281 11.179688 -10.054688 10.53125 -10.054688 L 10.53125 -6 C 10.53125 -3.542969 9.351562 -1.3125 6.167969 -1.3125 C 3.980469 -1.3125 3.066406 -2.894531 3.066406 -5.066406 L 3.066406 -10.28125 C 2.398438 -10.113281 1.847656 -10.054688 1.179688 -10.054688 C 1.351562 -8.285156 1.3125 -6.226562 1.3125 -4.304688 C 1.3125 -1.886719 2.246094 0.171875 5.273438 0.171875 C 8.035156 0.171875 9.921875 -1.390625 10.585938 -3.828125 L 10.738281 -3.828125 C 10.703125 -2.664062 10.605469 -1.332031 10.433594 0 L 12.53125 0 C 12.300781 -5.085938 12.320312 -7.332031 12.53125 -10.28125 Z M 12.53125 -10.28125 "/></g></g></g><g fill="#a1d2b9" fill-opacity="1"><g transform="translate(285.414, 313.384929)"><g><path d="M 6.96875 0.210938 C 10.433594 0.210938 12.550781 -0.683594 12.550781 -2.875 C 12.550781 -7.597656 2.855469 -3.867188 2.855469 -7.273438 C 2.855469 -8.589844 4.113281 -9.179688 6.703125 -9.179688 C 8.777344 -9.179688 10.570312 -8.664062 11.996094 -7.960938 C 11.863281 -8.625 11.84375 -9.121094 11.976562 -9.578125 C 10.246094 -10.09375 8.816406 -10.417969 6.796875 -10.417969 C 4.683594 -10.417969 1.007812 -10.1875 1.007812 -7.273438 C 1.007812 -2.589844 10.664062 -6.152344 10.664062 -2.914062 C 10.664062 -1.714844 9.351562 -1.085938 6.914062 -1.085938 C 4.914062 -1.085938 2.4375 -1.636719 1.238281 -2.589844 C 1.371094 -2.171875 1.371094 -1.429688 1.238281 -0.972656 C 2.78125 -0.171875 4.988281 0.210938 6.96875 0.210938 Z M 6.96875 0.210938 "/></g></g></g><g fill="#a1d2b9" fill-opacity="1"><g transform="translate(298.850004, 313.384929)"><g/></g></g><g fill="#a1d2b9" fill-opacity="1"><g transform="translate(304.559358, 313.384929)"><g><path d="M 10.359375 0.226562 C 16.167969 0.226562 19.59375 -2.457031 19.59375 -7.007812 C 19.59375 -11.617188 16.167969 -14.261719 10.359375 -14.261719 C 4.53125 -14.261719 1.105469 -11.636719 1.105469 -7.007812 C 1.105469 -2.457031 4.550781 0.226562 10.359375 0.226562 Z M 10.359375 -1.140625 C 5.808594 -1.140625 3.121094 -3.238281 3.121094 -6.96875 C 3.121094 -10.683594 5.808594 -12.910156 10.359375 -12.910156 C 14.835938 -12.910156 17.59375 -10.683594 17.59375 -6.96875 C 17.59375 -3.238281 14.835938 -1.140625 10.359375 -1.140625 Z M 10.359375 -1.140625 "/></g></g></g><g fill="#a1d2b9" fill-opacity="1"><g transform="translate(325.246235, 313.384929)"><g><path d="M 12.53125 -10.28125 C 11.902344 -10.113281 11.179688 -10.054688 10.53125 -10.054688 L 10.53125 -6 C 10.53125 -3.542969 9.351562 -1.3125 6.167969 -1.3125 C 3.980469 -1.3125 3.066406 -2.894531 3.066406 -5.066406 L 3.066406 -10.28125 C 2.398438 -10.113281 1.847656 -10.054688 1.179688 -10.054688 C 1.351562 -8.285156 1.3125 -6.226562 1.3125 -4.304688 C 1.3125 -1.886719 2.246094 0.171875 5.273438 0.171875 C 8.035156 0.171875 9.921875 -1.390625 10.585938 -3.828125 L 10.738281 -3.828125 C 10.703125 -2.664062 10.605469 -1.332031 10.433594 0 L 12.53125 0 C 12.300781 -5.085938 12.320312 -7.332031 12.53125 -10.28125 Z M 12.53125 -10.28125 "/></g></g></g><g fill="#a1d2b9" fill-opacity="1"><g transform="translate(339.291236, 313.384929)"><g><path d="M 10.417969 -10.167969 C 9.101562 -7.253906 7.828125 -4.132812 6.339844 -0.953125 C 4.914062 -3.960938 3.578125 -7.253906 2.246094 -10.167969 C 1.597656 -10.054688 0.875 -10.074219 0.113281 -10.167969 C 1.921875 -6.722656 3.503906 -3.410156 5.046875 0 L 7.578125 0 C 9.578125 -4.246094 10.585938 -6.550781 12.511719 -10.167969 C 11.75 -10.054688 11.082031 -10.074219 10.417969 -10.167969 Z M 10.417969 -10.167969 "/></g></g></g><g fill="#a1d2b9" fill-opacity="1"><g transform="translate(351.889865, 313.384929)"><g><path d="M 2.648438 -12.1875 C 3.636719 -12.1875 4.152344 -12.472656 4.152344 -13.140625 C 4.152344 -13.804688 3.636719 -14.109375 2.648438 -14.109375 C 1.75 -14.109375 1.277344 -13.804688 1.277344 -13.140625 C 1.277344 -12.472656 1.75 -12.1875 2.648438 -12.1875 Z M 1.695312 -10.167969 C 1.828125 -6.722656 1.828125 -3.425781 1.695312 0 L 3.675781 0 C 3.542969 -3.445312 3.542969 -6.722656 3.675781 -10.167969 C 2.96875 -10.054688 2.417969 -10.074219 1.695312 -10.167969 Z M 1.695312 -10.167969 "/></g></g></g><g fill="#a1d2b9" fill-opacity="1"><g transform="translate(357.313746, 313.384929)"><g><path d="M 13.347656 -15.0625 C 12.816406 -14.871094 11.824219 -14.777344 11.195312 -14.738281 C 11.292969 -13.480469 11.367188 -9.386719 11.40625 -6.609375 L 11.253906 -6.609375 C 10.511719 -8.625 9.007812 -10.417969 6.132812 -10.417969 C 3.027344 -10.417969 0.953125 -8.320312 0.953125 -5.292969 C 0.953125 -2.054688 3.105469 0.265625 6.761719 0.265625 C 8.96875 0.265625 10.644531 -0.820312 11.445312 -2.609375 C 11.425781 -1.695312 11.40625 -0.855469 11.347656 0 L 13.234375 0 C 13.007812 -1.980469 12.988281 -12.28125 13.347656 -15.0625 Z M 7.3125 -0.914062 C 4.914062 -0.914062 2.835938 -2.324219 2.835938 -5.179688 C 2.835938 -7.484375 4.359375 -9.082031 6.777344 -9.082031 C 10.722656 -9.082031 11.445312 -5.484375 11.445312 -3.523438 L 11.445312 -3.332031 C 10.398438 -1.429688 8.757812 -0.914062 7.3125 -0.914062 Z M 7.3125 -0.914062 "/></g></g></g><g fill="#a1d2b9" fill-opacity="1"><g transform="translate(372.177092, 313.384929)"><g><path d="M 7.292969 0.210938 C 11.273438 0.210938 13.617188 -1.769531 13.617188 -5.140625 C 13.617188 -8.4375 11.273438 -10.417969 7.292969 -10.417969 C 3.292969 -10.417969 0.953125 -8.4375 0.953125 -5.140625 C 0.953125 -1.769531 3.292969 0.210938 7.292969 0.210938 Z M 7.273438 -1.007812 C 4.457031 -1.007812 2.855469 -2.511719 2.855469 -5.140625 C 2.855469 -7.597656 4.457031 -9.121094 7.273438 -9.121094 C 10.054688 -9.121094 11.710938 -7.597656 11.710938 -5.140625 C 11.710938 -2.511719 10.054688 -1.007812 7.273438 -1.007812 Z M 7.273438 -1.007812 "/></g></g></g><g fill="#a1d2b9" fill-opacity="1"><g transform="translate(386.735933, 313.384929)"><g><path d="M 6.96875 0.210938 C 10.433594 0.210938 12.550781 -0.683594 12.550781 -2.875 C 12.550781 -7.597656 2.855469 -3.867188 2.855469 -7.273438 C 2.855469 -8.589844 4.113281 -9.179688 6.703125 -9.179688 C 8.777344 -9.179688 10.570312 -8.664062 11.996094 -7.960938 C 11.863281 -8.625 11.84375 -9.121094 11.976562 -9.578125 C 10.246094 -10.09375 8.816406 -10.417969 6.796875 -10.417969 C 4.683594 -10.417969 1.007812 -10.1875 1.007812 -7.273438 C 1.007812 -2.589844 10.664062 -6.152344 10.664062 -2.914062 C 10.664062 -1.714844 9.351562 -1.085938 6.914062 -1.085938 C 4.914062 -1.085938 2.4375 -1.636719 1.238281 -2.589844 C 1.371094 -2.171875 1.371094 -1.429688 1.238281 -0.972656 C 2.78125 -0.171875 4.988281 0.210938 6.96875 0.210938 Z M 6.96875 0.210938 "/></g></g></g><g fill="#a1d2b9" fill-opacity="1"><g transform="translate(182.722141, 310.952116)"><g><path d="M 1.308594 0 L 2.675781 0 C 2.582031 -2.546875 2.582031 -6.28125 2.652344 -8.835938 C 2.246094 -8.777344 1.777344 -8.777344 1.308594 -8.835938 C 1.382812 -6.28125 1.382812 -2.558594 1.308594 0 Z M 1.308594 0 "/></g></g></g><g fill="#a1d2b9" fill-opacity="1"><g transform="translate(186.706149, 310.952116)"><g><path d="M 1.007812 0 L 2.269531 0 L 2.269531 -2.570312 C 2.269531 -4.203125 3.15625 -5.632812 4.945312 -5.632812 C 6.398438 -5.632812 7.023438 -4.597656 7.023438 -3.15625 L 7.023438 0 L 8.261719 0 C 8.152344 -1.1875 8.175781 -2.449219 8.175781 -3.746094 C 8.175781 -5.257812 7.550781 -6.566406 5.558594 -6.566406 C 3.9375 -6.566406 2.664062 -5.488281 2.246094 -3.9375 L 2.136719 -3.9375 C 2.171875 -4.839844 2.234375 -5.632812 2.351562 -6.542969 C 2.042969 -6.425781 1.476562 -6.339844 1.007812 -6.316406 C 1.152344 -3.121094 1.152344 -1.859375 1.007812 0 Z M 1.007812 0 "/></g></g></g><g fill="#a1d2b9" fill-opacity="1"><g transform="translate(195.862166, 310.952116)"><g><path d="M 4.394531 0.132812 C 6.582031 0.132812 7.914062 -0.433594 7.914062 -1.8125 C 7.914062 -4.789062 1.800781 -2.4375 1.800781 -4.585938 C 1.800781 -5.414062 2.59375 -5.789062 4.226562 -5.789062 C 5.535156 -5.789062 6.664062 -5.464844 7.566406 -5.019531 C 7.480469 -5.4375 7.46875 -5.75 7.550781 -6.039062 C 6.460938 -6.363281 5.558594 -6.566406 4.285156 -6.566406 C 2.953125 -6.566406 0.636719 -6.425781 0.636719 -4.585938 C 0.636719 -1.632812 6.722656 -3.878906 6.722656 -1.835938 C 6.722656 -1.082031 5.894531 -0.683594 4.359375 -0.683594 C 3.097656 -0.683594 1.535156 -1.03125 0.78125 -1.632812 C 0.863281 -1.367188 0.863281 -0.902344 0.78125 -0.613281 C 1.753906 -0.109375 3.144531 0.132812 4.394531 0.132812 Z M 4.394531 0.132812 "/></g></g></g><g fill="#a1d2b9" fill-opacity="1"><g transform="translate(204.334181, 310.952116)"><g><path d="M 2.917969 -5.679688 C 4.144531 -5.679688 5.378906 -5.65625 6.53125 -5.609375 C 6.507812 -5.90625 6.507812 -6.113281 6.53125 -6.410156 C 5.390625 -6.363281 4.15625 -6.339844 2.917969 -6.339844 L 2.953125 -8.695312 C 2.582031 -8.539062 2.171875 -8.488281 1.703125 -8.441406 C 1.742188 -7.890625 1.765625 -7.144531 1.777344 -6.351562 C 1.164062 -6.363281 0.550781 -6.386719 -0.0234375 -6.410156 C 0 -6.195312 0 -5.824219 -0.0234375 -5.609375 C 0.5625 -5.632812 1.164062 -5.65625 1.789062 -5.667969 C 1.8125 -4.167969 1.8125 -2.691406 1.8125 -2.234375 C 1.8125 -0.445312 2.988281 0.0976562 4.285156 0.121094 C 5.078125 0.132812 5.90625 -0.046875 6.519531 -0.265625 C 6.472656 -0.550781 6.484375 -0.863281 6.53125 -1.164062 C 5.933594 -0.925781 5.210938 -0.734375 4.5625 -0.757812 C 3.613281 -0.792969 2.847656 -1.273438 2.871094 -2.714844 C 2.882812 -3.648438 2.894531 -4.660156 2.917969 -5.679688 Z M 2.917969 -5.679688 "/></g></g></g><g fill="#a1d2b9" fill-opacity="1"><g transform="translate(211.1742, 310.952116)"><g><path d="M 1.667969 -7.683594 C 2.292969 -7.683594 2.617188 -7.863281 2.617188 -8.285156 C 2.617188 -8.707031 2.292969 -8.898438 1.667969 -8.898438 C 1.105469 -8.898438 0.804688 -8.707031 0.804688 -8.285156 C 0.804688 -7.863281 1.105469 -7.683594 1.667969 -7.683594 Z M 1.070312 -6.410156 C 1.152344 -4.238281 1.152344 -2.160156 1.070312 0 L 2.316406 0 C 2.234375 -2.171875 2.234375 -4.238281 2.316406 -6.410156 C 1.875 -6.339844 1.523438 -6.351562 1.070312 -6.410156 Z M 1.070312 -6.410156 "/></g></g></g><g fill="#a1d2b9" fill-opacity="1"><g transform="translate(214.59421, 310.952116)"><g><path d="M 2.917969 -5.679688 C 4.144531 -5.679688 5.378906 -5.65625 6.53125 -5.609375 C 6.507812 -5.90625 6.507812 -6.113281 6.53125 -6.410156 C 5.390625 -6.363281 4.15625 -6.339844 2.917969 -6.339844 L 2.953125 -8.695312 C 2.582031 -8.539062 2.171875 -8.488281 1.703125 -8.441406 C 1.742188 -7.890625 1.765625 -7.144531 1.777344 -6.351562 C 1.164062 -6.363281 0.550781 -6.386719 -0.0234375 -6.410156 C 0 -6.195312 0 -5.824219 -0.0234375 -5.609375 C 0.5625 -5.632812 1.164062 -5.65625 1.789062 -5.667969 C 1.8125 -4.167969 1.8125 -2.691406 1.8125 -2.234375 C 1.8125 -0.445312 2.988281 0.0976562 4.285156 0.121094 C 5.078125 0.132812 5.90625 -0.046875 6.519531 -0.265625 C 6.472656 -0.550781 6.484375 -0.863281 6.53125 -1.164062 C 5.933594 -0.925781 5.210938 -0.734375 4.5625 -0.757812 C 3.613281 -0.792969 2.847656 -1.273438 2.871094 -2.714844 C 2.882812 -3.648438 2.894531 -4.660156 2.917969 -5.679688 Z M 2.917969 -5.679688 "/></g></g></g><g fill="#a1d2b9" fill-opacity="1"><g transform="translate(221.434229, 310.952116)"><g><path d="M 7.902344 -6.484375 C 7.503906 -6.375 7.046875 -6.339844 6.640625 -6.339844 L 6.640625 -3.78125 C 6.640625 -2.234375 5.894531 -0.828125 3.890625 -0.828125 C 2.507812 -0.828125 1.933594 -1.824219 1.933594 -3.195312 L 1.933594 -6.484375 C 1.511719 -6.375 1.164062 -6.339844 0.746094 -6.339844 C 0.851562 -5.222656 0.828125 -3.925781 0.828125 -2.714844 C 0.828125 -1.1875 1.417969 0.109375 3.324219 0.109375 C 5.066406 0.109375 6.257812 -0.875 6.675781 -2.414062 L 6.773438 -2.414062 C 6.75 -1.679688 6.6875 -0.839844 6.582031 0 L 7.902344 0 C 7.757812 -3.207031 7.769531 -4.621094 7.902344 -6.484375 Z M 7.902344 -6.484375 "/></g></g></g><g fill="#a1d2b9" fill-opacity="1"><g transform="translate(230.29025, 310.952116)"><g><path d="M 2.917969 -5.679688 C 4.144531 -5.679688 5.378906 -5.65625 6.53125 -5.609375 C 6.507812 -5.90625 6.507812 -6.113281 6.53125 -6.410156 C 5.390625 -6.363281 4.15625 -6.339844 2.917969 -6.339844 L 2.953125 -8.695312 C 2.582031 -8.539062 2.171875 -8.488281 1.703125 -8.441406 C 1.742188 -7.890625 1.765625 -7.144531 1.777344 -6.351562 C 1.164062 -6.363281 0.550781 -6.386719 -0.0234375 -6.410156 C 0 -6.195312 0 -5.824219 -0.0234375 -5.609375 C 0.5625 -5.632812 1.164062 -5.65625 1.789062 -5.667969 C 1.8125 -4.167969 1.8125 -2.691406 1.8125 -2.234375 C 1.8125 -0.445312 2.988281 0.0976562 4.285156 0.121094 C 5.078125 0.132812 5.90625 -0.046875 6.519531 -0.265625 C 6.472656 -0.550781 6.484375 -0.863281 6.53125 -1.164062 C 5.933594 -0.925781 5.210938 -0.734375 4.5625 -0.757812 C 3.613281 -0.792969 2.847656 -1.273438 2.871094 -2.714844 C 2.882812 -3.648438 2.894531 -4.660156 2.917969 -5.679688 Z M 2.917969 -5.679688 "/></g></g></g><g fill="#a1d2b9" fill-opacity="1"><g transform="translate(237.130269, 310.952116)"><g><path d="M 4.597656 0.132812 C 7.109375 0.132812 8.585938 -1.117188 8.585938 -3.242188 C 8.585938 -5.320312 7.109375 -6.566406 4.597656 -6.566406 C 2.078125 -6.566406 0.601562 -5.320312 0.601562 -3.242188 C 0.601562 -1.117188 2.078125 0.132812 4.597656 0.132812 Z M 4.585938 -0.636719 C 2.808594 -0.636719 1.800781 -1.585938 1.800781 -3.242188 C 1.800781 -4.789062 2.808594 -5.75 4.585938 -5.75 C 6.339844 -5.75 7.382812 -4.789062 7.382812 -3.242188 C 7.382812 -1.585938 6.339844 -0.636719 4.585938 -0.636719 Z M 4.585938 -0.636719 "/></g></g></g><g fill="#a1d2b9" fill-opacity="1"><g transform="translate(246.308076, 310.952116)"><g/></g></g><g clip-path="url(#id1)"><path fill="#a1d2b9" d="M 299.375 228.054688 C 311.847656 228.054688 321.996094 238.203125 321.996094 250.675781 C 321.996094 263.148438 311.847656 273.296875 299.375 273.296875 C 286.902344 273.296875 276.753906 263.148438 276.753906 250.675781 C 276.753906 238.203125 286.902344 228.054688 299.375 228.054688 M 299.375 225.542969 C 285.492188 225.542969 274.242188 236.792969 274.242188 250.675781 C 274.242188 264.558594 285.492188 275.808594 299.375 275.808594 C 313.257812 275.808594 324.507812 264.558594 324.507812 250.675781 C 324.507812 236.792969 313.257812 225.542969 299.375 225.542969 Z M 299.375 225.542969 " fill-opacity="1" fill-rule="nonzero"/></g><g clip-path="url(#id2)"><path fill="#a1d2b9" d="M 266.382812 255.164062 C 266.382812 255.035156 266.382812 254.90625 266.339844 254.734375 C 266.296875 254.261719 265.914062 253.917969 265.441406 253.917969 C 264.96875 253.960938 264.625 254.347656 264.625 254.820312 C 264.625 254.949219 264.625 255.121094 264.667969 255.25 C 264.710938 255.722656 265.140625 256.0625 265.613281 256.023438 C 266.039062 256.0625 266.425781 255.636719 266.382812 255.164062 Z M 266.382812 255.164062 " fill-opacity="1" fill-rule="nonzero"/></g><path fill="#a1d2b9" d="M 267.199219 243.445312 C 267.628906 243.617188 268.144531 243.402344 268.316406 242.972656 C 268.359375 242.886719 268.445312 242.757812 268.488281 242.628906 C 268.703125 242.199219 268.488281 241.683594 268.058594 241.511719 C 267.628906 241.339844 267.113281 241.511719 266.941406 241.941406 C 266.898438 242.070312 266.8125 242.199219 266.769531 242.371094 C 266.554688 242.757812 266.769531 243.273438 267.199219 243.445312 Z M 267.199219 243.445312 " fill-opacity="1" fill-rule="nonzero"/><path fill="#a1d2b9" d="M 265.996094 247.566406 C 266.46875 247.695312 266.941406 247.394531 267.027344 246.921875 C 267.070312 246.792969 267.113281 246.664062 267.113281 246.535156 C 267.242188 246.0625 266.941406 245.589844 266.511719 245.503906 C 266.039062 245.375 265.570312 245.675781 265.484375 246.105469 C 265.441406 246.234375 265.398438 246.40625 265.355469 246.535156 C 265.226562 247.007812 265.527344 247.480469 265.996094 247.566406 Z M 265.996094 247.566406 " fill-opacity="1" fill-rule="nonzero"/><path fill="#a1d2b9" d="M 267.027344 259.285156 C 266.984375 259.15625 266.941406 259.027344 266.941406 258.898438 C 266.855469 258.425781 266.382812 258.125 265.914062 258.210938 C 265.441406 258.296875 265.183594 258.769531 265.269531 259.242188 C 265.3125 259.371094 265.355469 259.542969 265.355469 259.671875 C 265.484375 260.144531 265.953125 260.398438 266.382812 260.3125 C 266.855469 260.183594 267.15625 259.714844 267.027344 259.285156 Z M 267.027344 259.285156 " fill-opacity="1" fill-rule="nonzero"/><path fill="#a1d2b9" d="M 271.75 234.558594 C 271.664062 234.6875 271.535156 234.773438 271.449219 234.902344 C 271.148438 235.246094 271.148438 235.800781 271.535156 236.101562 C 271.878906 236.402344 272.4375 236.359375 272.738281 236.015625 C 272.824219 235.929688 272.910156 235.800781 272.996094 235.714844 C 273.296875 235.375 273.296875 234.816406 272.953125 234.515625 C 272.609375 234.171875 272.050781 234.214844 271.75 234.558594 Z M 271.75 234.558594 " fill-opacity="1" fill-rule="nonzero"/><path fill="#a1d2b9" d="M 272.523438 269.84375 C 272.222656 269.5 271.664062 269.457031 271.320312 269.757812 C 270.976562 270.058594 270.933594 270.617188 271.234375 270.960938 C 271.320312 271.089844 271.40625 271.175781 271.535156 271.304688 C 271.835938 271.648438 272.394531 271.691406 272.738281 271.390625 C 273.082031 271.089844 273.125 270.53125 272.824219 270.1875 C 272.695312 270.058594 272.609375 269.972656 272.523438 269.84375 Z M 272.523438 269.84375 " fill-opacity="1" fill-rule="nonzero"/><path fill="#a1d2b9" d="M 268.1875 262.804688 C 268.015625 262.375 267.5 262.160156 267.070312 262.332031 C 266.640625 262.503906 266.425781 263.019531 266.597656 263.449219 C 266.640625 263.578125 266.726562 263.707031 266.769531 263.835938 C 266.941406 264.265625 267.457031 264.476562 267.886719 264.304688 C 268.316406 264.136719 268.53125 263.621094 268.359375 263.191406 C 268.316406 263.0625 268.230469 262.933594 268.1875 262.804688 Z M 268.1875 262.804688 " fill-opacity="1" fill-rule="nonzero"/><path fill="#a1d2b9" d="M 270.074219 266.496094 C 269.820312 266.109375 269.304688 265.980469 268.875 266.195312 C 268.488281 266.453125 268.359375 266.96875 268.574219 267.398438 C 268.660156 267.527344 268.746094 267.65625 268.789062 267.785156 C 269.046875 268.171875 269.5625 268.300781 269.992188 268.042969 C 270.375 267.785156 270.503906 267.269531 270.246094 266.839844 C 270.203125 266.753906 270.160156 266.625 270.074219 266.496094 Z M 270.074219 266.496094 " fill-opacity="1" fill-rule="nonzero"/><path fill="#a1d2b9" d="M 270.246094 237.777344 C 269.863281 237.519531 269.304688 237.648438 269.046875 238.035156 C 268.960938 238.164062 268.875 238.292969 268.789062 238.421875 C 268.53125 238.808594 268.660156 239.367188 269.046875 239.621094 C 269.433594 239.878906 269.992188 239.75 270.246094 239.367188 C 270.332031 239.238281 270.375 239.152344 270.460938 239.023438 C 270.71875 238.59375 270.632812 238.035156 270.246094 237.777344 Z M 270.246094 237.777344 " fill-opacity="1" fill-rule="nonzero"/><path fill="#a1d2b9" d="M 315.066406 241.382812 C 315.28125 241.8125 315.792969 241.984375 316.222656 241.769531 C 316.652344 241.554688 316.824219 241.039062 316.609375 240.609375 C 316.523438 240.480469 316.480469 240.351562 316.394531 240.222656 C 316.179688 239.792969 315.664062 239.621094 315.238281 239.878906 C 314.808594 240.09375 314.679688 240.609375 314.894531 241.039062 C 314.9375 241.125 314.980469 241.253906 315.066406 241.382812 Z M 315.066406 241.382812 " fill-opacity="1" fill-rule="nonzero"/><path fill="#a1d2b9" d="M 299.179688 228.289062 C 299.308594 228.332031 299.4375 228.375 299.566406 228.417969 C 299.996094 228.546875 300.511719 228.289062 300.640625 227.859375 C 300.769531 227.386719 300.511719 226.917969 300.082031 226.789062 C 299.953125 226.746094 299.78125 226.703125 299.652344 226.660156 C 299.179688 226.53125 298.710938 226.789062 298.582031 227.257812 C 298.453125 227.6875 298.710938 228.160156 299.179688 228.289062 Z M 299.179688 228.289062 " fill-opacity="1" fill-rule="nonzero"/><path fill="#a1d2b9" d="M 303.042969 229.75 C 303.171875 229.792969 303.300781 229.878906 303.429688 229.921875 C 303.859375 230.136719 304.375 229.964844 304.589844 229.535156 C 304.804688 229.105469 304.632812 228.589844 304.203125 228.375 C 304.074219 228.289062 303.945312 228.246094 303.816406 228.203125 C 303.386719 227.988281 302.875 228.203125 302.660156 228.632812 C 302.445312 229.019531 302.617188 229.535156 303.042969 229.75 Z M 303.042969 229.75 " fill-opacity="1" fill-rule="nonzero"/><path fill="#a1d2b9" d="M 306.652344 231.808594 C 306.78125 231.894531 306.867188 231.980469 306.996094 232.066406 C 307.378906 232.324219 307.9375 232.238281 308.195312 231.851562 C 308.453125 231.464844 308.367188 230.953125 307.980469 230.652344 C 307.851562 230.566406 307.722656 230.480469 307.636719 230.394531 C 307.25 230.136719 306.695312 230.222656 306.4375 230.609375 C 306.179688 230.996094 306.265625 231.550781 306.652344 231.808594 Z M 306.652344 231.808594 " fill-opacity="1" fill-rule="nonzero"/><g clip-path="url(#id3)"><path fill="#a1d2b9" d="M 317.511719 248.851562 C 317.554688 248.980469 317.554688 249.109375 317.597656 249.28125 C 317.683594 249.753906 318.113281 250.054688 318.585938 250.011719 C 319.058594 249.925781 319.359375 249.496094 319.316406 249.023438 C 319.316406 248.894531 319.273438 248.722656 319.230469 248.59375 C 319.144531 248.121094 318.714844 247.820312 318.242188 247.863281 C 317.769531 247.949219 317.425781 248.378906 317.511719 248.851562 Z M 317.511719 248.851562 " fill-opacity="1" fill-rule="nonzero"/></g><path fill="#a1d2b9" d="M 316.523438 244.816406 C 316.566406 244.945312 316.609375 245.074219 316.652344 245.203125 C 316.78125 245.632812 317.296875 245.890625 317.726562 245.761719 C 318.199219 245.632812 318.414062 245.117188 318.285156 244.6875 C 318.242188 244.558594 318.199219 244.386719 318.15625 244.257812 C 317.984375 243.828125 317.511719 243.574219 317.082031 243.699219 C 316.609375 243.871094 316.351562 244.386719 316.523438 244.816406 Z M 316.523438 244.816406 " fill-opacity="1" fill-rule="nonzero"/><g clip-path="url(#id4)"><path fill="#a1d2b9" d="M 295.101562 227.472656 C 295.230469 227.472656 295.574219 227.515625 295.617188 227.515625 C 296.046875 227.515625 296.390625 227.214844 296.476562 226.789062 C 296.519531 226.316406 296.21875 225.886719 295.746094 225.84375 C 295.617188 225.84375 295.445312 225.800781 295.316406 225.800781 C 294.84375 225.757812 294.417969 226.101562 294.375 226.574219 C 294.289062 227.003906 294.632812 227.429688 295.101562 227.472656 Z M 295.101562 227.472656 " fill-opacity="1" fill-rule="nonzero"/></g><path fill="#a1d2b9" d="M 278.703125 230.867188 C 279.003906 230.867188 279.261719 230.695312 279.476562 230.566406 C 279.90625 230.351562 280.035156 229.792969 279.820312 229.40625 C 279.605469 228.976562 279.046875 228.847656 278.660156 229.0625 C 278.53125 229.148438 278.402344 229.191406 278.277344 229.277344 C 277.847656 229.535156 277.71875 230.050781 277.976562 230.4375 C 278.105469 230.738281 278.402344 230.867188 278.703125 230.867188 Z M 278.703125 230.867188 " fill-opacity="1" fill-rule="nonzero"/><path fill="#a1d2b9" d="M 275.183594 233.3125 C 275.527344 233.3125 275.785156 233.054688 276.042969 232.839844 C 276.429688 232.539062 276.472656 232.023438 276.171875 231.636719 C 275.871094 231.253906 275.355469 231.210938 274.96875 231.507812 C 274.839844 231.59375 274.753906 231.679688 274.625 231.765625 C 274.238281 232.066406 274.195312 232.625 274.496094 232.96875 C 274.667969 233.226562 274.925781 233.3125 275.183594 233.3125 Z M 275.183594 233.3125 " fill-opacity="1" fill-rule="nonzero"/><path fill="#a1d2b9" d="M 282.566406 229.019531 C 282.824219 229.019531 283.039062 228.890625 283.253906 228.804688 C 283.683594 228.632812 283.941406 228.160156 283.769531 227.6875 C 283.597656 227.257812 283.125 227.003906 282.652344 227.175781 C 282.523438 227.214844 282.398438 227.257812 282.226562 227.34375 C 281.796875 227.515625 281.582031 228.03125 281.710938 228.460938 C 281.882812 228.804688 282.226562 229.019531 282.566406 229.019531 Z M 282.566406 229.019531 " fill-opacity="1" fill-rule="nonzero"/><path fill="#a1d2b9" d="M 286.6875 227.859375 C 286.902344 227.859375 287.074219 227.816406 287.289062 227.773438 C 287.761719 227.6875 288.0625 227.214844 287.976562 226.789062 C 287.890625 226.316406 287.417969 226.015625 286.988281 226.101562 C 286.859375 226.144531 286.6875 226.144531 286.558594 226.1875 C 286.089844 226.273438 285.789062 226.746094 285.875 227.214844 C 285.917969 227.558594 286.261719 227.859375 286.6875 227.859375 Z M 286.6875 227.859375 " fill-opacity="1" fill-rule="nonzero"/><g clip-path="url(#id5)"><path fill="#a1d2b9" d="M 290.9375 227.300781 C 290.9375 227.300781 291.238281 227.300781 291.410156 227.300781 C 291.882812 227.300781 292.269531 226.917969 292.226562 226.402344 C 292.226562 225.929688 291.839844 225.542969 291.324219 225.585938 C 291.195312 225.585938 291.023438 225.585938 290.894531 225.585938 C 290.425781 225.585938 290.039062 226.015625 290.082031 226.488281 C 290.082031 226.960938 290.46875 227.300781 290.9375 227.300781 Z M 290.9375 227.300781 " fill-opacity="1" fill-rule="nonzero"/></g><g clip-path="url(#id6)"><path fill="#a1d2b9" d="M 265.441406 251.816406 C 265.914062 251.859375 266.339844 251.515625 266.382812 251.042969 C 266.382812 250.914062 266.425781 250.785156 266.425781 250.613281 C 266.46875 250.140625 266.125 249.710938 265.65625 249.667969 C 265.183594 249.625 264.753906 249.96875 264.710938 250.441406 C 264.710938 250.570312 264.667969 250.742188 264.667969 250.871094 C 264.625 251.386719 264.96875 251.773438 265.441406 251.816406 Z M 265.441406 251.816406 " fill-opacity="1" fill-rule="nonzero"/></g><path fill="#a1d2b9" d="M 303.128906 276.328125 C 303.003906 276.371094 302.875 276.457031 302.746094 276.5 C 302.316406 276.710938 302.101562 277.183594 302.316406 277.613281 C 302.53125 278.042969 303.042969 278.214844 303.472656 278.042969 C 303.601562 278 303.730469 277.914062 303.859375 277.871094 C 304.289062 277.65625 304.460938 277.140625 304.246094 276.710938 C 304.074219 276.328125 303.558594 276.15625 303.128906 276.328125 Z M 303.128906 276.328125 " fill-opacity="1" fill-rule="nonzero"/><path fill="#a1d2b9" d="M 306.738281 274.265625 C 306.609375 274.351562 306.523438 274.4375 306.394531 274.480469 C 306.007812 274.738281 305.878906 275.296875 306.136719 275.683594 C 306.394531 276.070312 306.953125 276.199219 307.335938 275.941406 C 307.464844 275.855469 307.59375 275.769531 307.722656 275.683594 C 308.109375 275.425781 308.195312 274.867188 307.9375 274.480469 C 307.636719 274.09375 307.125 274.007812 306.738281 274.265625 Z M 306.738281 274.265625 " fill-opacity="1" fill-rule="nonzero"/><path fill="#a1d2b9" d="M 309.914062 271.648438 C 309.828125 271.734375 309.699219 271.820312 309.613281 271.949219 C 309.269531 272.292969 309.226562 272.804688 309.570312 273.148438 C 309.871094 273.492188 310.429688 273.492188 310.773438 273.191406 C 310.902344 273.105469 310.988281 272.976562 311.074219 272.890625 C 311.414062 272.546875 311.414062 272.035156 311.117188 271.691406 C 310.816406 271.347656 310.257812 271.304688 309.914062 271.648438 Z M 309.914062 271.648438 " fill-opacity="1" fill-rule="nonzero"/><path fill="#a1d2b9" d="M 299.265625 277.828125 C 299.136719 277.871094 299.007812 277.914062 298.882812 277.957031 C 298.410156 278.085938 298.152344 278.558594 298.28125 279.03125 C 298.367188 279.417969 298.710938 279.675781 299.09375 279.675781 C 299.179688 279.675781 299.609375 279.546875 299.738281 279.503906 C 300.210938 279.375 300.46875 278.902344 300.339844 278.429688 C 300.210938 277.957031 299.695312 277.699219 299.265625 277.828125 Z M 299.265625 277.828125 " fill-opacity="1" fill-rule="nonzero"/><path fill="#a1d2b9" d="M 316.050781 264.691406 C 315.621094 264.476562 315.109375 264.648438 314.894531 265.035156 C 314.808594 265.164062 314.765625 265.292969 314.679688 265.421875 C 314.464844 265.851562 314.59375 266.367188 315.023438 266.582031 C 315.449219 266.796875 315.964844 266.667969 316.179688 266.238281 C 316.265625 266.109375 316.308594 265.980469 316.394531 265.851562 C 316.652344 265.421875 316.480469 264.90625 316.050781 264.691406 Z M 316.050781 264.691406 " fill-opacity="1" fill-rule="nonzero"/><g clip-path="url(#id7)"><path fill="#a1d2b9" d="M 318.5 256.492188 C 318.027344 256.40625 317.597656 256.75 317.511719 257.222656 C 317.46875 257.351562 317.46875 257.480469 317.425781 257.609375 C 317.339844 258.082031 317.640625 258.511719 318.113281 258.597656 C 318.585938 258.683594 319.015625 258.382812 319.101562 257.910156 C 319.144531 257.78125 319.144531 257.609375 319.1875 257.480469 C 319.316406 257.007812 318.972656 256.578125 318.5 256.492188 Z M 318.5 256.492188 " fill-opacity="1" fill-rule="nonzero"/></g><path fill="#a1d2b9" d="M 313.992188 236.488281 C 313.691406 236.101562 313.175781 236.015625 312.789062 236.316406 C 312.402344 236.617188 312.316406 237.132812 312.617188 237.519531 C 312.703125 237.648438 312.789062 237.734375 312.875 237.863281 C 313.132812 238.25 313.691406 238.335938 314.078125 238.035156 C 314.464844 237.734375 314.550781 237.21875 314.25 236.832031 C 314.207031 236.703125 314.121094 236.617188 313.992188 236.488281 Z M 313.992188 236.488281 " fill-opacity="1" fill-rule="nonzero"/><path fill="#a1d2b9" d="M 313.90625 268.386719 C 313.519531 268.085938 313.003906 268.171875 312.703125 268.554688 C 312.617188 268.683594 312.53125 268.769531 312.445312 268.898438 C 312.144531 269.285156 312.230469 269.800781 312.617188 270.101562 C 313.003906 270.402344 313.519531 270.316406 313.820312 269.929688 C 313.90625 269.800781 313.992188 269.714844 314.078125 269.585938 C 314.335938 269.199219 314.25 268.640625 313.90625 268.386719 Z M 313.90625 268.386719 " fill-opacity="1" fill-rule="nonzero"/><path fill="#a1d2b9" d="M 311.074219 233.183594 C 310.730469 232.839844 310.171875 232.882812 309.871094 233.226562 C 309.527344 233.570312 309.570312 234.128906 309.914062 234.429688 C 310 234.515625 310.128906 234.601562 310.214844 234.730469 C 310.558594 235.074219 311.117188 235.074219 311.414062 234.730469 C 311.757812 234.386719 311.757812 233.828125 311.414062 233.527344 C 311.285156 233.398438 311.160156 233.3125 311.074219 233.183594 Z M 311.074219 233.183594 " fill-opacity="1" fill-rule="nonzero"/><g clip-path="url(#id8)"><path fill="#a1d2b9" d="M 295.1875 278.644531 C 295.058594 278.644531 294.929688 278.6875 294.761719 278.6875 C 294.289062 278.730469 293.945312 279.160156 293.988281 279.632812 C 294.03125 280.0625 294.417969 280.40625 294.84375 280.40625 C 294.886719 280.40625 295.230469 280.363281 295.359375 280.363281 C 295.832031 280.320312 296.175781 279.890625 296.089844 279.417969 C 296.089844 278.945312 295.660156 278.601562 295.1875 278.644531 Z M 295.1875 278.644531 " fill-opacity="1" fill-rule="nonzero"/></g><path fill="#a1d2b9" d="M 275.441406 272.761719 C 275.097656 272.464844 274.539062 272.507812 274.238281 272.847656 C 273.941406 273.191406 273.984375 273.75 274.324219 274.050781 C 274.453125 274.136719 274.539062 274.222656 274.667969 274.351562 C 275.011719 274.652344 275.570312 274.609375 275.871094 274.222656 C 276.171875 273.835938 276.128906 273.320312 275.742188 273.019531 C 275.65625 272.933594 275.570312 272.847656 275.441406 272.761719 Z M 275.441406 272.761719 " fill-opacity="1" fill-rule="nonzero"/><path fill="#a1d2b9" d="M 279.175781 275.382812 C 279.046875 275.296875 278.917969 275.253906 278.832031 275.167969 C 278.445312 274.910156 277.890625 275.039062 277.675781 275.46875 C 277.417969 275.855469 277.546875 276.414062 277.976562 276.628906 C 278.105469 276.710938 278.234375 276.796875 278.359375 276.839844 C 278.746094 277.054688 279.304688 276.925781 279.519531 276.542969 C 279.734375 276.15625 279.605469 275.640625 279.175781 275.382812 Z M 279.175781 275.382812 " fill-opacity="1" fill-rule="nonzero"/><path fill="#a1d2b9" d="M 282.953125 277.183594 C 282.824219 277.140625 282.695312 277.097656 282.566406 277.011719 C 282.140625 276.839844 281.625 277.054688 281.453125 277.484375 C 281.28125 277.914062 281.496094 278.429688 281.925781 278.601562 C 282.054688 278.644531 282.183594 278.730469 282.355469 278.773438 C 282.78125 278.945312 283.296875 278.730469 283.46875 278.257812 C 283.597656 277.828125 283.382812 277.355469 282.953125 277.183594 Z M 282.953125 277.183594 " fill-opacity="1" fill-rule="nonzero"/><path fill="#a1d2b9" d="M 317.640625 260.699219 C 317.167969 260.570312 316.695312 260.785156 316.566406 261.257812 C 316.523438 261.386719 316.480469 261.515625 316.4375 261.644531 C 316.265625 262.074219 316.523438 262.589844 316.953125 262.761719 C 317.382812 262.933594 317.898438 262.675781 318.070312 262.246094 C 318.113281 262.117188 318.15625 261.945312 318.199219 261.816406 C 318.328125 261.300781 318.070312 260.828125 317.640625 260.699219 Z M 317.640625 260.699219 " fill-opacity="1" fill-rule="nonzero"/><g clip-path="url(#id9)"><path fill="#a1d2b9" d="M 286.945312 278.34375 C 286.816406 278.300781 286.6875 278.300781 286.558594 278.257812 C 286.089844 278.171875 285.660156 278.429688 285.53125 278.902344 C 285.445312 279.375 285.703125 279.804688 286.175781 279.933594 C 286.304688 279.976562 286.730469 280.0625 286.773438 280.0625 C 287.160156 280.0625 287.546875 279.761719 287.632812 279.375 C 287.71875 278.859375 287.417969 278.429688 286.945312 278.34375 Z M 286.945312 278.34375 " fill-opacity="1" fill-rule="nonzero"/></g><g clip-path="url(#id10)"><path fill="#a1d2b9" d="M 318.714844 252.113281 C 318.242188 252.113281 317.855469 252.5 317.855469 252.972656 C 317.855469 252.972656 317.855469 253.359375 317.855469 253.488281 C 317.855469 253.960938 318.242188 254.347656 318.714844 254.347656 C 319.1875 254.347656 319.570312 253.960938 319.570312 253.488281 C 319.570312 253.359375 319.570312 252.972656 319.570312 252.972656 C 319.570312 252.5 319.1875 252.113281 318.714844 252.113281 Z M 318.714844 252.113281 " fill-opacity="1" fill-rule="nonzero"/></g><g clip-path="url(#id11)"><path fill="#a1d2b9" d="M 291.066406 278.816406 C 290.9375 278.816406 290.808594 278.816406 290.640625 278.816406 C 290.167969 278.816406 289.78125 279.160156 289.738281 279.632812 C 289.695312 280.105469 290.082031 280.492188 290.554688 280.535156 C 290.679688 280.535156 291.023438 280.578125 291.023438 280.578125 C 291.496094 280.578125 291.882812 280.234375 291.882812 279.761719 C 291.882812 279.246094 291.539062 278.816406 291.066406 278.816406 Z M 291.066406 278.816406 " fill-opacity="1" fill-rule="nonzero"/></g><g clip-path="url(#id12)"><path fill="#a1d2b9" d="M 271.738281 255.699219 C 271.738281 255.597656 271.738281 255.492188 271.703125 255.351562 C 271.667969 254.96875 271.351562 254.6875 270.96875 254.6875 C 270.582031 254.722656 270.304688 255.035156 270.304688 255.421875 C 270.304688 255.527344 270.304688 255.664062 270.339844 255.769531 C 270.375 256.15625 270.722656 256.433594 271.105469 256.398438 C 271.457031 256.433594 271.769531 256.085938 271.738281 255.699219 Z M 271.738281 255.699219 " fill-opacity="1" fill-rule="nonzero"/></g><path fill="#a1d2b9" d="M 272.402344 246.160156 C 272.75 246.300781 273.167969 246.125 273.308594 245.773438 C 273.34375 245.703125 273.414062 245.601562 273.449219 245.496094 C 273.625 245.144531 273.449219 244.726562 273.097656 244.585938 C 272.75 244.445312 272.332031 244.585938 272.191406 244.9375 C 272.15625 245.039062 272.085938 245.144531 272.050781 245.285156 C 271.875 245.601562 272.050781 246.019531 272.402344 246.160156 Z M 272.402344 246.160156 " fill-opacity="1" fill-rule="nonzero"/><g clip-path="url(#id13)"><path fill="#a1d2b9" d="M 271.421875 249.515625 C 271.804688 249.621094 272.191406 249.375 272.261719 248.992188 C 272.296875 248.886719 272.332031 248.78125 272.332031 248.675781 C 272.433594 248.292969 272.191406 247.90625 271.839844 247.835938 C 271.457031 247.730469 271.074219 247.976562 271.003906 248.328125 C 270.96875 248.429688 270.933594 248.570312 270.898438 248.675781 C 270.792969 249.058594 271.039062 249.445312 271.421875 249.515625 Z M 271.421875 249.515625 " fill-opacity="1" fill-rule="nonzero"/></g><g clip-path="url(#id14)"><path fill="#a1d2b9" d="M 272.261719 259.054688 C 272.226562 258.953125 272.191406 258.847656 272.191406 258.742188 C 272.121094 258.355469 271.738281 258.113281 271.351562 258.183594 C 270.96875 258.253906 270.757812 258.636719 270.828125 259.019531 C 270.863281 259.125 270.898438 259.265625 270.898438 259.371094 C 271.003906 259.753906 271.386719 259.964844 271.738281 259.894531 C 272.121094 259.789062 272.367188 259.40625 272.261719 259.054688 Z M 272.261719 259.054688 " fill-opacity="1" fill-rule="nonzero"/></g><path fill="#a1d2b9" d="M 276.105469 238.925781 C 276.035156 239.03125 275.929688 239.097656 275.859375 239.203125 C 275.617188 239.484375 275.617188 239.9375 275.929688 240.183594 C 276.210938 240.425781 276.664062 240.390625 276.910156 240.113281 C 276.980469 240.042969 277.050781 239.9375 277.117188 239.867188 C 277.363281 239.589844 277.363281 239.132812 277.082031 238.890625 C 276.804688 238.609375 276.351562 238.644531 276.105469 238.925781 Z M 276.105469 238.925781 " fill-opacity="1" fill-rule="nonzero"/><path fill="#a1d2b9" d="M 276.734375 267.652344 C 276.488281 267.375 276.035156 267.339844 275.753906 267.585938 C 275.476562 267.828125 275.441406 268.28125 275.6875 268.5625 C 275.753906 268.667969 275.824219 268.738281 275.929688 268.84375 C 276.175781 269.121094 276.628906 269.15625 276.910156 268.914062 C 277.1875 268.667969 277.222656 268.214844 276.980469 267.933594 C 276.875 267.828125 276.804688 267.757812 276.734375 267.652344 Z M 276.734375 267.652344 " fill-opacity="1" fill-rule="nonzero"/><path fill="#a1d2b9" d="M 273.203125 261.921875 C 273.066406 261.574219 272.644531 261.398438 272.296875 261.539062 C 271.945312 261.675781 271.769531 262.097656 271.910156 262.445312 C 271.945312 262.550781 272.015625 262.65625 272.050781 262.761719 C 272.191406 263.109375 272.609375 263.285156 272.960938 263.144531 C 273.308594 263.003906 273.484375 262.585938 273.34375 262.238281 C 273.308594 262.132812 273.238281 262.027344 273.203125 261.921875 Z M 273.203125 261.921875 " fill-opacity="1" fill-rule="nonzero"/><path fill="#a1d2b9" d="M 274.742188 264.929688 C 274.53125 264.613281 274.113281 264.507812 273.761719 264.683594 C 273.449219 264.894531 273.34375 265.3125 273.519531 265.660156 C 273.589844 265.765625 273.660156 265.871094 273.695312 265.976562 C 273.902344 266.289062 274.324219 266.394531 274.671875 266.1875 C 274.988281 265.976562 275.089844 265.558594 274.882812 265.207031 C 274.847656 265.136719 274.8125 265.03125 274.742188 264.929688 Z M 274.742188 264.929688 " fill-opacity="1" fill-rule="nonzero"/><path fill="#a1d2b9" d="M 274.882812 241.546875 C 274.566406 241.335938 274.113281 241.441406 273.902344 241.753906 C 273.832031 241.859375 273.761719 241.964844 273.695312 242.070312 C 273.484375 242.382812 273.589844 242.839844 273.902344 243.046875 C 274.21875 243.257812 274.671875 243.152344 274.882812 242.839844 C 274.953125 242.734375 274.988281 242.664062 275.058594 242.558594 C 275.265625 242.210938 275.195312 241.753906 274.882812 241.546875 Z M 274.882812 241.546875 " fill-opacity="1" fill-rule="nonzero"/><path fill="#a1d2b9" d="M 311.371094 244.480469 C 311.546875 244.832031 311.964844 244.972656 312.3125 244.796875 C 312.664062 244.621094 312.804688 244.203125 312.628906 243.851562 C 312.558594 243.746094 312.523438 243.644531 312.453125 243.539062 C 312.28125 243.1875 311.859375 243.046875 311.511719 243.257812 C 311.160156 243.433594 311.054688 243.851562 311.230469 244.203125 C 311.265625 244.273438 311.300781 244.375 311.371094 244.480469 Z M 311.371094 244.480469 " fill-opacity="1" fill-rule="nonzero"/><path fill="#a1d2b9" d="M 298.4375 233.820312 C 298.542969 233.855469 298.648438 233.890625 298.753906 233.925781 C 299.101562 234.03125 299.523438 233.820312 299.628906 233.472656 C 299.730469 233.085938 299.523438 232.703125 299.171875 232.597656 C 299.066406 232.5625 298.929688 232.527344 298.824219 232.492188 C 298.4375 232.386719 298.054688 232.597656 297.949219 232.984375 C 297.84375 233.332031 298.054688 233.714844 298.4375 233.820312 Z M 298.4375 233.820312 " fill-opacity="1" fill-rule="nonzero"/><path fill="#a1d2b9" d="M 301.585938 235.011719 C 301.6875 235.042969 301.792969 235.113281 301.898438 235.148438 C 302.25 235.324219 302.667969 235.183594 302.84375 234.835938 C 303.015625 234.484375 302.878906 234.066406 302.527344 233.890625 C 302.421875 233.820312 302.320312 233.785156 302.214844 233.75 C 301.863281 233.578125 301.445312 233.75 301.269531 234.101562 C 301.09375 234.414062 301.234375 234.835938 301.585938 235.011719 Z M 301.585938 235.011719 " fill-opacity="1" fill-rule="nonzero"/><path fill="#a1d2b9" d="M 304.519531 236.6875 C 304.625 236.757812 304.695312 236.828125 304.800781 236.898438 C 305.113281 237.105469 305.570312 237.039062 305.777344 236.722656 C 305.988281 236.40625 305.917969 235.988281 305.605469 235.742188 C 305.5 235.675781 305.394531 235.605469 305.324219 235.535156 C 305.007812 235.324219 304.554688 235.394531 304.34375 235.707031 C 304.136719 236.023438 304.207031 236.476562 304.519531 236.6875 Z M 304.519531 236.6875 " fill-opacity="1" fill-rule="nonzero"/><path fill="#a1d2b9" d="M 313.363281 250.5625 C 313.398438 250.667969 313.398438 250.773438 313.433594 250.914062 C 313.503906 251.296875 313.851562 251.542969 314.238281 251.507812 C 314.621094 251.4375 314.867188 251.085938 314.832031 250.703125 C 314.832031 250.597656 314.796875 250.457031 314.761719 250.351562 C 314.691406 249.96875 314.339844 249.722656 313.957031 249.757812 C 313.574219 249.828125 313.292969 250.179688 313.363281 250.5625 Z M 313.363281 250.5625 " fill-opacity="1" fill-rule="nonzero"/><path fill="#a1d2b9" d="M 312.558594 247.277344 C 312.59375 247.382812 312.628906 247.488281 312.664062 247.59375 C 312.769531 247.941406 313.1875 248.152344 313.539062 248.046875 C 313.921875 247.941406 314.097656 247.523438 313.992188 247.171875 C 313.957031 247.066406 313.921875 246.929688 313.886719 246.824219 C 313.746094 246.472656 313.363281 246.265625 313.011719 246.367188 C 312.628906 246.507812 312.417969 246.929688 312.558594 247.277344 Z M 312.558594 247.277344 " fill-opacity="1" fill-rule="nonzero"/><g clip-path="url(#id15)"><path fill="#a1d2b9" d="M 295.117188 233.15625 C 295.222656 233.15625 295.503906 233.191406 295.539062 233.191406 C 295.886719 233.191406 296.167969 232.949219 296.238281 232.597656 C 296.273438 232.214844 296.027344 231.863281 295.644531 231.828125 C 295.539062 231.828125 295.398438 231.792969 295.292969 231.792969 C 294.910156 231.757812 294.558594 232.039062 294.523438 232.421875 C 294.453125 232.773438 294.734375 233.121094 295.117188 233.15625 Z M 295.117188 233.15625 " fill-opacity="1" fill-rule="nonzero"/></g><path fill="#a1d2b9" d="M 281.765625 235.917969 C 282.011719 235.917969 282.222656 235.777344 282.394531 235.675781 C 282.746094 235.5 282.851562 235.042969 282.675781 234.730469 C 282.5 234.378906 282.046875 234.277344 281.730469 234.449219 C 281.628906 234.519531 281.523438 234.554688 281.417969 234.625 C 281.066406 234.835938 280.964844 235.253906 281.171875 235.570312 C 281.277344 235.8125 281.523438 235.917969 281.765625 235.917969 Z M 281.765625 235.917969 " fill-opacity="1" fill-rule="nonzero"/><path fill="#a1d2b9" d="M 278.902344 237.910156 C 279.179688 237.910156 279.390625 237.703125 279.601562 237.527344 C 279.914062 237.28125 279.949219 236.863281 279.707031 236.546875 C 279.460938 236.234375 279.042969 236.199219 278.726562 236.441406 C 278.621094 236.511719 278.550781 236.582031 278.445312 236.652344 C 278.132812 236.898438 278.097656 237.351562 278.34375 237.632812 C 278.480469 237.839844 278.691406 237.910156 278.902344 237.910156 Z M 278.902344 237.910156 " fill-opacity="1" fill-rule="nonzero"/><path fill="#a1d2b9" d="M 284.914062 234.414062 C 285.121094 234.414062 285.296875 234.3125 285.472656 234.242188 C 285.820312 234.101562 286.03125 233.714844 285.890625 233.332031 C 285.75 232.984375 285.367188 232.773438 284.984375 232.914062 C 284.878906 232.949219 284.773438 232.984375 284.632812 233.050781 C 284.285156 233.191406 284.109375 233.613281 284.214844 233.960938 C 284.355469 234.242188 284.632812 234.414062 284.914062 234.414062 Z M 284.914062 234.414062 " fill-opacity="1" fill-rule="nonzero"/><path fill="#a1d2b9" d="M 288.269531 233.472656 C 288.441406 233.472656 288.582031 233.4375 288.757812 233.402344 C 289.140625 233.332031 289.386719 232.949219 289.316406 232.597656 C 289.246094 232.214844 288.863281 231.96875 288.511719 232.039062 C 288.40625 232.074219 288.269531 232.074219 288.164062 232.109375 C 287.777344 232.179688 287.535156 232.5625 287.605469 232.949219 C 287.640625 233.226562 287.917969 233.472656 288.269531 233.472656 Z M 288.269531 233.472656 " fill-opacity="1" fill-rule="nonzero"/><g clip-path="url(#id16)"><path fill="#a1d2b9" d="M 291.726562 233.019531 C 291.726562 233.019531 291.972656 233.019531 292.113281 233.019531 C 292.496094 233.019531 292.8125 232.703125 292.777344 232.285156 C 292.777344 231.898438 292.460938 231.585938 292.042969 231.621094 C 291.9375 231.621094 291.796875 231.621094 291.695312 231.621094 C 291.308594 231.621094 290.996094 231.96875 291.03125 232.355469 C 291.03125 232.738281 291.34375 233.019531 291.726562 233.019531 Z M 291.726562 233.019531 " fill-opacity="1" fill-rule="nonzero"/></g><g clip-path="url(#id17)"><path fill="#a1d2b9" d="M 270.96875 252.976562 C 271.351562 253.007812 271.703125 252.730469 271.738281 252.34375 C 271.738281 252.242188 271.769531 252.136719 271.769531 251.996094 C 271.804688 251.613281 271.527344 251.261719 271.140625 251.226562 C 270.757812 251.191406 270.410156 251.472656 270.375 251.855469 C 270.375 251.960938 270.339844 252.101562 270.339844 252.207031 C 270.304688 252.625 270.582031 252.941406 270.96875 252.976562 Z M 270.96875 252.976562 " fill-opacity="1" fill-rule="nonzero"/></g><path fill="#a1d2b9" d="M 301.65625 272.933594 C 301.550781 272.964844 301.445312 273.035156 301.339844 273.070312 C 300.992188 273.246094 300.816406 273.628906 300.992188 273.980469 C 301.164062 274.328125 301.585938 274.46875 301.933594 274.328125 C 302.039062 274.292969 302.144531 274.226562 302.25 274.191406 C 302.597656 274.015625 302.738281 273.597656 302.5625 273.246094 C 302.421875 272.933594 302.003906 272.792969 301.65625 272.933594 Z M 301.65625 272.933594 " fill-opacity="1" fill-rule="nonzero"/><path fill="#a1d2b9" d="M 304.589844 271.253906 C 304.484375 271.324219 304.414062 271.394531 304.3125 271.429688 C 303.996094 271.636719 303.890625 272.09375 304.101562 272.40625 C 304.3125 272.722656 304.765625 272.828125 305.078125 272.617188 C 305.183594 272.546875 305.289062 272.476562 305.394531 272.40625 C 305.707031 272.199219 305.777344 271.742188 305.570312 271.429688 C 305.324219 271.113281 304.90625 271.042969 304.589844 271.253906 Z M 304.589844 271.253906 " fill-opacity="1" fill-rule="nonzero"/><path fill="#a1d2b9" d="M 307.175781 269.121094 C 307.105469 269.191406 307 269.261719 306.933594 269.367188 C 306.652344 269.644531 306.617188 270.066406 306.898438 270.34375 C 307.140625 270.625 307.597656 270.625 307.875 270.378906 C 307.980469 270.308594 308.050781 270.207031 308.121094 270.136719 C 308.398438 269.855469 308.398438 269.4375 308.15625 269.15625 C 307.910156 268.878906 307.457031 268.84375 307.175781 269.121094 Z M 307.175781 269.121094 " fill-opacity="1" fill-rule="nonzero"/><path fill="#a1d2b9" d="M 298.507812 274.15625 C 298.402344 274.191406 298.300781 274.226562 298.195312 274.261719 C 297.808594 274.363281 297.601562 274.75 297.703125 275.132812 C 297.773438 275.449219 298.054688 275.65625 298.367188 275.65625 C 298.4375 275.65625 298.789062 275.554688 298.894531 275.519531 C 299.277344 275.414062 299.488281 275.027344 299.382812 274.644531 C 299.277344 274.261719 298.859375 274.050781 298.507812 274.15625 Z M 298.507812 274.15625 " fill-opacity="1" fill-rule="nonzero"/><path fill="#a1d2b9" d="M 312.175781 263.460938 C 311.824219 263.285156 311.40625 263.425781 311.230469 263.738281 C 311.160156 263.84375 311.125 263.949219 311.054688 264.054688 C 310.882812 264.402344 310.984375 264.824219 311.335938 264.996094 C 311.683594 265.171875 312.105469 265.066406 312.28125 264.71875 C 312.347656 264.613281 312.382812 264.507812 312.453125 264.402344 C 312.664062 264.054688 312.523438 263.632812 312.175781 263.460938 Z M 312.175781 263.460938 " fill-opacity="1" fill-rule="nonzero"/><path fill="#a1d2b9" d="M 314.167969 256.785156 C 313.78125 256.714844 313.433594 256.992188 313.363281 257.378906 C 313.328125 257.484375 313.328125 257.589844 313.292969 257.691406 C 313.222656 258.078125 313.46875 258.425781 313.851562 258.496094 C 314.238281 258.566406 314.585938 258.320312 314.65625 257.9375 C 314.691406 257.832031 314.691406 257.691406 314.726562 257.589844 C 314.832031 257.203125 314.550781 256.855469 314.167969 256.785156 Z M 314.167969 256.785156 " fill-opacity="1" fill-rule="nonzero"/><path fill="#a1d2b9" d="M 310.496094 240.496094 C 310.253906 240.183594 309.832031 240.113281 309.519531 240.359375 C 309.203125 240.601562 309.132812 241.023438 309.378906 241.335938 C 309.449219 241.441406 309.519531 241.511719 309.589844 241.617188 C 309.796875 241.929688 310.253906 242 310.566406 241.753906 C 310.882812 241.511719 310.953125 241.089844 310.707031 240.777344 C 310.671875 240.671875 310.601562 240.601562 310.496094 240.496094 Z M 310.496094 240.496094 " fill-opacity="1" fill-rule="nonzero"/><path fill="#a1d2b9" d="M 310.425781 266.464844 C 310.113281 266.222656 309.691406 266.289062 309.449219 266.605469 C 309.378906 266.710938 309.308594 266.78125 309.238281 266.886719 C 308.992188 267.199219 309.0625 267.617188 309.378906 267.863281 C 309.691406 268.109375 310.113281 268.039062 310.355469 267.722656 C 310.425781 267.617188 310.496094 267.550781 310.566406 267.445312 C 310.777344 267.128906 310.707031 266.675781 310.425781 266.464844 Z M 310.425781 266.464844 " fill-opacity="1" fill-rule="nonzero"/><path fill="#a1d2b9" d="M 308.121094 237.804688 C 307.839844 237.527344 307.386719 237.5625 307.140625 237.839844 C 306.863281 238.121094 306.898438 238.574219 307.175781 238.820312 C 307.246094 238.890625 307.351562 238.960938 307.421875 239.0625 C 307.699219 239.34375 308.15625 239.34375 308.398438 239.0625 C 308.679688 238.785156 308.679688 238.332031 308.398438 238.085938 C 308.296875 237.980469 308.191406 237.910156 308.121094 237.804688 Z M 308.121094 237.804688 " fill-opacity="1" fill-rule="nonzero"/><g clip-path="url(#id18)"><path fill="#a1d2b9" d="M 295.1875 274.820312 C 295.082031 274.820312 294.980469 274.855469 294.839844 274.855469 C 294.453125 274.890625 294.175781 275.238281 294.210938 275.621094 C 294.246094 275.972656 294.558594 276.253906 294.910156 276.253906 C 294.945312 276.253906 295.222656 276.21875 295.328125 276.21875 C 295.710938 276.183594 295.992188 275.832031 295.921875 275.449219 C 295.921875 275.0625 295.574219 274.785156 295.1875 274.820312 Z M 295.1875 274.820312 " fill-opacity="1" fill-rule="nonzero"/></g><path fill="#a1d2b9" d="M 279.109375 270.03125 C 278.832031 269.785156 278.378906 269.820312 278.132812 270.101562 C 277.886719 270.378906 277.921875 270.835938 278.203125 271.078125 C 278.308594 271.148438 278.378906 271.21875 278.480469 271.324219 C 278.761719 271.570312 279.214844 271.535156 279.460938 271.21875 C 279.707031 270.90625 279.671875 270.484375 279.355469 270.242188 C 279.285156 270.171875 279.214844 270.101562 279.109375 270.03125 Z M 279.109375 270.03125 " fill-opacity="1" fill-rule="nonzero"/><path fill="#a1d2b9" d="M 282.152344 272.164062 C 282.046875 272.09375 281.941406 272.058594 281.871094 271.988281 C 281.558594 271.777344 281.101562 271.882812 280.929688 272.234375 C 280.71875 272.546875 280.824219 273 281.171875 273.175781 C 281.277344 273.246094 281.382812 273.316406 281.488281 273.351562 C 281.800781 273.527344 282.257812 273.421875 282.429688 273.105469 C 282.605469 272.792969 282.5 272.371094 282.152344 272.164062 Z M 282.152344 272.164062 " fill-opacity="1" fill-rule="nonzero"/><path fill="#a1d2b9" d="M 285.226562 273.628906 C 285.121094 273.597656 285.019531 273.5625 284.914062 273.492188 C 284.5625 273.351562 284.144531 273.527344 284.003906 273.875 C 283.863281 274.226562 284.039062 274.644531 284.390625 274.785156 C 284.492188 274.820312 284.597656 274.890625 284.738281 274.925781 C 285.085938 275.0625 285.507812 274.890625 285.648438 274.503906 C 285.75 274.15625 285.578125 273.769531 285.226562 273.628906 Z M 285.226562 273.628906 " fill-opacity="1" fill-rule="nonzero"/><path fill="#a1d2b9" d="M 313.46875 260.210938 C 313.082031 260.105469 312.699219 260.28125 312.59375 260.664062 C 312.558594 260.769531 312.523438 260.875 312.488281 260.976562 C 312.347656 261.328125 312.558594 261.746094 312.910156 261.886719 C 313.257812 262.027344 313.675781 261.816406 313.816406 261.46875 C 313.851562 261.363281 313.886719 261.222656 313.921875 261.117188 C 314.027344 260.699219 313.816406 260.3125 313.46875 260.210938 Z M 313.46875 260.210938 " fill-opacity="1" fill-rule="nonzero"/><path fill="#a1d2b9" d="M 288.476562 274.574219 C 288.375 274.539062 288.269531 274.539062 288.164062 274.503906 C 287.777344 274.433594 287.429688 274.644531 287.324219 275.027344 C 287.253906 275.414062 287.464844 275.761719 287.847656 275.867188 C 287.953125 275.902344 288.304688 275.972656 288.339844 275.972656 C 288.652344 275.972656 288.96875 275.726562 289.039062 275.414062 C 289.105469 274.992188 288.863281 274.644531 288.476562 274.574219 Z M 288.476562 274.574219 " fill-opacity="1" fill-rule="nonzero"/><g clip-path="url(#id19)"><path fill="#a1d2b9" d="M 314.339844 253.21875 C 313.957031 253.21875 313.640625 253.535156 313.640625 253.917969 C 313.640625 253.917969 313.640625 254.234375 313.640625 254.335938 C 313.640625 254.722656 313.957031 255.035156 314.339844 255.035156 C 314.726562 255.035156 315.039062 254.722656 315.039062 254.335938 C 315.039062 254.234375 315.039062 253.917969 315.039062 253.917969 C 315.039062 253.535156 314.726562 253.21875 314.339844 253.21875 Z M 314.339844 253.21875 " fill-opacity="1" fill-rule="nonzero"/></g><g clip-path="url(#id20)"><path fill="#a1d2b9" d="M 291.832031 274.957031 C 291.726562 274.957031 291.625 274.957031 291.484375 274.957031 C 291.097656 274.957031 290.785156 275.238281 290.75 275.621094 C 290.714844 276.007812 291.03125 276.320312 291.414062 276.355469 C 291.519531 276.355469 291.796875 276.390625 291.796875 276.390625 C 292.183594 276.390625 292.496094 276.113281 292.496094 275.726562 C 292.496094 275.308594 292.21875 274.957031 291.832031 274.957031 Z M 291.832031 274.957031 " fill-opacity="1" fill-rule="nonzero"/></g></svg>