<svg xmlns="http://www.w3.org/2000/svg" xmlns:xlink="http://www.w3.org/1999/xlink" width="800" zoomAndPan="magnify" viewBox="0 0 600 599.999999" height="800" preserveAspectRatio="xMidYMid meet" version="1.0"><defs><g/><clipPath id="id1"><path d="M 279.710938 234.496094 L 329.976562 234.496094 L 329.976562 284.765625 L 279.710938 284.765625 Z M 279.710938 234.496094 " clip-rule="nonzero"/></clipPath><clipPath id="id2"><path d="M 270.050781 262 L 272 262 L 272 265 L 270.050781 265 Z M 270.050781 262 " clip-rule="nonzero"/></clipPath><clipPath id="id3"><path d="M 270.050781 254 L 273 254 L 273 257 L 270.050781 257 Z M 270.050781 254 " clip-rule="nonzero"/></clipPath><clipPath id="id4"><path d="M 270.050781 267 L 273 267 L 273 270 L 270.050781 270 Z M 270.050781 267 " clip-rule="nonzero"/></clipPath><clipPath id="id5"><path d="M 299 234.496094 L 302 234.496094 L 302 237 L 299 237 Z M 299 234.496094 " clip-rule="nonzero"/></clipPath><clipPath id="id6"><path d="M 295 234.496094 L 298 234.496094 L 298 237 L 295 237 Z M 295 234.496094 " clip-rule="nonzero"/></clipPath><clipPath id="id7"><path d="M 270.050781 258 L 272 258 L 272 261 L 270.050781 261 Z M 270.050781 258 " clip-rule="nonzero"/></clipPath><clipPath id="id8"><path d="M 299 287 L 302 287 L 302 289.53125 L 299 289.53125 Z M 299 287 " clip-rule="nonzero"/></clipPath><clipPath id="id9"><path d="M 290 287 L 294 287 L 294 289.53125 L 290 289.53125 Z M 290 287 " clip-rule="nonzero"/></clipPath><clipPath id="id10"><path d="M 323 261 L 325.082031 261 L 325.082031 264 L 323 264 Z M 323 261 " clip-rule="nonzero"/></clipPath><clipPath id="id11"><path d="M 295 287 L 298 287 L 298 289.53125 L 295 289.53125 Z M 295 287 " clip-rule="nonzero"/></clipPath><clipPath id="id12"><path d="M 275.738281 263 L 278 263 L 278 266 L 275.738281 266 Z M 275.738281 263 " clip-rule="nonzero"/></clipPath><clipPath id="id13"><path d="M 318 258 L 320.542969 258 L 320.542969 261 L 318 261 Z M 318 258 " clip-rule="nonzero"/></clipPath><clipPath id="id14"><path d="M 299 240.539062 L 302 240.539062 L 302 243 L 299 243 Z M 299 240.539062 " clip-rule="nonzero"/></clipPath><clipPath id="id15"><path d="M 293 240.539062 L 295 240.539062 L 295 243 L 293 243 Z M 293 240.539062 " clip-rule="nonzero"/></clipPath><clipPath id="id16"><path d="M 296 240.539062 L 299 240.539062 L 299 242 L 296 242 Z M 296 240.539062 " clip-rule="nonzero"/></clipPath><clipPath id="id17"><path d="M 275.738281 260 L 278 260 L 278 262 L 275.738281 262 Z M 275.738281 260 " clip-rule="nonzero"/></clipPath><clipPath id="id18"><path d="M 318 265 L 320.542969 265 L 320.542969 268 L 318 268 Z M 318 265 " clip-rule="nonzero"/></clipPath><clipPath id="id19"><path d="M 299 283 L 302 283 L 302 285.347656 L 299 285.347656 Z M 299 283 " clip-rule="nonzero"/></clipPath><clipPath id="id20"><path d="M 319 262 L 320.542969 262 L 320.542969 264 L 319 264 Z M 319 262 " clip-rule="nonzero"/></clipPath><clipPath id="id21"><path d="M 296 283 L 298 283 L 298 285.347656 L 296 285.347656 Z M 296 283 " clip-rule="nonzero"/></clipPath></defs><g fill="#a1d2b9" fill-opacity="1"><g transform="translate(274.256135, 317.654538)"><g><path d="M 17.710938 0 C 15.328125 -4.644531 13.007812 -9.367188 10.777344 -14.015625 C 9.863281 -13.882812 8.359375 -13.921875 7.464844 -14.015625 C 5.253906 -9.367188 2.96875 -4.644531 0.589844 0 L 2.835938 0 L 4.417969 -3.390625 C 7.21875 -3.425781 11.121094 -3.425781 13.882812 -3.390625 C 14.339844 -2.34375 14.777344 -1.332031 15.386719 0 Z M 5.007812 -4.664062 C 6.417969 -7.691406 7.828125 -10.703125 9.0625 -13.023438 C 11.367188 -8.757812 12.492188 -6.472656 13.3125 -4.664062 C 10.835938 -4.628906 7.523438 -4.628906 5.007812 -4.664062 Z M 5.007812 -4.664062 "/></g></g></g><g fill="#a1d2b9" fill-opacity="1"><g transform="translate(292.545086, 317.654538)"><g><path d="M 12.53125 -10.28125 C 11.902344 -10.113281 11.179688 -10.054688 10.53125 -10.054688 L 10.53125 -6 C 10.53125 -3.542969 9.351562 -1.3125 6.167969 -1.3125 C 3.980469 -1.3125 3.066406 -2.894531 3.066406 -5.066406 L 3.066406 -10.28125 C 2.398438 -10.113281 1.847656 -10.054688 1.179688 -10.054688 C 1.351562 -8.285156 1.3125 -6.226562 1.3125 -4.304688 C 1.3125 -1.886719 2.246094 0.171875 5.273438 0.171875 C 8.035156 0.171875 9.921875 -1.390625 10.585938 -3.828125 L 10.738281 -3.828125 C 10.703125 -2.664062 10.605469 -1.332031 10.433594 0 L 12.53125 0 C 12.300781 -5.085938 12.320312 -7.332031 12.53125 -10.28125 Z M 12.53125 -10.28125 "/></g></g></g><g fill="#a1d2b9" fill-opacity="1"><g transform="translate(306.590087, 317.654538)"><g><path d="M 6.96875 0.210938 C 10.433594 0.210938 12.550781 -0.683594 12.550781 -2.875 C 12.550781 -7.597656 2.855469 -3.867188 2.855469 -7.273438 C 2.855469 -8.589844 4.113281 -9.179688 6.703125 -9.179688 C 8.777344 -9.179688 10.570312 -8.664062 11.996094 -7.960938 C 11.863281 -8.625 11.84375 -9.121094 11.976562 -9.578125 C 10.246094 -10.09375 8.816406 -10.417969 6.796875 -10.417969 C 4.683594 -10.417969 1.007812 -10.1875 1.007812 -7.273438 C 1.007812 -2.589844 10.664062 -6.152344 10.664062 -2.914062 C 10.664062 -1.714844 9.351562 -1.085938 6.914062 -1.085938 C 4.914062 -1.085938 2.4375 -1.636719 1.238281 -2.589844 C 1.371094 -2.171875 1.371094 -1.429688 1.238281 -0.972656 C 2.78125 -0.171875 4.988281 0.210938 6.96875 0.210938 Z M 6.96875 0.210938 "/></g></g></g><g fill="#a1d2b9" fill-opacity="1"><g transform="translate(320.017852, 317.654538)"><g/></g></g><g fill="#a1d2b9" fill-opacity="1"><g transform="translate(252.18973, 336.404538)"><g><path d="M 10.359375 0.226562 C 16.167969 0.226562 19.59375 -2.457031 19.59375 -7.007812 C 19.59375 -11.617188 16.167969 -14.261719 10.359375 -14.261719 C 4.53125 -14.261719 1.105469 -11.636719 1.105469 -7.007812 C 1.105469 -2.457031 4.550781 0.226562 10.359375 0.226562 Z M 10.359375 -1.140625 C 5.808594 -1.140625 3.121094 -3.238281 3.121094 -6.96875 C 3.121094 -10.683594 5.808594 -12.910156 10.359375 -12.910156 C 14.835938 -12.910156 17.59375 -10.683594 17.59375 -6.96875 C 17.59375 -3.238281 14.835938 -1.140625 10.359375 -1.140625 Z M 10.359375 -1.140625 "/></g></g></g><g fill="#a1d2b9" fill-opacity="1"><g transform="translate(272.876607, 336.404538)"><g><path d="M 12.53125 -10.28125 C 11.902344 -10.113281 11.179688 -10.054688 10.53125 -10.054688 L 10.53125 -6 C 10.53125 -3.542969 9.351562 -1.3125 6.167969 -1.3125 C 3.980469 -1.3125 3.066406 -2.894531 3.066406 -5.066406 L 3.066406 -10.28125 C 2.398438 -10.113281 1.847656 -10.054688 1.179688 -10.054688 C 1.351562 -8.285156 1.3125 -6.226562 1.3125 -4.304688 C 1.3125 -1.886719 2.246094 0.171875 5.273438 0.171875 C 8.035156 0.171875 9.921875 -1.390625 10.585938 -3.828125 L 10.738281 -3.828125 C 10.703125 -2.664062 10.605469 -1.332031 10.433594 0 L 12.53125 0 C 12.300781 -5.085938 12.320312 -7.332031 12.53125 -10.28125 Z M 12.53125 -10.28125 "/></g></g></g><g fill="#a1d2b9" fill-opacity="1"><g transform="translate(286.921608, 336.404538)"><g><path d="M 10.417969 -10.167969 C 9.101562 -7.253906 7.828125 -4.132812 6.339844 -0.953125 C 4.914062 -3.960938 3.578125 -7.253906 2.246094 -10.167969 C 1.597656 -10.054688 0.875 -10.074219 0.113281 -10.167969 C 1.921875 -6.722656 3.503906 -3.410156 5.046875 0 L 7.578125 0 C 9.578125 -4.246094 10.585938 -6.550781 12.511719 -10.167969 C 11.75 -10.054688 11.082031 -10.074219 10.417969 -10.167969 Z M 10.417969 -10.167969 "/></g></g></g><g fill="#a1d2b9" fill-opacity="1"><g transform="translate(299.520237, 336.404538)"><g><path d="M 2.648438 -12.1875 C 3.636719 -12.1875 4.152344 -12.472656 4.152344 -13.140625 C 4.152344 -13.804688 3.636719 -14.109375 2.648438 -14.109375 C 1.75 -14.109375 1.277344 -13.804688 1.277344 -13.140625 C 1.277344 -12.472656 1.75 -12.1875 2.648438 -12.1875 Z M 1.695312 -10.167969 C 1.828125 -6.722656 1.828125 -3.425781 1.695312 0 L 3.675781 0 C 3.542969 -3.445312 3.542969 -6.722656 3.675781 -10.167969 C 2.96875 -10.054688 2.417969 -10.074219 1.695312 -10.167969 Z M 1.695312 -10.167969 "/></g></g></g><g fill="#a1d2b9" fill-opacity="1"><g transform="translate(304.944118, 336.404538)"><g><path d="M 13.347656 -15.0625 C 12.816406 -14.871094 11.824219 -14.777344 11.195312 -14.738281 C 11.292969 -13.480469 11.367188 -9.386719 11.40625 -6.609375 L 11.253906 -6.609375 C 10.511719 -8.625 9.007812 -10.417969 6.132812 -10.417969 C 3.027344 -10.417969 0.953125 -8.320312 0.953125 -5.292969 C 0.953125 -2.054688 3.105469 0.265625 6.761719 0.265625 C 8.96875 0.265625 10.644531 -0.820312 11.445312 -2.609375 C 11.425781 -1.695312 11.40625 -0.855469 11.347656 0 L 13.234375 0 C 13.007812 -1.980469 12.988281 -12.28125 13.347656 -15.0625 Z M 7.3125 -0.914062 C 4.914062 -0.914062 2.835938 -2.324219 2.835938 -5.179688 C 2.835938 -7.484375 4.359375 -9.082031 6.777344 -9.082031 C 10.722656 -9.082031 11.445312 -5.484375 11.445312 -3.523438 L 11.445312 -3.332031 C 10.398438 -1.429688 8.757812 -0.914062 7.3125 -0.914062 Z M 7.3125 -0.914062 "/></g></g></g><g fill="#a1d2b9" fill-opacity="1"><g transform="translate(319.807463, 336.404538)"><g><path d="M 7.292969 0.210938 C 11.273438 0.210938 13.617188 -1.769531 13.617188 -5.140625 C 13.617188 -8.4375 11.273438 -10.417969 7.292969 -10.417969 C 3.292969 -10.417969 0.953125 -8.4375 0.953125 -5.140625 C 0.953125 -1.769531 3.292969 0.210938 7.292969 0.210938 Z M 7.273438 -1.007812 C 4.457031 -1.007812 2.855469 -2.511719 2.855469 -5.140625 C 2.855469 -7.597656 4.457031 -9.121094 7.273438 -9.121094 C 10.054688 -9.121094 11.710938 -7.597656 11.710938 -5.140625 C 11.710938 -2.511719 10.054688 -1.007812 7.273438 -1.007812 Z M 7.273438 -1.007812 "/></g></g></g><g fill="#a1d2b9" fill-opacity="1"><g transform="translate(334.366305, 336.404538)"><g><path d="M 6.96875 0.210938 C 10.433594 0.210938 12.550781 -0.683594 12.550781 -2.875 C 12.550781 -7.597656 2.855469 -3.867188 2.855469 -7.273438 C 2.855469 -8.589844 4.113281 -9.179688 6.703125 -9.179688 C 8.777344 -9.179688 10.570312 -8.664062 11.996094 -7.960938 C 11.863281 -8.625 11.84375 -9.121094 11.976562 -9.578125 C 10.246094 -10.09375 8.816406 -10.417969 6.796875 -10.417969 C 4.683594 -10.417969 1.007812 -10.1875 1.007812 -7.273438 C 1.007812 -2.589844 10.664062 -6.152344 10.664062 -2.914062 C 10.664062 -1.714844 9.351562 -1.085938 6.914062 -1.085938 C 4.914062 -1.085938 2.4375 -1.636719 1.238281 -2.589844 C 1.371094 -2.171875 1.371094 -1.429688 1.238281 -0.972656 C 2.78125 -0.171875 4.988281 0.210938 6.96875 0.210938 Z M 6.96875 0.210938 "/></g></g></g><g clip-path="url(#id1)"><path fill="#a1d2b9" d="M 304.84375 237.011719 C 317.316406 237.011719 327.464844 247.15625 327.464844 259.632812 C 327.464844 272.105469 317.316406 282.25 304.84375 282.25 C 292.371094 282.25 282.222656 272.105469 282.222656 259.632812 C 282.222656 247.15625 292.371094 237.011719 304.84375 237.011719 M 304.84375 234.496094 C 290.960938 234.496094 279.710938 245.75 279.710938 259.632812 C 279.710938 273.511719 290.960938 284.765625 304.84375 284.765625 C 318.722656 284.765625 329.976562 273.511719 329.976562 259.632812 C 329.976562 245.75 318.722656 234.496094 304.84375 234.496094 Z M 304.84375 234.496094 " fill-opacity="1" fill-rule="nonzero"/></g><g clip-path="url(#id2)"><path fill="#a1d2b9" d="M 271.851562 264.117188 C 271.851562 263.988281 271.851562 263.859375 271.808594 263.6875 C 271.765625 263.214844 271.378906 262.875 270.910156 262.875 C 270.4375 262.917969 270.09375 263.300781 270.09375 263.773438 C 270.09375 263.902344 270.09375 264.074219 270.136719 264.203125 C 270.179688 264.675781 270.609375 265.019531 271.078125 264.976562 C 271.507812 265.019531 271.894531 264.589844 271.851562 264.117188 Z M 271.851562 264.117188 " fill-opacity="1" fill-rule="nonzero"/></g><path fill="#a1d2b9" d="M 272.667969 252.398438 C 273.097656 252.570312 273.613281 252.355469 273.785156 251.925781 C 273.828125 251.839844 273.914062 251.710938 273.957031 251.582031 C 274.171875 251.152344 273.957031 250.640625 273.527344 250.46875 C 273.097656 250.296875 272.582031 250.46875 272.410156 250.894531 C 272.367188 251.023438 272.28125 251.152344 272.238281 251.324219 C 272.023438 251.710938 272.238281 252.226562 272.667969 252.398438 Z M 272.667969 252.398438 " fill-opacity="1" fill-rule="nonzero"/><g clip-path="url(#id3)"><path fill="#a1d2b9" d="M 271.464844 256.519531 C 271.9375 256.648438 272.410156 256.347656 272.496094 255.875 C 272.539062 255.746094 272.582031 255.617188 272.582031 255.488281 C 272.710938 255.015625 272.410156 254.546875 271.980469 254.460938 C 271.507812 254.332031 271.035156 254.632812 270.953125 255.058594 C 270.910156 255.1875 270.867188 255.359375 270.824219 255.488281 C 270.695312 255.960938 270.996094 256.433594 271.464844 256.519531 Z M 271.464844 256.519531 " fill-opacity="1" fill-rule="nonzero"/></g><g clip-path="url(#id4)"><path fill="#a1d2b9" d="M 272.496094 268.238281 C 272.453125 268.109375 272.410156 267.980469 272.410156 267.851562 C 272.324219 267.378906 271.851562 267.082031 271.378906 267.167969 C 270.910156 267.25 270.652344 267.722656 270.738281 268.195312 C 270.78125 268.324219 270.824219 268.496094 270.824219 268.625 C 270.953125 269.097656 271.421875 269.355469 271.851562 269.269531 C 272.324219 269.140625 272.625 268.667969 272.496094 268.238281 Z M 272.496094 268.238281 " fill-opacity="1" fill-rule="nonzero"/></g><path fill="#a1d2b9" d="M 277.21875 243.511719 C 277.132812 243.640625 277.003906 243.726562 276.917969 243.855469 C 276.617188 244.199219 276.617188 244.757812 277.003906 245.058594 C 277.347656 245.359375 277.90625 245.316406 278.207031 244.972656 C 278.292969 244.886719 278.378906 244.757812 278.464844 244.671875 C 278.765625 244.328125 278.765625 243.769531 278.421875 243.46875 C 278.078125 243.125 277.519531 243.167969 277.21875 243.511719 Z M 277.21875 243.511719 " fill-opacity="1" fill-rule="nonzero"/><path fill="#a1d2b9" d="M 277.992188 278.800781 C 277.691406 278.457031 277.132812 278.414062 276.789062 278.714844 C 276.445312 279.015625 276.402344 279.574219 276.703125 279.914062 C 276.789062 280.042969 276.875 280.128906 277.003906 280.257812 C 277.304688 280.601562 277.863281 280.644531 278.207031 280.34375 C 278.550781 280.042969 278.59375 279.488281 278.292969 279.144531 C 278.164062 279.015625 278.078125 278.929688 277.992188 278.800781 Z M 277.992188 278.800781 " fill-opacity="1" fill-rule="nonzero"/><path fill="#a1d2b9" d="M 273.65625 271.757812 C 273.484375 271.332031 272.96875 271.117188 272.539062 271.289062 C 272.109375 271.457031 271.894531 271.972656 272.066406 272.402344 C 272.109375 272.53125 272.195312 272.660156 272.238281 272.789062 C 272.410156 273.21875 272.925781 273.433594 273.355469 273.261719 C 273.785156 273.089844 274 272.574219 273.828125 272.144531 C 273.785156 272.015625 273.699219 271.886719 273.65625 271.757812 Z M 273.65625 271.757812 " fill-opacity="1" fill-rule="nonzero"/><path fill="#a1d2b9" d="M 275.542969 275.453125 C 275.285156 275.066406 274.773438 274.9375 274.34375 275.152344 C 273.957031 275.410156 273.828125 275.921875 274.042969 276.351562 C 274.128906 276.480469 274.214844 276.609375 274.257812 276.738281 C 274.515625 277.125 275.03125 277.253906 275.457031 276.996094 C 275.84375 276.738281 275.972656 276.222656 275.714844 275.792969 C 275.671875 275.707031 275.628906 275.578125 275.542969 275.453125 Z M 275.542969 275.453125 " fill-opacity="1" fill-rule="nonzero"/><path fill="#a1d2b9" d="M 275.714844 246.730469 C 275.328125 246.476562 274.773438 246.605469 274.515625 246.988281 C 274.429688 247.117188 274.34375 247.246094 274.257812 247.375 C 274 247.761719 274.128906 248.320312 274.515625 248.578125 C 274.902344 248.835938 275.457031 248.707031 275.714844 248.320312 C 275.800781 248.191406 275.84375 248.105469 275.929688 247.976562 C 276.1875 247.546875 276.101562 246.988281 275.714844 246.730469 Z M 275.714844 246.730469 " fill-opacity="1" fill-rule="nonzero"/><path fill="#a1d2b9" d="M 320.53125 250.339844 C 320.746094 250.765625 321.261719 250.9375 321.691406 250.726562 C 322.121094 250.511719 322.292969 249.996094 322.078125 249.566406 C 321.992188 249.4375 321.949219 249.308594 321.863281 249.179688 C 321.648438 248.75 321.132812 248.578125 320.703125 248.835938 C 320.277344 249.050781 320.148438 249.566406 320.363281 249.996094 C 320.40625 250.082031 320.449219 250.210938 320.53125 250.339844 Z M 320.53125 250.339844 " fill-opacity="1" fill-rule="nonzero"/><path fill="#a1d2b9" d="M 304.648438 237.246094 C 304.777344 237.289062 304.90625 237.332031 305.035156 237.375 C 305.464844 237.503906 305.980469 237.246094 306.109375 236.816406 C 306.238281 236.34375 305.980469 235.871094 305.550781 235.742188 C 305.421875 235.699219 305.25 235.65625 305.121094 235.613281 C 304.648438 235.484375 304.175781 235.742188 304.046875 236.214844 C 303.921875 236.644531 304.175781 237.117188 304.648438 237.246094 Z M 304.648438 237.246094 " fill-opacity="1" fill-rule="nonzero"/><path fill="#a1d2b9" d="M 308.511719 238.703125 C 308.640625 238.746094 308.769531 238.832031 308.898438 238.875 C 309.328125 239.089844 309.84375 238.917969 310.058594 238.488281 C 310.273438 238.0625 310.101562 237.546875 309.671875 237.332031 C 309.542969 237.246094 309.414062 237.203125 309.285156 237.160156 C 308.855469 236.945312 308.339844 237.160156 308.125 237.589844 C 307.914062 237.976562 308.085938 238.488281 308.511719 238.703125 Z M 308.511719 238.703125 " fill-opacity="1" fill-rule="nonzero"/><path fill="#a1d2b9" d="M 312.121094 240.765625 C 312.246094 240.851562 312.332031 240.9375 312.460938 241.023438 C 312.847656 241.28125 313.40625 241.195312 313.664062 240.808594 C 313.921875 240.421875 313.835938 239.90625 313.449219 239.605469 C 313.320312 239.519531 313.191406 239.433594 313.105469 239.347656 C 312.71875 239.089844 312.164062 239.175781 311.90625 239.5625 C 311.648438 239.949219 311.734375 240.507812 312.121094 240.765625 Z M 312.121094 240.765625 " fill-opacity="1" fill-rule="nonzero"/><path fill="#a1d2b9" d="M 322.980469 257.808594 C 323.023438 257.9375 323.023438 258.066406 323.066406 258.238281 C 323.152344 258.710938 323.582031 259.007812 324.054688 258.96875 C 324.527344 258.882812 324.824219 258.453125 324.78125 257.980469 C 324.78125 257.851562 324.738281 257.679688 324.695312 257.550781 C 324.609375 257.078125 324.183594 256.777344 323.710938 256.820312 C 323.238281 256.90625 322.894531 257.335938 322.980469 257.808594 Z M 322.980469 257.808594 " fill-opacity="1" fill-rule="nonzero"/><path fill="#a1d2b9" d="M 321.992188 253.773438 C 322.035156 253.902344 322.078125 254.03125 322.121094 254.160156 C 322.25 254.589844 322.765625 254.847656 323.195312 254.71875 C 323.667969 254.589844 323.882812 254.074219 323.753906 253.644531 C 323.710938 253.515625 323.667969 253.34375 323.625 253.214844 C 323.453125 252.785156 322.980469 252.527344 322.550781 252.65625 C 322.078125 252.828125 321.820312 253.34375 321.992188 253.773438 Z M 321.992188 253.773438 " fill-opacity="1" fill-rule="nonzero"/><g clip-path="url(#id5)"><path fill="#a1d2b9" d="M 300.570312 236.429688 C 300.699219 236.429688 301.042969 236.472656 301.085938 236.472656 C 301.515625 236.472656 301.859375 236.171875 301.945312 235.742188 C 301.988281 235.269531 301.6875 234.839844 301.214844 234.796875 C 301.085938 234.796875 300.914062 234.753906 300.785156 234.753906 C 300.3125 234.710938 299.882812 235.054688 299.84375 235.527344 C 299.757812 235.957031 300.097656 236.386719 300.570312 236.429688 Z M 300.570312 236.429688 " fill-opacity="1" fill-rule="nonzero"/></g><path fill="#a1d2b9" d="M 284.171875 239.820312 C 284.472656 239.820312 284.730469 239.648438 284.945312 239.519531 C 285.375 239.304688 285.503906 238.746094 285.289062 238.363281 C 285.074219 237.933594 284.515625 237.804688 284.128906 238.019531 C 284 238.105469 283.871094 238.148438 283.742188 238.234375 C 283.316406 238.488281 283.1875 239.003906 283.441406 239.390625 C 283.570312 239.691406 283.871094 239.820312 284.171875 239.820312 Z M 284.171875 239.820312 " fill-opacity="1" fill-rule="nonzero"/><path fill="#a1d2b9" d="M 280.652344 242.269531 C 280.996094 242.269531 281.253906 242.011719 281.511719 241.796875 C 281.898438 241.496094 281.941406 240.980469 281.640625 240.59375 C 281.339844 240.207031 280.824219 240.164062 280.4375 240.464844 C 280.308594 240.550781 280.222656 240.636719 280.09375 240.722656 C 279.707031 241.023438 279.664062 241.582031 279.964844 241.925781 C 280.136719 242.183594 280.394531 242.269531 280.652344 242.269531 Z M 280.652344 242.269531 " fill-opacity="1" fill-rule="nonzero"/><path fill="#a1d2b9" d="M 288.035156 237.976562 C 288.292969 237.976562 288.507812 237.847656 288.722656 237.761719 C 289.152344 237.589844 289.410156 237.117188 289.238281 236.644531 C 289.066406 236.214844 288.59375 235.957031 288.121094 236.128906 C 287.992188 236.171875 287.863281 236.214844 287.691406 236.300781 C 287.265625 236.472656 287.050781 236.988281 287.179688 237.417969 C 287.351562 237.761719 287.691406 237.976562 288.035156 237.976562 Z M 288.035156 237.976562 " fill-opacity="1" fill-rule="nonzero"/><path fill="#a1d2b9" d="M 292.15625 236.816406 C 292.371094 236.816406 292.542969 236.773438 292.757812 236.730469 C 293.230469 236.644531 293.53125 236.171875 293.445312 235.742188 C 293.359375 235.269531 292.886719 234.96875 292.457031 235.054688 C 292.328125 235.097656 292.15625 235.097656 292.027344 235.140625 C 291.558594 235.226562 291.257812 235.699219 291.34375 236.171875 C 291.386719 236.515625 291.726562 236.816406 292.15625 236.816406 Z M 292.15625 236.816406 " fill-opacity="1" fill-rule="nonzero"/><g clip-path="url(#id6)"><path fill="#a1d2b9" d="M 296.40625 236.257812 C 296.40625 236.257812 296.707031 236.257812 296.878906 236.257812 C 297.351562 236.257812 297.738281 235.871094 297.695312 235.355469 C 297.695312 234.882812 297.308594 234.496094 296.792969 234.539062 C 296.664062 234.539062 296.492188 234.539062 296.363281 234.539062 C 295.890625 234.539062 295.507812 234.96875 295.550781 235.441406 C 295.550781 235.914062 295.933594 236.257812 296.40625 236.257812 Z M 296.40625 236.257812 " fill-opacity="1" fill-rule="nonzero"/></g><g clip-path="url(#id7)"><path fill="#a1d2b9" d="M 270.910156 260.769531 C 271.378906 260.8125 271.808594 260.46875 271.851562 259.996094 C 271.851562 259.867188 271.894531 259.738281 271.894531 259.566406 C 271.9375 259.09375 271.59375 258.667969 271.121094 258.625 C 270.652344 258.582031 270.222656 258.925781 270.179688 259.394531 C 270.179688 259.523438 270.136719 259.695312 270.136719 259.824219 C 270.09375 260.339844 270.4375 260.726562 270.910156 260.769531 Z M 270.910156 260.769531 " fill-opacity="1" fill-rule="nonzero"/></g><path fill="#a1d2b9" d="M 308.597656 285.28125 C 308.46875 285.324219 308.339844 285.410156 308.210938 285.453125 C 307.785156 285.667969 307.570312 286.140625 307.785156 286.570312 C 308 287 308.511719 287.171875 308.941406 287 C 309.070312 286.957031 309.199219 286.871094 309.328125 286.828125 C 309.757812 286.613281 309.929688 286.097656 309.714844 285.667969 C 309.542969 285.28125 309.027344 285.109375 308.597656 285.28125 Z M 308.597656 285.28125 " fill-opacity="1" fill-rule="nonzero"/><path fill="#a1d2b9" d="M 312.203125 283.222656 C 312.078125 283.308594 311.992188 283.394531 311.863281 283.4375 C 311.476562 283.695312 311.347656 284.25 311.605469 284.636719 C 311.863281 285.023438 312.417969 285.152344 312.804688 284.894531 C 312.933594 284.808594 313.0625 284.722656 313.191406 284.636719 C 313.578125 284.378906 313.664062 283.820312 313.40625 283.4375 C 313.105469 283.050781 312.589844 282.964844 312.203125 283.222656 Z M 312.203125 283.222656 " fill-opacity="1" fill-rule="nonzero"/><path fill="#a1d2b9" d="M 315.382812 280.601562 C 315.296875 280.6875 315.167969 280.773438 315.082031 280.902344 C 314.738281 281.246094 314.695312 281.761719 315.039062 282.105469 C 315.339844 282.449219 315.898438 282.449219 316.242188 282.148438 C 316.367188 282.0625 316.453125 281.933594 316.539062 281.847656 C 316.882812 281.503906 316.882812 280.988281 316.582031 280.644531 C 316.285156 280.300781 315.726562 280.257812 315.382812 280.601562 Z M 315.382812 280.601562 " fill-opacity="1" fill-rule="nonzero"/><path fill="#a1d2b9" d="M 304.734375 286.785156 C 304.605469 286.828125 304.476562 286.871094 304.347656 286.914062 C 303.878906 287.042969 303.621094 287.515625 303.75 287.984375 C 303.835938 288.371094 304.175781 288.628906 304.5625 288.628906 C 304.648438 288.628906 305.078125 288.5 305.207031 288.457031 C 305.679688 288.328125 305.9375 287.855469 305.808594 287.386719 C 305.679688 286.914062 305.164062 286.65625 304.734375 286.785156 Z M 304.734375 286.785156 " fill-opacity="1" fill-rule="nonzero"/><path fill="#a1d2b9" d="M 321.519531 273.648438 C 321.089844 273.433594 320.574219 273.605469 320.363281 273.992188 C 320.277344 274.121094 320.234375 274.25 320.148438 274.378906 C 319.933594 274.808594 320.0625 275.324219 320.488281 275.535156 C 320.917969 275.75 321.433594 275.621094 321.648438 275.195312 C 321.734375 275.066406 321.777344 274.9375 321.863281 274.808594 C 322.121094 274.378906 321.949219 273.863281 321.519531 273.648438 Z M 321.519531 273.648438 " fill-opacity="1" fill-rule="nonzero"/><path fill="#a1d2b9" d="M 323.96875 265.449219 C 323.496094 265.363281 323.066406 265.707031 322.980469 266.179688 C 322.9375 266.308594 322.9375 266.4375 322.894531 266.566406 C 322.808594 267.039062 323.109375 267.464844 323.582031 267.550781 C 324.054688 267.636719 324.484375 267.335938 324.570312 266.867188 C 324.609375 266.738281 324.609375 266.566406 324.652344 266.4375 C 324.78125 265.964844 324.441406 265.535156 323.96875 265.449219 Z M 323.96875 265.449219 " fill-opacity="1" fill-rule="nonzero"/><path fill="#a1d2b9" d="M 319.460938 245.445312 C 319.160156 245.058594 318.644531 244.972656 318.257812 245.273438 C 317.871094 245.574219 317.785156 246.089844 318.085938 246.476562 C 318.171875 246.605469 318.257812 246.6875 318.34375 246.816406 C 318.601562 247.203125 319.160156 247.289062 319.546875 246.988281 C 319.933594 246.6875 320.019531 246.175781 319.71875 245.789062 C 319.675781 245.660156 319.589844 245.574219 319.460938 245.445312 Z M 319.460938 245.445312 " fill-opacity="1" fill-rule="nonzero"/><path fill="#a1d2b9" d="M 319.375 277.339844 C 318.988281 277.039062 318.472656 277.125 318.171875 277.511719 C 318.085938 277.640625 318 277.726562 317.914062 277.855469 C 317.613281 278.242188 317.699219 278.757812 318.085938 279.058594 C 318.472656 279.359375 318.988281 279.273438 319.289062 278.886719 C 319.375 278.757812 319.460938 278.671875 319.546875 278.542969 C 319.804688 278.15625 319.71875 277.597656 319.375 277.339844 Z M 319.375 277.339844 " fill-opacity="1" fill-rule="nonzero"/><path fill="#a1d2b9" d="M 316.539062 242.140625 C 316.199219 241.796875 315.640625 241.839844 315.339844 242.183594 C 314.996094 242.523438 315.039062 243.082031 315.382812 243.382812 C 315.46875 243.46875 315.597656 243.554688 315.683594 243.683594 C 316.027344 244.027344 316.582031 244.027344 316.882812 243.683594 C 317.226562 243.339844 317.226562 242.78125 316.882812 242.484375 C 316.753906 242.355469 316.625 242.269531 316.539062 242.140625 Z M 316.539062 242.140625 " fill-opacity="1" fill-rule="nonzero"/><g clip-path="url(#id8)"><path fill="#a1d2b9" d="M 300.65625 287.601562 C 300.527344 287.601562 300.398438 287.644531 300.226562 287.644531 C 299.757812 287.6875 299.414062 288.113281 299.457031 288.585938 C 299.5 289.015625 299.882812 289.359375 300.3125 289.359375 C 300.355469 289.359375 300.699219 289.316406 300.828125 289.316406 C 301.300781 289.273438 301.644531 288.84375 301.558594 288.371094 C 301.558594 287.898438 301.128906 287.558594 300.65625 287.601562 Z M 300.65625 287.601562 " fill-opacity="1" fill-rule="nonzero"/></g><path fill="#a1d2b9" d="M 280.910156 281.71875 C 280.566406 281.417969 280.007812 281.460938 279.707031 281.804688 C 279.40625 282.148438 279.449219 282.707031 279.792969 283.007812 C 279.921875 283.09375 280.007812 283.179688 280.136719 283.308594 C 280.480469 283.609375 281.039062 283.566406 281.339844 283.179688 C 281.640625 282.792969 281.597656 282.277344 281.210938 281.976562 C 281.125 281.890625 281.039062 281.804688 280.910156 281.71875 Z M 280.910156 281.71875 " fill-opacity="1" fill-rule="nonzero"/><path fill="#a1d2b9" d="M 284.644531 284.335938 C 284.515625 284.25 284.386719 284.207031 284.300781 284.121094 C 283.914062 283.863281 283.359375 283.992188 283.144531 284.421875 C 282.886719 284.808594 283.015625 285.367188 283.441406 285.582031 C 283.570312 285.667969 283.699219 285.753906 283.828125 285.796875 C 284.214844 286.011719 284.773438 285.882812 284.988281 285.496094 C 285.203125 285.109375 285.074219 284.59375 284.644531 284.335938 Z M 284.644531 284.335938 " fill-opacity="1" fill-rule="nonzero"/><path fill="#a1d2b9" d="M 288.421875 286.140625 C 288.292969 286.097656 288.164062 286.054688 288.035156 285.96875 C 287.605469 285.796875 287.09375 286.011719 286.921875 286.441406 C 286.75 286.871094 286.964844 287.386719 287.394531 287.558594 C 287.519531 287.601562 287.648438 287.6875 287.820312 287.730469 C 288.25 287.898438 288.765625 287.6875 288.9375 287.214844 C 289.066406 286.785156 288.851562 286.3125 288.421875 286.140625 Z M 288.421875 286.140625 " fill-opacity="1" fill-rule="nonzero"/><path fill="#a1d2b9" d="M 323.109375 269.65625 C 322.636719 269.527344 322.164062 269.742188 322.035156 270.214844 C 321.992188 270.34375 321.949219 270.472656 321.90625 270.601562 C 321.734375 271.03125 321.992188 271.542969 322.421875 271.714844 C 322.851562 271.886719 323.367188 271.628906 323.539062 271.203125 C 323.582031 271.074219 323.625 270.902344 323.667969 270.773438 C 323.796875 270.257812 323.539062 269.785156 323.109375 269.65625 Z M 323.109375 269.65625 " fill-opacity="1" fill-rule="nonzero"/><g clip-path="url(#id9)"><path fill="#a1d2b9" d="M 292.414062 287.300781 C 292.285156 287.257812 292.15625 287.257812 292.027344 287.214844 C 291.558594 287.128906 291.128906 287.386719 291 287.855469 C 290.914062 288.328125 291.171875 288.757812 291.640625 288.886719 C 291.769531 288.929688 292.199219 289.015625 292.242188 289.015625 C 292.628906 289.015625 293.015625 288.714844 293.101562 288.328125 C 293.1875 287.816406 292.886719 287.386719 292.414062 287.300781 Z M 292.414062 287.300781 " fill-opacity="1" fill-rule="nonzero"/></g><g clip-path="url(#id10)"><path fill="#a1d2b9" d="M 324.183594 261.070312 C 323.710938 261.070312 323.324219 261.457031 323.324219 261.929688 C 323.324219 261.929688 323.324219 262.316406 323.324219 262.445312 C 323.324219 262.917969 323.710938 263.300781 324.183594 263.300781 C 324.652344 263.300781 325.039062 262.917969 325.039062 262.445312 C 325.039062 262.316406 325.039062 261.929688 325.039062 261.929688 C 325.039062 261.457031 324.652344 261.070312 324.183594 261.070312 Z M 324.183594 261.070312 " fill-opacity="1" fill-rule="nonzero"/></g><g clip-path="url(#id11)"><path fill="#a1d2b9" d="M 296.535156 287.773438 C 296.40625 287.773438 296.277344 287.773438 296.105469 287.773438 C 295.636719 287.773438 295.25 288.113281 295.207031 288.585938 C 295.164062 289.058594 295.550781 289.445312 296.019531 289.488281 C 296.148438 289.488281 296.492188 289.53125 296.492188 289.53125 C 296.964844 289.53125 297.351562 289.1875 297.351562 288.714844 C 297.351562 288.199219 297.007812 287.773438 296.535156 287.773438 Z M 296.535156 287.773438 " fill-opacity="1" fill-rule="nonzero"/></g><g clip-path="url(#id12)"><path fill="#a1d2b9" d="M 277.203125 264.65625 C 277.203125 264.550781 277.203125 264.445312 277.167969 264.304688 C 277.136719 263.921875 276.820312 263.640625 276.4375 263.640625 C 276.050781 263.675781 275.773438 263.992188 275.773438 264.375 C 275.773438 264.480469 275.773438 264.621094 275.808594 264.726562 C 275.839844 265.109375 276.191406 265.390625 276.574219 265.355469 C 276.925781 265.390625 277.238281 265.039062 277.203125 264.65625 Z M 277.203125 264.65625 " fill-opacity="1" fill-rule="nonzero"/></g><path fill="#a1d2b9" d="M 277.867188 255.113281 C 278.21875 255.253906 278.636719 255.078125 278.777344 254.730469 C 278.8125 254.660156 278.882812 254.554688 278.917969 254.449219 C 279.09375 254.101562 278.917969 253.679688 278.566406 253.542969 C 278.21875 253.402344 277.800781 253.542969 277.660156 253.890625 C 277.625 253.996094 277.554688 254.101562 277.519531 254.242188 C 277.34375 254.554688 277.519531 254.976562 277.867188 255.113281 Z M 277.867188 255.113281 " fill-opacity="1" fill-rule="nonzero"/><path fill="#a1d2b9" d="M 276.890625 258.46875 C 277.273438 258.574219 277.660156 258.328125 277.730469 257.945312 C 277.765625 257.839844 277.800781 257.734375 277.800781 257.632812 C 277.902344 257.246094 277.660156 256.863281 277.308594 256.792969 C 276.925781 256.6875 276.539062 256.933594 276.472656 257.28125 C 276.4375 257.386719 276.402344 257.527344 276.367188 257.632812 C 276.261719 258.015625 276.503906 258.398438 276.890625 258.46875 Z M 276.890625 258.46875 " fill-opacity="1" fill-rule="nonzero"/><path fill="#a1d2b9" d="M 277.730469 268.011719 C 277.695312 267.90625 277.660156 267.800781 277.660156 267.695312 C 277.589844 267.3125 277.203125 267.066406 276.820312 267.136719 C 276.4375 267.207031 276.226562 267.59375 276.296875 267.976562 C 276.332031 268.082031 276.367188 268.222656 276.367188 268.324219 C 276.472656 268.710938 276.855469 268.921875 277.203125 268.851562 C 277.589844 268.746094 277.832031 268.359375 277.730469 268.011719 Z M 277.730469 268.011719 " fill-opacity="1" fill-rule="nonzero"/><path fill="#a1d2b9" d="M 281.574219 247.878906 C 281.503906 247.984375 281.398438 248.054688 281.328125 248.160156 C 281.085938 248.4375 281.085938 248.894531 281.398438 249.136719 C 281.679688 249.382812 282.132812 249.347656 282.378906 249.066406 C 282.449219 249 282.515625 248.894531 282.585938 248.824219 C 282.832031 248.542969 282.832031 248.089844 282.550781 247.84375 C 282.273438 247.566406 281.816406 247.601562 281.574219 247.878906 Z M 281.574219 247.878906 " fill-opacity="1" fill-rule="nonzero"/><path fill="#a1d2b9" d="M 282.203125 276.609375 C 281.957031 276.328125 281.503906 276.292969 281.222656 276.539062 C 280.945312 276.785156 280.910156 277.238281 281.152344 277.519531 C 281.222656 277.621094 281.292969 277.691406 281.398438 277.796875 C 281.644531 278.078125 282.097656 278.113281 282.378906 277.867188 C 282.65625 277.621094 282.691406 277.167969 282.449219 276.890625 C 282.34375 276.785156 282.273438 276.714844 282.203125 276.609375 Z M 282.203125 276.609375 " fill-opacity="1" fill-rule="nonzero"/><path fill="#a1d2b9" d="M 278.671875 270.878906 C 278.53125 270.527344 278.113281 270.351562 277.765625 270.492188 C 277.414062 270.632812 277.238281 271.050781 277.378906 271.402344 C 277.414062 271.507812 277.484375 271.613281 277.519531 271.714844 C 277.660156 272.066406 278.078125 272.242188 278.429688 272.101562 C 278.777344 271.960938 278.953125 271.542969 278.8125 271.191406 C 278.777344 271.085938 278.707031 270.980469 278.671875 270.878906 Z M 278.671875 270.878906 " fill-opacity="1" fill-rule="nonzero"/><path fill="#a1d2b9" d="M 280.210938 273.882812 C 280 273.570312 279.582031 273.464844 279.230469 273.636719 C 278.917969 273.847656 278.8125 274.269531 278.988281 274.617188 C 279.058594 274.722656 279.128906 274.828125 279.160156 274.933594 C 279.371094 275.246094 279.792969 275.351562 280.140625 275.140625 C 280.457031 274.933594 280.558594 274.511719 280.351562 274.164062 C 280.316406 274.09375 280.28125 273.988281 280.210938 273.882812 Z M 280.210938 273.882812 " fill-opacity="1" fill-rule="nonzero"/><path fill="#a1d2b9" d="M 280.351562 250.5 C 280.035156 250.292969 279.582031 250.394531 279.371094 250.710938 C 279.300781 250.816406 279.230469 250.921875 279.160156 251.023438 C 278.953125 251.339844 279.058594 251.792969 279.371094 252.003906 C 279.6875 252.214844 280.140625 252.109375 280.351562 251.792969 C 280.421875 251.6875 280.457031 251.621094 280.523438 251.515625 C 280.734375 251.164062 280.664062 250.710938 280.351562 250.5 Z M 280.351562 250.5 " fill-opacity="1" fill-rule="nonzero"/><path fill="#a1d2b9" d="M 316.839844 253.4375 C 317.015625 253.785156 317.433594 253.925781 317.78125 253.75 C 318.132812 253.578125 318.273438 253.15625 318.097656 252.808594 C 318.027344 252.703125 317.992188 252.597656 317.921875 252.492188 C 317.746094 252.144531 317.328125 252.003906 316.980469 252.214844 C 316.628906 252.386719 316.523438 252.808594 316.699219 253.15625 C 316.734375 253.226562 316.769531 253.332031 316.839844 253.4375 Z M 316.839844 253.4375 " fill-opacity="1" fill-rule="nonzero"/><path fill="#a1d2b9" d="M 303.90625 242.777344 C 304.011719 242.8125 304.117188 242.847656 304.222656 242.882812 C 304.570312 242.988281 304.992188 242.777344 305.09375 242.425781 C 305.199219 242.042969 304.992188 241.660156 304.640625 241.554688 C 304.535156 241.519531 304.398438 241.484375 304.292969 241.449219 C 303.90625 241.34375 303.523438 241.554688 303.417969 241.9375 C 303.3125 242.289062 303.523438 242.671875 303.90625 242.777344 Z M 303.90625 242.777344 " fill-opacity="1" fill-rule="nonzero"/><path fill="#a1d2b9" d="M 307.054688 243.964844 C 307.15625 244 307.261719 244.070312 307.367188 244.105469 C 307.71875 244.28125 308.136719 244.140625 308.3125 243.789062 C 308.484375 243.441406 308.347656 243.023438 307.996094 242.847656 C 307.890625 242.777344 307.785156 242.742188 307.683594 242.707031 C 307.332031 242.53125 306.914062 242.707031 306.738281 243.054688 C 306.5625 243.371094 306.703125 243.789062 307.054688 243.964844 Z M 307.054688 243.964844 " fill-opacity="1" fill-rule="nonzero"/><path fill="#a1d2b9" d="M 309.988281 245.644531 C 310.09375 245.710938 310.164062 245.78125 310.269531 245.851562 C 310.582031 246.0625 311.039062 245.992188 311.246094 245.679688 C 311.457031 245.363281 311.386719 244.945312 311.070312 244.699219 C 310.96875 244.628906 310.863281 244.558594 310.792969 244.488281 C 310.476562 244.28125 310.023438 244.351562 309.8125 244.664062 C 309.605469 244.980469 309.675781 245.433594 309.988281 245.644531 Z M 309.988281 245.644531 " fill-opacity="1" fill-rule="nonzero"/><g clip-path="url(#id13)"><path fill="#a1d2b9" d="M 318.832031 259.519531 C 318.867188 259.625 318.867188 259.726562 318.902344 259.867188 C 318.972656 260.253906 319.320312 260.496094 319.707031 260.460938 C 320.089844 260.390625 320.335938 260.042969 320.300781 259.65625 C 320.300781 259.554688 320.265625 259.414062 320.230469 259.308594 C 320.160156 258.925781 319.808594 258.679688 319.425781 258.714844 C 319.042969 258.785156 318.761719 259.132812 318.832031 259.519531 Z M 318.832031 259.519531 " fill-opacity="1" fill-rule="nonzero"/></g><path fill="#a1d2b9" d="M 318.027344 256.234375 C 318.0625 256.335938 318.097656 256.441406 318.132812 256.546875 C 318.238281 256.898438 318.65625 257.105469 319.007812 257 C 319.390625 256.898438 319.566406 256.476562 319.460938 256.128906 C 319.425781 256.023438 319.390625 255.882812 319.355469 255.777344 C 319.214844 255.429688 318.832031 255.21875 318.480469 255.324219 C 318.097656 255.464844 317.886719 255.882812 318.027344 256.234375 Z M 318.027344 256.234375 " fill-opacity="1" fill-rule="nonzero"/><g clip-path="url(#id14)"><path fill="#a1d2b9" d="M 300.585938 242.113281 C 300.691406 242.113281 300.972656 242.148438 301.007812 242.148438 C 301.355469 242.148438 301.636719 241.902344 301.707031 241.554688 C 301.742188 241.167969 301.496094 240.820312 301.109375 240.785156 C 301.007812 240.785156 300.867188 240.75 300.761719 240.75 C 300.378906 240.714844 300.027344 240.996094 299.992188 241.378906 C 299.921875 241.726562 300.203125 242.078125 300.585938 242.113281 Z M 300.585938 242.113281 " fill-opacity="1" fill-rule="nonzero"/></g><path fill="#a1d2b9" d="M 287.234375 244.875 C 287.480469 244.875 287.691406 244.734375 287.863281 244.628906 C 288.214844 244.453125 288.320312 244 288.144531 243.6875 C 287.96875 243.335938 287.515625 243.230469 287.199219 243.40625 C 287.097656 243.476562 286.992188 243.511719 286.886719 243.582031 C 286.535156 243.789062 286.433594 244.210938 286.640625 244.523438 C 286.746094 244.769531 286.992188 244.875 287.234375 244.875 Z M 287.234375 244.875 " fill-opacity="1" fill-rule="nonzero"/><path fill="#a1d2b9" d="M 284.371094 246.867188 C 284.648438 246.867188 284.859375 246.65625 285.070312 246.480469 C 285.382812 246.238281 285.417969 245.816406 285.171875 245.503906 C 284.929688 245.1875 284.507812 245.152344 284.195312 245.398438 C 284.089844 245.46875 284.019531 245.539062 283.914062 245.609375 C 283.601562 245.851562 283.566406 246.308594 283.8125 246.585938 C 283.949219 246.796875 284.160156 246.867188 284.371094 246.867188 Z M 284.371094 246.867188 " fill-opacity="1" fill-rule="nonzero"/><path fill="#a1d2b9" d="M 290.382812 243.371094 C 290.589844 243.371094 290.765625 243.265625 290.941406 243.195312 C 291.289062 243.054688 291.5 242.671875 291.359375 242.289062 C 291.21875 241.9375 290.835938 241.726562 290.453125 241.867188 C 290.347656 241.902344 290.242188 241.9375 290.101562 242.007812 C 289.753906 242.148438 289.578125 242.566406 289.683594 242.917969 C 289.820312 243.195312 290.101562 243.371094 290.382812 243.371094 Z M 290.382812 243.371094 " fill-opacity="1" fill-rule="nonzero"/><g clip-path="url(#id15)"><path fill="#a1d2b9" d="M 293.738281 242.425781 C 293.910156 242.425781 294.050781 242.390625 294.226562 242.359375 C 294.609375 242.289062 294.855469 241.902344 294.785156 241.554688 C 294.714844 241.167969 294.332031 240.925781 293.980469 240.996094 C 293.875 241.03125 293.738281 241.03125 293.632812 241.0625 C 293.246094 241.132812 293.003906 241.519531 293.074219 241.902344 C 293.109375 242.183594 293.386719 242.425781 293.738281 242.425781 Z M 293.738281 242.425781 " fill-opacity="1" fill-rule="nonzero"/></g><g clip-path="url(#id16)"><path fill="#a1d2b9" d="M 297.195312 241.972656 C 297.195312 241.972656 297.441406 241.972656 297.582031 241.972656 C 297.964844 241.972656 298.28125 241.660156 298.246094 241.238281 C 298.246094 240.855469 297.929688 240.539062 297.511719 240.574219 C 297.40625 240.574219 297.265625 240.574219 297.160156 240.574219 C 296.777344 240.574219 296.460938 240.925781 296.496094 241.308594 C 296.496094 241.695312 296.8125 241.972656 297.195312 241.972656 Z M 297.195312 241.972656 " fill-opacity="1" fill-rule="nonzero"/></g><g clip-path="url(#id17)"><path fill="#a1d2b9" d="M 276.4375 261.929688 C 276.820312 261.964844 277.167969 261.683594 277.203125 261.300781 C 277.203125 261.195312 277.238281 261.089844 277.238281 260.953125 C 277.273438 260.566406 276.996094 260.21875 276.609375 260.183594 C 276.226562 260.148438 275.875 260.425781 275.839844 260.8125 C 275.839844 260.917969 275.808594 261.054688 275.808594 261.160156 C 275.773438 261.582031 276.050781 261.894531 276.4375 261.929688 Z M 276.4375 261.929688 " fill-opacity="1" fill-rule="nonzero"/></g><path fill="#a1d2b9" d="M 307.121094 281.886719 C 307.019531 281.921875 306.914062 281.992188 306.808594 282.027344 C 306.457031 282.203125 306.285156 282.585938 306.457031 282.933594 C 306.632812 283.285156 307.054688 283.425781 307.402344 283.285156 C 307.507812 283.25 307.613281 283.179688 307.71875 283.144531 C 308.066406 282.96875 308.207031 282.550781 308.03125 282.203125 C 307.890625 281.886719 307.472656 281.746094 307.121094 281.886719 Z M 307.121094 281.886719 " fill-opacity="1" fill-rule="nonzero"/><path fill="#a1d2b9" d="M 310.058594 280.210938 C 309.953125 280.277344 309.882812 280.347656 309.777344 280.382812 C 309.464844 280.59375 309.359375 281.046875 309.570312 281.363281 C 309.777344 281.675781 310.234375 281.78125 310.546875 281.574219 C 310.652344 281.503906 310.757812 281.433594 310.863281 281.363281 C 311.175781 281.152344 311.246094 280.699219 311.039062 280.382812 C 310.792969 280.070312 310.375 280 310.058594 280.210938 Z M 310.058594 280.210938 " fill-opacity="1" fill-rule="nonzero"/><path fill="#a1d2b9" d="M 312.644531 278.078125 C 312.574219 278.148438 312.46875 278.21875 312.398438 278.320312 C 312.121094 278.601562 312.085938 279.019531 312.367188 279.300781 C 312.609375 279.582031 313.0625 279.582031 313.34375 279.335938 C 313.449219 279.265625 313.519531 279.160156 313.589844 279.089844 C 313.867188 278.8125 313.867188 278.390625 313.625 278.113281 C 313.378906 277.832031 312.925781 277.796875 312.644531 278.078125 Z M 312.644531 278.078125 " fill-opacity="1" fill-rule="nonzero"/><path fill="#a1d2b9" d="M 303.976562 283.109375 C 303.871094 283.144531 303.765625 283.179688 303.664062 283.214844 C 303.277344 283.320312 303.070312 283.703125 303.171875 284.089844 C 303.242188 284.402344 303.523438 284.613281 303.835938 284.613281 C 303.90625 284.613281 304.257812 284.507812 304.363281 284.472656 C 304.746094 284.367188 304.957031 283.984375 304.851562 283.597656 C 304.746094 283.214844 304.328125 283.003906 303.976562 283.109375 Z M 303.976562 283.109375 " fill-opacity="1" fill-rule="nonzero"/><path fill="#a1d2b9" d="M 317.644531 272.414062 C 317.292969 272.242188 316.875 272.378906 316.699219 272.695312 C 316.628906 272.800781 316.59375 272.90625 316.523438 273.007812 C 316.351562 273.359375 316.453125 273.777344 316.804688 273.953125 C 317.152344 274.128906 317.574219 274.023438 317.746094 273.671875 C 317.816406 273.570312 317.851562 273.464844 317.921875 273.359375 C 318.132812 273.007812 317.992188 272.589844 317.644531 272.414062 Z M 317.644531 272.414062 " fill-opacity="1" fill-rule="nonzero"/><g clip-path="url(#id18)"><path fill="#a1d2b9" d="M 319.636719 265.738281 C 319.25 265.667969 318.902344 265.949219 318.832031 266.332031 C 318.796875 266.4375 318.796875 266.542969 318.761719 266.648438 C 318.691406 267.03125 318.9375 267.382812 319.320312 267.453125 C 319.707031 267.523438 320.054688 267.277344 320.125 266.894531 C 320.160156 266.789062 320.160156 266.648438 320.195312 266.542969 C 320.300781 266.160156 320.019531 265.808594 319.636719 265.738281 Z M 319.636719 265.738281 " fill-opacity="1" fill-rule="nonzero"/></g><path fill="#a1d2b9" d="M 315.964844 249.453125 C 315.71875 249.136719 315.300781 249.066406 314.988281 249.3125 C 314.671875 249.558594 314.601562 249.976562 314.847656 250.292969 C 314.917969 250.394531 314.988281 250.464844 315.054688 250.570312 C 315.265625 250.886719 315.71875 250.957031 316.035156 250.710938 C 316.351562 250.464844 316.417969 250.046875 316.175781 249.730469 C 316.140625 249.628906 316.070312 249.558594 315.964844 249.453125 Z M 315.964844 249.453125 " fill-opacity="1" fill-rule="nonzero"/><path fill="#a1d2b9" d="M 315.894531 275.421875 C 315.582031 275.175781 315.160156 275.246094 314.917969 275.5625 C 314.847656 275.664062 314.777344 275.734375 314.707031 275.839844 C 314.460938 276.15625 314.53125 276.574219 314.847656 276.820312 C 315.160156 277.0625 315.582031 276.992188 315.824219 276.679688 C 315.894531 276.574219 315.964844 276.503906 316.035156 276.398438 C 316.246094 276.085938 316.175781 275.628906 315.894531 275.421875 Z M 315.894531 275.421875 " fill-opacity="1" fill-rule="nonzero"/><path fill="#a1d2b9" d="M 313.589844 246.761719 C 313.308594 246.480469 312.855469 246.515625 312.609375 246.796875 C 312.332031 247.074219 312.367188 247.53125 312.644531 247.773438 C 312.714844 247.84375 312.820312 247.914062 312.890625 248.019531 C 313.167969 248.300781 313.625 248.300781 313.867188 248.019531 C 314.148438 247.738281 314.148438 247.285156 313.867188 247.039062 C 313.761719 246.9375 313.660156 246.867188 313.589844 246.761719 Z M 313.589844 246.761719 " fill-opacity="1" fill-rule="nonzero"/><g clip-path="url(#id19)"><path fill="#a1d2b9" d="M 300.65625 283.773438 C 300.550781 283.773438 300.445312 283.808594 300.308594 283.808594 C 299.921875 283.84375 299.644531 284.195312 299.679688 284.578125 C 299.714844 284.925781 300.027344 285.207031 300.378906 285.207031 C 300.414062 285.207031 300.691406 285.171875 300.796875 285.171875 C 301.179688 285.136719 301.460938 284.789062 301.390625 284.402344 C 301.390625 284.019531 301.042969 283.738281 300.65625 283.773438 Z M 300.65625 283.773438 " fill-opacity="1" fill-rule="nonzero"/></g><path fill="#a1d2b9" d="M 284.578125 278.984375 C 284.300781 278.742188 283.84375 278.777344 283.601562 279.054688 C 283.355469 279.335938 283.390625 279.789062 283.671875 280.035156 C 283.777344 280.105469 283.84375 280.175781 283.949219 280.277344 C 284.230469 280.523438 284.683594 280.488281 284.929688 280.175781 C 285.171875 279.859375 285.140625 279.441406 284.824219 279.195312 C 284.753906 279.125 284.683594 279.054688 284.578125 278.984375 Z M 284.578125 278.984375 " fill-opacity="1" fill-rule="nonzero"/><path fill="#a1d2b9" d="M 287.621094 281.117188 C 287.515625 281.046875 287.410156 281.011719 287.339844 280.941406 C 287.027344 280.734375 286.570312 280.839844 286.398438 281.1875 C 286.1875 281.503906 286.292969 281.957031 286.640625 282.132812 C 286.746094 282.203125 286.851562 282.269531 286.957031 282.304688 C 287.269531 282.480469 287.726562 282.375 287.898438 282.0625 C 288.074219 281.746094 287.96875 281.328125 287.621094 281.117188 Z M 287.621094 281.117188 " fill-opacity="1" fill-rule="nonzero"/><path fill="#a1d2b9" d="M 290.695312 282.585938 C 290.589844 282.550781 290.484375 282.515625 290.382812 282.445312 C 290.03125 282.304688 289.613281 282.480469 289.472656 282.832031 C 289.332031 283.179688 289.507812 283.597656 289.855469 283.738281 C 289.960938 283.773438 290.066406 283.84375 290.207031 283.878906 C 290.554688 284.019531 290.976562 283.84375 291.117188 283.460938 C 291.21875 283.109375 291.046875 282.726562 290.695312 282.585938 Z M 290.695312 282.585938 " fill-opacity="1" fill-rule="nonzero"/><path fill="#a1d2b9" d="M 318.9375 269.164062 C 318.550781 269.058594 318.167969 269.234375 318.0625 269.617188 C 318.027344 269.722656 317.992188 269.828125 317.957031 269.933594 C 317.816406 270.285156 318.027344 270.703125 318.378906 270.84375 C 318.726562 270.980469 319.144531 270.773438 319.285156 270.421875 C 319.320312 270.316406 319.355469 270.179688 319.390625 270.074219 C 319.496094 269.652344 319.285156 269.269531 318.9375 269.164062 Z M 318.9375 269.164062 " fill-opacity="1" fill-rule="nonzero"/><path fill="#a1d2b9" d="M 293.945312 283.53125 C 293.839844 283.496094 293.738281 283.496094 293.632812 283.460938 C 293.246094 283.390625 292.898438 283.597656 292.792969 283.984375 C 292.722656 284.367188 292.933594 284.71875 293.316406 284.824219 C 293.421875 284.859375 293.773438 284.925781 293.804688 284.925781 C 294.121094 284.925781 294.4375 284.683594 294.503906 284.367188 C 294.574219 283.949219 294.332031 283.597656 293.945312 283.53125 Z M 293.945312 283.53125 " fill-opacity="1" fill-rule="nonzero"/><g clip-path="url(#id20)"><path fill="#a1d2b9" d="M 319.808594 262.175781 C 319.425781 262.175781 319.109375 262.488281 319.109375 262.875 C 319.109375 262.875 319.109375 263.1875 319.109375 263.292969 C 319.109375 263.675781 319.425781 263.992188 319.808594 263.992188 C 320.195312 263.992188 320.507812 263.675781 320.507812 263.292969 C 320.507812 263.1875 320.507812 262.875 320.507812 262.875 C 320.507812 262.488281 320.195312 262.175781 319.808594 262.175781 Z M 319.808594 262.175781 " fill-opacity="1" fill-rule="nonzero"/></g><g clip-path="url(#id21)"><path fill="#a1d2b9" d="M 297.300781 283.914062 C 297.195312 283.914062 297.09375 283.914062 296.953125 283.914062 C 296.566406 283.914062 296.253906 284.195312 296.21875 284.578125 C 296.183594 284.960938 296.496094 285.277344 296.882812 285.3125 C 296.988281 285.3125 297.265625 285.347656 297.265625 285.347656 C 297.652344 285.347656 297.964844 285.066406 297.964844 284.683594 C 297.964844 284.261719 297.6875 283.914062 297.300781 283.914062 Z M 297.300781 283.914062 " fill-opacity="1" fill-rule="nonzero"/></g></svg>