<svg xmlns="http://www.w3.org/2000/svg" xmlns:xlink="http://www.w3.org/1999/xlink" width="800" zoomAndPan="magnify" viewBox="0 0 600 599.999999" height="800" preserveAspectRatio="xMidYMid meet" version="1.0"><defs><clipPath id="id1"><path d="M 215.191406 175.839844 L 425.296875 175.839844 L 425.296875 385.945312 L 215.191406 385.945312 Z M 215.191406 175.839844 " clip-rule="nonzero"/></clipPath><clipPath id="id2"><path d="M 174.8125 294 L 183 294 L 183 304 L 174.8125 304 Z M 174.8125 294 " clip-rule="nonzero"/></clipPath><clipPath id="id3"><path d="M 297 397 L 307 397 L 307 405.871094 L 297 405.871094 Z M 297 397 " clip-rule="nonzero"/></clipPath><clipPath id="id4"><path d="M 397 286 L 404.84375 286 L 404.84375 297 L 397 297 Z M 397 286 " clip-rule="nonzero"/></clipPath><clipPath id="id5"><path d="M 279 398 L 289 398 L 289 405.871094 L 279 405.871094 Z M 279 398 " clip-rule="nonzero"/></clipPath><clipPath id="id6"><path d="M 198.585938 297 L 205 297 L 205 305 L 198.585938 305 Z M 198.585938 297 " clip-rule="nonzero"/></clipPath><clipPath id="id7"><path d="M 299 201.097656 L 308 201.097656 L 308 208 L 299 208 Z M 299 201.097656 " clip-rule="nonzero"/></clipPath><clipPath id="id8"><path d="M 285 201.097656 L 293 201.097656 L 293 208 L 285 208 Z M 285 201.097656 " clip-rule="nonzero"/></clipPath><clipPath id="id9"><path d="M 198.585938 283 L 205 283 L 205 291 L 198.585938 291 Z M 198.585938 283 " clip-rule="nonzero"/></clipPath><clipPath id="id10"><path d="M 379 291 L 385.871094 291 L 385.871094 300 L 379 300 Z M 379 291 " clip-rule="nonzero"/></clipPath><clipPath id="id11"><path d="M 284 382 L 292 382 L 292 388.378906 L 284 388.378906 Z M 284 382 " clip-rule="nonzero"/></clipPath></defs><g clip-path="url(#id1)"><path fill="#a1d2b9" d="M 320.242188 186.347656 C 372.382812 186.347656 414.789062 228.753906 414.789062 280.894531 C 414.789062 333.03125 372.382812 375.441406 320.242188 375.441406 C 268.105469 375.441406 225.695312 333.03125 225.695312 280.894531 C 225.695312 228.753906 268.105469 186.347656 320.242188 186.347656 M 320.242188 175.839844 C 262.222656 175.839844 215.191406 222.871094 215.191406 280.894531 C 215.191406 338.914062 262.222656 385.945312 320.242188 385.945312 C 378.265625 385.945312 425.296875 338.914062 425.296875 280.894531 C 425.296875 222.871094 378.265625 175.839844 320.242188 175.839844 Z M 320.242188 175.839844 " fill-opacity="1" fill-rule="nonzero"/></g><g clip-path="url(#id2)"><path fill="#a1d2b9" d="M 182.351562 299.648438 C 182.351562 299.109375 182.351562 298.570312 182.171875 297.851562 C 181.992188 295.878906 180.375 294.445312 178.402344 294.445312 C 176.429688 294.625 174.992188 296.238281 174.992188 298.210938 C 174.992188 298.75 174.992188 299.46875 175.171875 300.007812 C 175.351562 301.980469 177.148438 303.414062 179.121094 303.234375 C 180.914062 303.414062 182.53125 301.621094 182.351562 299.648438 Z M 182.351562 299.648438 " fill-opacity="1" fill-rule="nonzero"/></g><path fill="#a1d2b9" d="M 185.757812 250.664062 C 187.554688 251.378906 189.707031 250.484375 190.425781 248.6875 C 190.605469 248.332031 190.964844 247.792969 191.140625 247.253906 C 192.039062 245.460938 191.140625 243.304688 189.347656 242.589844 C 187.554688 241.871094 185.402344 242.589844 184.683594 244.382812 C 184.503906 244.921875 184.144531 245.460938 183.964844 246.175781 C 183.066406 247.792969 183.964844 249.945312 185.757812 250.664062 Z M 185.757812 250.664062 " fill-opacity="1" fill-rule="nonzero"/><path fill="#a1d2b9" d="M 180.734375 267.886719 C 182.710938 268.425781 184.683594 267.171875 185.042969 265.195312 C 185.222656 264.660156 185.402344 264.121094 185.402344 263.582031 C 185.9375 261.609375 184.683594 259.632812 182.890625 259.277344 C 180.914062 258.738281 178.941406 259.992188 178.582031 261.789062 C 178.402344 262.324219 178.222656 263.042969 178.042969 263.582031 C 177.503906 265.554688 178.761719 267.53125 180.734375 267.886719 Z M 180.734375 267.886719 " fill-opacity="1" fill-rule="nonzero"/><path fill="#a1d2b9" d="M 185.042969 316.871094 C 184.863281 316.335938 184.683594 315.796875 184.683594 315.257812 C 184.324219 313.285156 182.351562 312.027344 180.375 312.386719 C 178.402344 312.746094 177.328125 314.71875 177.683594 316.691406 C 177.863281 317.230469 178.042969 317.949219 178.042969 318.488281 C 178.582031 320.460938 180.554688 321.539062 182.351562 321.179688 C 184.324219 320.640625 185.582031 318.667969 185.042969 316.871094 Z M 185.042969 316.871094 " fill-opacity="1" fill-rule="nonzero"/><path fill="#a1d2b9" d="M 204.777344 213.519531 C 204.421875 214.058594 203.882812 214.417969 203.523438 214.957031 C 202.265625 216.390625 202.265625 218.722656 203.882812 219.980469 C 205.316406 221.238281 207.648438 221.058594 208.90625 219.621094 C 209.265625 219.261719 209.625 218.722656 209.984375 218.367188 C 211.238281 216.929688 211.238281 214.597656 209.804688 213.339844 C 208.367188 211.90625 206.035156 212.085938 204.777344 213.519531 Z M 204.777344 213.519531 " fill-opacity="1" fill-rule="nonzero"/><path fill="#a1d2b9" d="M 208.007812 361.011719 C 206.753906 359.578125 204.421875 359.398438 202.984375 360.652344 C 201.550781 361.910156 201.371094 364.242188 202.625 365.675781 C 202.984375 366.214844 203.34375 366.574219 203.882812 367.113281 C 205.136719 368.546875 207.46875 368.726562 208.90625 367.472656 C 210.339844 366.214844 210.519531 363.882812 209.265625 362.449219 C 208.726562 361.910156 208.367188 361.550781 208.007812 361.011719 Z M 208.007812 361.011719 " fill-opacity="1" fill-rule="nonzero"/><path fill="#a1d2b9" d="M 189.886719 331.585938 C 189.167969 329.792969 187.015625 328.894531 185.222656 329.613281 C 183.425781 330.328125 182.53125 332.484375 183.246094 334.277344 C 183.425781 334.816406 183.785156 335.355469 183.964844 335.890625 C 184.683594 337.6875 186.835938 338.582031 188.628906 337.867188 C 190.425781 337.148438 191.320312 334.996094 190.605469 333.199219 C 190.425781 332.664062 190.066406 332.125 189.886719 331.585938 Z M 189.886719 331.585938 " fill-opacity="1" fill-rule="nonzero"/><path fill="#a1d2b9" d="M 197.78125 347.015625 C 196.703125 345.402344 194.550781 344.863281 192.757812 345.761719 C 191.140625 346.835938 190.605469 348.992188 191.5 350.785156 C 191.859375 351.324219 192.21875 351.863281 192.398438 352.398438 C 193.476562 354.015625 195.628906 354.554688 197.421875 353.476562 C 199.039062 352.398438 199.574219 350.246094 198.5 348.453125 C 198.320312 348.09375 198.140625 347.554688 197.78125 347.015625 Z M 197.78125 347.015625 " fill-opacity="1" fill-rule="nonzero"/><path fill="#a1d2b9" d="M 198.5 226.976562 C 196.882812 225.902344 194.550781 226.441406 193.476562 228.054688 C 193.117188 228.59375 192.757812 229.132812 192.398438 229.667969 C 191.320312 231.285156 191.859375 233.617188 193.476562 234.695312 C 195.089844 235.769531 197.421875 235.230469 198.5 233.617188 C 198.859375 233.078125 199.039062 232.71875 199.394531 232.183594 C 200.472656 230.386719 200.113281 228.054688 198.5 226.976562 Z M 198.5 226.976562 " fill-opacity="1" fill-rule="nonzero"/><path fill="#a1d2b9" d="M 385.824219 242.050781 C 386.722656 243.84375 388.875 244.5625 390.667969 243.664062 C 392.460938 242.769531 393.179688 240.613281 392.285156 238.820312 C 391.925781 238.28125 391.746094 237.742188 391.386719 237.207031 C 390.488281 235.410156 388.335938 234.695312 386.542969 235.769531 C 384.746094 236.667969 384.210938 238.820312 385.105469 240.613281 C 385.285156 240.972656 385.464844 241.511719 385.824219 242.050781 Z M 385.824219 242.050781 " fill-opacity="1" fill-rule="nonzero"/><path fill="#a1d2b9" d="M 319.433594 187.324219 C 319.972656 187.503906 320.511719 187.683594 321.050781 187.863281 C 322.84375 188.402344 324.996094 187.324219 325.535156 185.53125 C 326.074219 183.554688 324.996094 181.582031 323.203125 181.042969 C 322.664062 180.863281 321.945312 180.683594 321.410156 180.507812 C 319.433594 179.96875 317.460938 181.042969 316.921875 183.019531 C 316.382812 184.8125 317.460938 186.785156 319.433594 187.324219 Z M 319.433594 187.324219 " fill-opacity="1" fill-rule="nonzero"/><path fill="#a1d2b9" d="M 335.582031 193.425781 C 336.121094 193.605469 336.660156 193.964844 337.199219 194.144531 C 338.992188 195.039062 341.144531 194.320312 342.042969 192.527344 C 342.941406 190.734375 342.222656 188.582031 340.429688 187.683594 C 339.890625 187.324219 339.351562 187.144531 338.8125 186.964844 C 337.019531 186.066406 334.867188 186.964844 333.96875 188.757812 C 333.070312 190.375 333.789062 192.527344 335.582031 193.425781 Z M 335.582031 193.425781 " fill-opacity="1" fill-rule="nonzero"/><path fill="#a1d2b9" d="M 350.65625 202.039062 C 351.195312 202.394531 351.554688 202.753906 352.089844 203.113281 C 353.707031 204.191406 356.039062 203.832031 357.113281 202.21875 C 358.191406 200.601562 357.832031 198.449219 356.21875 197.191406 C 355.679688 196.835938 355.140625 196.476562 354.78125 196.117188 C 353.167969 195.039062 350.835938 195.398438 349.757812 197.011719 C 348.683594 198.628906 349.039062 200.960938 350.65625 202.039062 Z M 350.65625 202.039062 " fill-opacity="1" fill-rule="nonzero"/><path fill="#a1d2b9" d="M 396.050781 273.269531 C 396.230469 273.808594 396.230469 274.347656 396.410156 275.066406 C 396.769531 277.039062 398.5625 278.296875 400.539062 278.117188 C 402.511719 277.757812 403.765625 275.960938 403.585938 273.988281 C 403.585938 273.449219 403.40625 272.734375 403.230469 272.195312 C 402.871094 270.222656 401.074219 268.964844 399.101562 269.144531 C 397.128906 269.503906 395.691406 271.296875 396.050781 273.269531 Z M 396.050781 273.269531 " fill-opacity="1" fill-rule="nonzero"/><path fill="#a1d2b9" d="M 391.925781 256.40625 C 392.105469 256.941406 392.285156 257.480469 392.460938 258.019531 C 393 259.8125 395.15625 260.890625 396.949219 260.351562 C 398.921875 259.8125 399.820312 257.660156 399.28125 255.867188 C 399.101562 255.328125 398.921875 254.609375 398.742188 254.070312 C 398.023438 252.277344 396.050781 251.203125 394.257812 251.738281 C 392.285156 252.457031 391.207031 254.609375 391.925781 256.40625 Z M 391.925781 256.40625 " fill-opacity="1" fill-rule="nonzero"/><path fill="#a1d2b9" d="M 302.390625 183.914062 C 302.925781 183.914062 304.363281 184.09375 304.542969 184.09375 C 306.335938 184.09375 307.773438 182.839844 308.128906 181.042969 C 308.308594 179.070312 307.054688 177.277344 305.082031 177.097656 C 304.542969 177.097656 303.824219 176.917969 303.285156 176.917969 C 301.3125 176.738281 299.519531 178.171875 299.339844 180.148438 C 298.980469 181.941406 300.414062 183.734375 302.390625 183.914062 Z M 302.390625 183.914062 " fill-opacity="1" fill-rule="nonzero"/><path fill="#a1d2b9" d="M 233.847656 198.089844 C 235.101562 198.089844 236.179688 197.371094 237.078125 196.835938 C 238.871094 195.9375 239.410156 193.605469 238.511719 191.988281 C 237.613281 190.195312 235.28125 189.65625 233.667969 190.554688 C 233.128906 190.914062 232.589844 191.09375 232.050781 191.453125 C 230.257812 192.527344 229.71875 194.679688 230.796875 196.296875 C 231.335938 197.550781 232.589844 198.089844 233.847656 198.089844 Z M 233.847656 198.089844 " fill-opacity="1" fill-rule="nonzero"/><path fill="#a1d2b9" d="M 219.132812 208.316406 C 220.570312 208.316406 221.644531 207.242188 222.722656 206.34375 C 224.335938 205.085938 224.515625 202.933594 223.261719 201.320312 C 222.003906 199.703125 219.851562 199.527344 218.238281 200.78125 C 217.699219 201.140625 217.339844 201.5 216.800781 201.859375 C 215.1875 203.113281 215.007812 205.445312 216.261719 206.882812 C 216.980469 207.957031 218.058594 208.316406 219.132812 208.316406 Z M 219.132812 208.316406 " fill-opacity="1" fill-rule="nonzero"/><path fill="#a1d2b9" d="M 249.996094 190.375 C 251.070312 190.375 251.96875 189.835938 252.867188 189.476562 C 254.660156 188.757812 255.738281 186.785156 255.019531 184.8125 C 254.300781 183.019531 252.328125 181.941406 250.355469 182.660156 C 249.816406 182.839844 249.277344 183.019531 248.558594 183.375 C 246.765625 184.09375 245.867188 186.246094 246.40625 188.042969 C 247.125 189.476562 248.558594 190.375 249.996094 190.375 Z M 249.996094 190.375 " fill-opacity="1" fill-rule="nonzero"/><path fill="#a1d2b9" d="M 267.222656 185.53125 C 268.117188 185.53125 268.835938 185.351562 269.734375 185.171875 C 271.707031 184.8125 272.960938 182.839844 272.605469 181.042969 C 272.246094 179.070312 270.269531 177.816406 268.476562 178.171875 C 267.9375 178.351562 267.222656 178.351562 266.683594 178.53125 C 264.707031 178.890625 263.453125 180.863281 263.8125 182.839844 C 263.992188 184.273438 265.425781 185.53125 267.222656 185.53125 Z M 267.222656 185.53125 " fill-opacity="1" fill-rule="nonzero"/><path fill="#a1d2b9" d="M 284.984375 183.199219 C 284.984375 183.199219 286.242188 183.199219 286.957031 183.199219 C 288.933594 183.199219 290.546875 181.582031 290.367188 179.429688 C 290.367188 177.457031 288.753906 175.839844 286.597656 176.019531 C 286.0625 176.019531 285.34375 176.019531 284.804688 176.019531 C 282.832031 176.019531 281.214844 177.816406 281.394531 179.789062 C 281.394531 181.761719 283.011719 183.199219 284.984375 183.199219 Z M 284.984375 183.199219 " fill-opacity="1" fill-rule="nonzero"/><path fill="#a1d2b9" d="M 178.402344 285.652344 C 180.375 285.832031 182.171875 284.394531 182.351562 282.421875 C 182.351562 281.882812 182.53125 281.34375 182.53125 280.628906 C 182.710938 278.652344 181.273438 276.859375 179.300781 276.679688 C 177.328125 276.5 175.53125 277.9375 175.351562 279.910156 C 175.351562 280.449219 175.171875 281.167969 175.171875 281.703125 C 174.992188 283.859375 176.429688 285.472656 178.402344 285.652344 Z M 178.402344 285.652344 " fill-opacity="1" fill-rule="nonzero"/><path fill="#a1d2b9" d="M 335.941406 388.105469 C 335.402344 388.285156 334.867188 388.644531 334.328125 388.824219 C 332.535156 389.722656 331.636719 391.695312 332.535156 393.488281 C 333.429688 395.285156 335.582031 396 337.378906 395.285156 C 337.917969 395.105469 338.453125 394.746094 338.992188 394.566406 C 340.785156 393.667969 341.503906 391.515625 340.609375 389.722656 C 339.890625 388.105469 337.738281 387.386719 335.941406 388.105469 Z M 335.941406 388.105469 " fill-opacity="1" fill-rule="nonzero"/><path fill="#a1d2b9" d="M 351.015625 379.492188 C 350.476562 379.851562 350.117188 380.210938 349.578125 380.390625 C 347.964844 381.46875 347.425781 383.800781 348.503906 385.414062 C 349.578125 387.03125 351.910156 387.566406 353.527344 386.492188 C 354.066406 386.132812 354.601562 385.773438 355.140625 385.414062 C 356.757812 384.339844 357.113281 382.003906 356.039062 380.390625 C 354.78125 378.777344 352.628906 378.417969 351.015625 379.492188 Z M 351.015625 379.492188 " fill-opacity="1" fill-rule="nonzero"/><path fill="#a1d2b9" d="M 364.292969 368.546875 C 363.933594 368.90625 363.394531 369.265625 363.035156 369.804688 C 361.601562 371.238281 361.421875 373.394531 362.855469 374.828125 C 364.113281 376.265625 366.445312 376.265625 367.882812 375.007812 C 368.417969 374.648438 368.777344 374.109375 369.136719 373.753906 C 370.574219 372.316406 370.574219 370.164062 369.316406 368.726562 C 368.058594 367.292969 365.726562 367.113281 364.292969 368.546875 Z M 364.292969 368.546875 " fill-opacity="1" fill-rule="nonzero"/><path fill="#a1d2b9" d="M 319.792969 394.386719 C 319.253906 394.566406 318.71875 394.746094 318.179688 394.925781 C 316.207031 395.464844 315.128906 397.4375 315.667969 399.410156 C 316.027344 401.023438 317.460938 402.101562 319.074219 402.101562 C 319.433594 402.101562 321.230469 401.5625 321.765625 401.382812 C 323.742188 400.847656 324.816406 398.871094 324.28125 396.898438 C 323.742188 394.925781 321.589844 393.847656 319.792969 394.386719 Z M 319.792969 394.386719 " fill-opacity="1" fill-rule="nonzero"/><path fill="#a1d2b9" d="M 389.949219 339.480469 C 388.15625 338.582031 386.003906 339.300781 385.105469 340.917969 C 384.746094 341.453125 384.566406 341.992188 384.210938 342.53125 C 383.3125 344.324219 383.851562 346.480469 385.644531 347.375 C 387.4375 348.273438 389.59375 347.734375 390.488281 345.941406 C 390.847656 345.402344 391.027344 344.863281 391.386719 344.324219 C 392.460938 342.53125 391.746094 340.378906 389.949219 339.480469 Z M 389.949219 339.480469 " fill-opacity="1" fill-rule="nonzero"/><path fill="#a1d2b9" d="M 400.179688 305.210938 C 398.203125 304.851562 396.410156 306.285156 396.050781 308.261719 C 395.871094 308.796875 395.871094 309.335938 395.691406 309.875 C 395.332031 311.847656 396.589844 313.644531 398.5625 314 C 400.539062 314.359375 402.332031 313.105469 402.691406 311.132812 C 402.871094 310.59375 402.871094 309.875 403.050781 309.335938 C 403.585938 307.363281 402.152344 305.570312 400.179688 305.210938 Z M 400.179688 305.210938 " fill-opacity="1" fill-rule="nonzero"/><path fill="#a1d2b9" d="M 381.339844 221.59375 C 380.082031 219.980469 377.929688 219.621094 376.3125 220.878906 C 374.699219 222.132812 374.339844 224.285156 375.597656 225.902344 C 375.957031 226.441406 376.3125 226.800781 376.671875 227.335938 C 377.75 228.953125 380.082031 229.3125 381.695312 228.054688 C 383.3125 226.800781 383.671875 224.644531 382.414062 223.03125 C 382.234375 222.492188 381.875 222.132812 381.339844 221.59375 Z M 381.339844 221.59375 " fill-opacity="1" fill-rule="nonzero"/><path fill="#a1d2b9" d="M 380.980469 354.910156 C 379.363281 353.65625 377.210938 354.015625 375.957031 355.628906 C 375.597656 356.167969 375.238281 356.527344 374.878906 357.066406 C 373.621094 358.679688 373.980469 360.832031 375.597656 362.089844 C 377.210938 363.34375 379.363281 362.984375 380.621094 361.371094 C 380.980469 360.832031 381.339844 360.472656 381.695312 359.9375 C 382.773438 358.320312 382.414062 355.988281 380.980469 354.910156 Z M 380.980469 354.910156 " fill-opacity="1" fill-rule="nonzero"/><path fill="#a1d2b9" d="M 369.136719 207.78125 C 367.703125 206.34375 365.367188 206.523438 364.113281 207.957031 C 362.675781 209.394531 362.855469 211.726562 364.292969 212.984375 C 364.652344 213.339844 365.191406 213.699219 365.546875 214.238281 C 366.984375 215.675781 369.316406 215.675781 370.574219 214.238281 C 372.007812 212.804688 372.007812 210.472656 370.574219 209.214844 C 370.035156 208.675781 369.496094 208.316406 369.136719 207.78125 Z M 369.136719 207.78125 " fill-opacity="1" fill-rule="nonzero"/><g clip-path="url(#id3)"><path fill="#a1d2b9" d="M 302.746094 397.796875 C 302.210938 397.796875 301.671875 397.976562 300.953125 397.976562 C 298.980469 398.15625 297.542969 399.949219 297.722656 401.921875 C 297.902344 403.714844 299.519531 405.152344 301.3125 405.152344 C 301.492188 405.152344 302.925781 404.972656 303.464844 404.972656 C 305.4375 404.792969 306.875 403 306.515625 401.023438 C 306.515625 399.050781 304.722656 397.617188 302.746094 397.796875 Z M 302.746094 397.796875 " fill-opacity="1" fill-rule="nonzero"/></g><path fill="#a1d2b9" d="M 220.210938 373.214844 C 218.773438 371.957031 216.441406 372.136719 215.1875 373.574219 C 213.929688 375.007812 214.109375 377.339844 215.546875 378.597656 C 216.082031 378.957031 216.441406 379.3125 216.980469 379.851562 C 218.414062 381.109375 220.75 380.929688 222.003906 379.3125 C 223.261719 377.699219 223.082031 375.546875 221.464844 374.289062 C 221.105469 373.929688 220.75 373.574219 220.210938 373.214844 Z M 220.210938 373.214844 " fill-opacity="1" fill-rule="nonzero"/><path fill="#a1d2b9" d="M 235.820312 384.160156 C 235.28125 383.800781 234.742188 383.621094 234.386719 383.261719 C 232.769531 382.183594 230.4375 382.722656 229.539062 384.519531 C 228.464844 386.132812 229.003906 388.464844 230.796875 389.363281 C 231.335938 389.722656 231.875 390.082031 232.410156 390.257812 C 234.027344 391.15625 236.359375 390.617188 237.257812 389.003906 C 238.152344 387.386719 237.613281 385.234375 235.820312 384.160156 Z M 235.820312 384.160156 " fill-opacity="1" fill-rule="nonzero"/><path fill="#a1d2b9" d="M 251.609375 391.695312 C 251.070312 391.515625 250.535156 391.335938 249.996094 390.976562 C 248.203125 390.257812 246.046875 391.15625 245.332031 392.949219 C 244.613281 394.746094 245.511719 396.898438 247.304688 397.617188 C 247.84375 397.796875 248.378906 398.15625 249.097656 398.332031 C 250.894531 399.050781 253.046875 398.15625 253.761719 396.179688 C 254.300781 394.386719 253.40625 392.414062 251.609375 391.695312 Z M 251.609375 391.695312 " fill-opacity="1" fill-rule="nonzero"/><path fill="#a1d2b9" d="M 396.589844 322.792969 C 394.617188 322.253906 392.640625 323.152344 392.105469 325.125 C 391.925781 325.664062 391.746094 326.203125 391.566406 326.742188 C 390.847656 328.535156 391.925781 330.6875 393.71875 331.40625 C 395.511719 332.125 397.667969 331.046875 398.382812 329.253906 C 398.5625 328.714844 398.742188 327.996094 398.921875 327.460938 C 399.460938 325.304688 398.382812 323.332031 396.589844 322.792969 Z M 396.589844 322.792969 " fill-opacity="1" fill-rule="nonzero"/><path fill="#a1d2b9" d="M 268.296875 396.539062 C 267.757812 396.359375 267.222656 396.359375 266.683594 396.179688 C 264.707031 395.820312 262.914062 396.898438 262.375 398.871094 C 262.015625 400.847656 263.09375 402.640625 265.066406 403.179688 C 265.605469 403.359375 267.398438 403.714844 267.578125 403.714844 C 269.195312 403.714844 270.808594 402.460938 271.167969 400.847656 C 271.527344 398.691406 270.269531 396.898438 268.296875 396.539062 Z M 268.296875 396.539062 " fill-opacity="1" fill-rule="nonzero"/><g clip-path="url(#id4)"><path fill="#a1d2b9" d="M 401.074219 286.90625 C 399.101562 286.90625 397.488281 288.523438 397.488281 290.496094 C 397.488281 290.496094 397.488281 292.113281 397.488281 292.648438 C 397.488281 294.625 399.101562 296.238281 401.074219 296.238281 C 403.050781 296.238281 404.664062 294.625 404.664062 292.648438 C 404.664062 292.113281 404.664062 290.496094 404.664062 290.496094 C 404.664062 288.523438 403.050781 286.90625 401.074219 286.90625 Z M 401.074219 286.90625 " fill-opacity="1" fill-rule="nonzero"/></g><g clip-path="url(#id5)"><path fill="#a1d2b9" d="M 285.523438 398.511719 C 284.984375 398.511719 284.445312 398.511719 283.726562 398.511719 C 281.753906 398.511719 280.140625 399.949219 279.960938 401.921875 C 279.78125 403.894531 281.394531 405.511719 283.371094 405.691406 C 283.90625 405.691406 285.34375 405.871094 285.34375 405.871094 C 287.316406 405.871094 288.933594 404.433594 288.933594 402.460938 C 288.933594 400.308594 287.496094 398.511719 285.523438 398.511719 Z M 285.523438 398.511719 " fill-opacity="1" fill-rule="nonzero"/></g><g clip-path="url(#id6)"><path fill="#a1d2b9" d="M 204.722656 301.894531 C 204.722656 301.457031 204.722656 301.019531 204.574219 300.433594 C 204.429688 298.828125 203.113281 297.660156 201.507812 297.660156 C 199.902344 297.804688 198.730469 299.121094 198.730469 300.726562 C 198.730469 301.164062 198.730469 301.75 198.878906 302.1875 C 199.023438 303.796875 200.484375 304.964844 202.089844 304.816406 C 203.550781 304.964844 204.867188 303.503906 204.722656 301.894531 Z M 204.722656 301.894531 " fill-opacity="1" fill-rule="nonzero"/></g><path fill="#a1d2b9" d="M 207.496094 262.015625 C 208.957031 262.597656 210.710938 261.867188 211.296875 260.40625 C 211.441406 260.117188 211.734375 259.675781 211.878906 259.238281 C 212.609375 257.777344 211.878906 256.023438 210.417969 255.441406 C 208.957031 254.855469 207.203125 255.441406 206.621094 256.902344 C 206.472656 257.339844 206.183594 257.777344 206.035156 258.363281 C 205.304688 259.675781 206.035156 261.429688 207.496094 262.015625 Z M 207.496094 262.015625 " fill-opacity="1" fill-rule="nonzero"/><path fill="#a1d2b9" d="M 203.40625 276.039062 C 205.011719 276.476562 206.621094 275.453125 206.914062 273.847656 C 207.058594 273.410156 207.203125 272.972656 207.203125 272.53125 C 207.644531 270.925781 206.621094 269.320312 205.160156 269.027344 C 203.550781 268.589844 201.945312 269.609375 201.652344 271.070312 C 201.507812 271.511719 201.359375 272.09375 201.214844 272.53125 C 200.777344 274.140625 201.800781 275.746094 203.40625 276.039062 Z M 203.40625 276.039062 " fill-opacity="1" fill-rule="nonzero"/><path fill="#a1d2b9" d="M 206.914062 315.921875 C 206.765625 315.480469 206.621094 315.042969 206.621094 314.605469 C 206.328125 313 204.722656 311.976562 203.113281 312.269531 C 201.507812 312.558594 200.628906 314.167969 200.921875 315.773438 C 201.070312 316.210938 201.214844 316.796875 201.214844 317.234375 C 201.652344 318.84375 203.261719 319.71875 204.722656 319.425781 C 206.328125 318.988281 207.351562 317.382812 206.914062 315.921875 Z M 206.914062 315.921875 " fill-opacity="1" fill-rule="nonzero"/><path fill="#a1d2b9" d="M 222.980469 231.773438 C 222.691406 232.210938 222.25 232.503906 221.960938 232.941406 C 220.9375 234.113281 220.9375 236.011719 222.25 237.035156 C 223.421875 238.054688 225.320312 237.910156 226.34375 236.742188 C 226.632812 236.449219 226.925781 236.011719 227.21875 235.71875 C 228.242188 234.550781 228.242188 232.652344 227.074219 231.628906 C 225.902344 230.460938 224.003906 230.605469 222.980469 231.773438 Z M 222.980469 231.773438 " fill-opacity="1" fill-rule="nonzero"/><path fill="#a1d2b9" d="M 225.613281 351.859375 C 224.589844 350.6875 222.691406 350.542969 221.519531 351.566406 C 220.351562 352.589844 220.207031 354.488281 221.230469 355.65625 C 221.519531 356.09375 221.8125 356.386719 222.25 356.824219 C 223.273438 357.992188 225.171875 358.140625 226.34375 357.117188 C 227.511719 356.09375 227.65625 354.195312 226.632812 353.027344 C 226.195312 352.589844 225.902344 352.296875 225.613281 351.859375 Z M 225.613281 351.859375 " fill-opacity="1" fill-rule="nonzero"/><path fill="#a1d2b9" d="M 210.855469 327.898438 C 210.273438 326.4375 208.519531 325.707031 207.058594 326.292969 C 205.597656 326.878906 204.867188 328.628906 205.453125 330.089844 C 205.597656 330.527344 205.890625 330.96875 206.035156 331.40625 C 206.621094 332.867188 208.375 333.597656 209.835938 333.011719 C 211.296875 332.429688 212.027344 330.675781 211.441406 329.214844 C 211.296875 328.777344 211.003906 328.335938 210.855469 327.898438 Z M 210.855469 327.898438 " fill-opacity="1" fill-rule="nonzero"/><path fill="#a1d2b9" d="M 217.285156 340.464844 C 216.410156 339.148438 214.65625 338.710938 213.195312 339.441406 C 211.878906 340.316406 211.441406 342.070312 212.171875 343.53125 C 212.464844 343.96875 212.757812 344.40625 212.902344 344.847656 C 213.777344 346.160156 215.53125 346.597656 216.992188 345.722656 C 218.308594 344.847656 218.746094 343.09375 217.867188 341.632812 C 217.722656 341.339844 217.578125 340.902344 217.285156 340.464844 Z M 217.285156 340.464844 " fill-opacity="1" fill-rule="nonzero"/><path fill="#a1d2b9" d="M 217.867188 242.730469 C 216.554688 241.855469 214.65625 242.292969 213.777344 243.609375 C 213.488281 244.046875 213.195312 244.484375 212.902344 244.921875 C 212.027344 246.238281 212.464844 248.136719 213.777344 249.011719 C 215.09375 249.890625 216.992188 249.449219 217.867188 248.136719 C 218.160156 247.699219 218.308594 247.40625 218.597656 246.96875 C 219.476562 245.507812 219.183594 243.609375 217.867188 242.730469 Z M 217.867188 242.730469 " fill-opacity="1" fill-rule="nonzero"/><path fill="#a1d2b9" d="M 370.382812 255.003906 C 371.113281 256.464844 372.867188 257.046875 374.328125 256.316406 C 375.789062 255.585938 376.375 253.832031 375.644531 252.371094 C 375.351562 251.933594 375.203125 251.496094 374.914062 251.058594 C 374.183594 249.597656 372.429688 249.011719 370.96875 249.890625 C 369.507812 250.621094 369.070312 252.371094 369.800781 253.832031 C 369.945312 254.125 370.089844 254.5625 370.382812 255.003906 Z M 370.382812 255.003906 " fill-opacity="1" fill-rule="nonzero"/><path fill="#a1d2b9" d="M 316.332031 210.445312 C 316.769531 210.589844 317.207031 210.738281 317.648438 210.882812 C 319.105469 211.320312 320.859375 210.445312 321.296875 208.984375 C 321.738281 207.378906 320.859375 205.769531 319.398438 205.332031 C 318.960938 205.1875 318.378906 205.039062 317.9375 204.894531 C 316.332031 204.457031 314.726562 205.332031 314.285156 206.941406 C 313.847656 208.402344 314.726562 210.007812 316.332031 210.445312 Z M 316.332031 210.445312 " fill-opacity="1" fill-rule="nonzero"/><path fill="#a1d2b9" d="M 329.480469 215.414062 C 329.917969 215.558594 330.355469 215.851562 330.792969 215.996094 C 332.253906 216.726562 334.007812 216.144531 334.738281 214.683594 C 335.46875 213.222656 334.886719 211.46875 333.425781 210.738281 C 332.984375 210.445312 332.546875 210.300781 332.109375 210.152344 C 330.648438 209.421875 328.894531 210.152344 328.164062 211.613281 C 327.433594 212.929688 328.019531 214.683594 329.480469 215.414062 Z M 329.480469 215.414062 " fill-opacity="1" fill-rule="nonzero"/><path fill="#a1d2b9" d="M 341.75 222.425781 C 342.1875 222.71875 342.480469 223.007812 342.917969 223.300781 C 344.234375 224.179688 346.132812 223.886719 347.011719 222.570312 C 347.886719 221.257812 347.59375 219.503906 346.28125 218.480469 C 345.839844 218.1875 345.402344 217.894531 345.109375 217.605469 C 343.796875 216.726562 341.898438 217.019531 341.019531 218.335938 C 340.144531 219.648438 340.4375 221.546875 341.75 222.425781 Z M 341.75 222.425781 " fill-opacity="1" fill-rule="nonzero"/><path fill="#a1d2b9" d="M 378.710938 280.421875 C 378.855469 280.859375 378.855469 281.296875 379.003906 281.882812 C 379.296875 283.488281 380.757812 284.511719 382.363281 284.367188 C 383.96875 284.074219 384.992188 282.613281 384.847656 281.003906 C 384.847656 280.566406 384.699219 279.984375 384.554688 279.542969 C 384.261719 277.9375 382.800781 276.914062 381.195312 277.0625 C 379.585938 277.355469 378.417969 278.8125 378.710938 280.421875 Z M 378.710938 280.421875 " fill-opacity="1" fill-rule="nonzero"/><path fill="#a1d2b9" d="M 375.351562 266.6875 C 375.496094 267.128906 375.644531 267.566406 375.789062 268.003906 C 376.226562 269.464844 377.980469 270.339844 379.441406 269.902344 C 381.046875 269.464844 381.777344 267.710938 381.339844 266.25 C 381.195312 265.8125 381.046875 265.226562 380.902344 264.789062 C 380.316406 263.328125 378.710938 262.453125 377.25 262.890625 C 375.644531 263.476562 374.765625 265.226562 375.351562 266.6875 Z M 375.351562 266.6875 " fill-opacity="1" fill-rule="nonzero"/><g clip-path="url(#id7)"><path fill="#a1d2b9" d="M 302.453125 207.671875 C 302.890625 207.671875 304.058594 207.816406 304.207031 207.816406 C 305.667969 207.816406 306.835938 206.792969 307.128906 205.332031 C 307.273438 203.726562 306.25 202.265625 304.644531 202.117188 C 304.207031 202.117188 303.621094 201.972656 303.183594 201.972656 C 301.578125 201.828125 300.117188 202.996094 299.96875 204.601562 C 299.679688 206.0625 300.847656 207.523438 302.453125 207.671875 Z M 302.453125 207.671875 " fill-opacity="1" fill-rule="nonzero"/></g><path fill="#a1d2b9" d="M 246.648438 219.210938 C 247.671875 219.210938 248.546875 218.625 249.277344 218.1875 C 250.738281 217.457031 251.175781 215.558594 250.445312 214.242188 C 249.714844 212.78125 247.816406 212.34375 246.503906 213.074219 C 246.0625 213.367188 245.625 213.511719 245.1875 213.804688 C 243.726562 214.683594 243.289062 216.433594 244.164062 217.75 C 244.601562 218.773438 245.625 219.210938 246.648438 219.210938 Z M 246.648438 219.210938 " fill-opacity="1" fill-rule="nonzero"/><path fill="#a1d2b9" d="M 234.667969 227.539062 C 235.835938 227.539062 236.714844 226.660156 237.589844 225.929688 C 238.90625 224.910156 239.050781 223.15625 238.027344 221.839844 C 237.007812 220.527344 235.253906 220.378906 233.9375 221.402344 C 233.5 221.695312 233.207031 221.988281 232.769531 222.277344 C 231.457031 223.300781 231.308594 225.199219 232.332031 226.371094 C 232.917969 227.246094 233.792969 227.539062 234.667969 227.539062 Z M 234.667969 227.539062 " fill-opacity="1" fill-rule="nonzero"/><path fill="#a1d2b9" d="M 259.796875 212.929688 C 260.671875 212.929688 261.402344 212.492188 262.132812 212.199219 C 263.59375 211.613281 264.472656 210.007812 263.886719 208.402344 C 263.300781 206.941406 261.695312 206.0625 260.089844 206.648438 C 259.648438 206.792969 259.210938 206.941406 258.628906 207.230469 C 257.167969 207.816406 256.4375 209.570312 256.875 211.03125 C 257.457031 212.199219 258.628906 212.929688 259.796875 212.929688 Z M 259.796875 212.929688 " fill-opacity="1" fill-rule="nonzero"/><path fill="#a1d2b9" d="M 273.820312 208.984375 C 274.550781 208.984375 275.136719 208.839844 275.867188 208.691406 C 277.472656 208.402344 278.496094 206.792969 278.203125 205.332031 C 277.910156 203.726562 276.304688 202.703125 274.84375 202.996094 C 274.40625 203.140625 273.820312 203.140625 273.382812 203.289062 C 271.773438 203.578125 270.753906 205.1875 271.042969 206.792969 C 271.191406 207.960938 272.359375 208.984375 273.820312 208.984375 Z M 273.820312 208.984375 " fill-opacity="1" fill-rule="nonzero"/><g clip-path="url(#id8)"><path fill="#a1d2b9" d="M 288.28125 207.085938 C 288.28125 207.085938 289.304688 207.085938 289.890625 207.085938 C 291.496094 207.085938 292.8125 205.769531 292.664062 204.019531 C 292.664062 202.410156 291.351562 201.097656 289.597656 201.242188 C 289.160156 201.242188 288.574219 201.242188 288.136719 201.242188 C 286.53125 201.242188 285.214844 202.703125 285.359375 204.308594 C 285.359375 205.917969 286.675781 207.085938 288.28125 207.085938 Z M 288.28125 207.085938 " fill-opacity="1" fill-rule="nonzero"/></g><g clip-path="url(#id9)"><path fill="#a1d2b9" d="M 201.507812 290.5 C 203.113281 290.648438 204.574219 289.480469 204.722656 287.871094 C 204.722656 287.433594 204.867188 286.996094 204.867188 286.410156 C 205.011719 284.804688 203.84375 283.34375 202.238281 283.195312 C 200.628906 283.050781 199.171875 284.21875 199.023438 285.828125 C 199.023438 286.265625 198.878906 286.847656 198.878906 287.289062 C 198.730469 289.039062 199.902344 290.355469 201.507812 290.5 Z M 201.507812 290.5 " fill-opacity="1" fill-rule="nonzero"/></g><path fill="#a1d2b9" d="M 329.773438 373.917969 C 329.332031 374.0625 328.894531 374.355469 328.457031 374.5 C 326.996094 375.230469 326.265625 376.839844 326.996094 378.300781 C 327.726562 379.761719 329.480469 380.34375 330.941406 379.761719 C 331.378906 379.613281 331.816406 379.320312 332.253906 379.175781 C 333.714844 378.445312 334.300781 376.691406 333.570312 375.230469 C 332.984375 373.917969 331.234375 373.332031 329.773438 373.917969 Z M 329.773438 373.917969 " fill-opacity="1" fill-rule="nonzero"/><path fill="#a1d2b9" d="M 342.042969 366.90625 C 341.605469 367.195312 341.3125 367.488281 340.875 367.636719 C 339.558594 368.511719 339.121094 370.410156 339.996094 371.726562 C 340.875 373.039062 342.773438 373.480469 344.089844 372.601562 C 344.527344 372.308594 344.964844 372.019531 345.402344 371.726562 C 346.71875 370.847656 347.011719 368.949219 346.132812 367.636719 C 345.109375 366.320312 343.359375 366.027344 342.042969 366.90625 Z M 342.042969 366.90625 " fill-opacity="1" fill-rule="nonzero"/><path fill="#a1d2b9" d="M 352.851562 357.992188 C 352.5625 358.285156 352.125 358.578125 351.832031 359.015625 C 350.664062 360.183594 350.515625 361.9375 351.683594 363.105469 C 352.707031 364.273438 354.605469 364.273438 355.773438 363.253906 C 356.214844 362.960938 356.503906 362.523438 356.796875 362.230469 C 357.964844 361.0625 357.964844 359.308594 356.945312 358.140625 C 355.921875 356.972656 354.023438 356.824219 352.851562 357.992188 Z M 352.851562 357.992188 " fill-opacity="1" fill-rule="nonzero"/><path fill="#a1d2b9" d="M 316.625 379.03125 C 316.1875 379.175781 315.746094 379.320312 315.308594 379.46875 C 313.703125 379.90625 312.824219 381.511719 313.265625 383.121094 C 313.554688 384.433594 314.726562 385.3125 316.039062 385.3125 C 316.332031 385.3125 317.792969 384.875 318.230469 384.726562 C 319.835938 384.289062 320.714844 382.683594 320.277344 381.074219 C 319.835938 379.46875 318.085938 378.59375 316.625 379.03125 Z M 316.625 379.03125 " fill-opacity="1" fill-rule="nonzero"/><path fill="#a1d2b9" d="M 373.742188 334.328125 C 372.28125 333.597656 370.53125 334.179688 369.800781 335.496094 C 369.507812 335.933594 369.359375 336.371094 369.070312 336.8125 C 368.339844 338.273438 368.777344 340.023438 370.238281 340.753906 C 371.699219 341.484375 373.453125 341.046875 374.183594 339.585938 C 374.472656 339.148438 374.621094 338.710938 374.914062 338.273438 C 375.789062 336.8125 375.203125 335.058594 373.742188 334.328125 Z M 373.742188 334.328125 " fill-opacity="1" fill-rule="nonzero"/><path fill="#a1d2b9" d="M 382.070312 306.425781 C 380.464844 306.132812 379.003906 307.300781 378.710938 308.910156 C 378.566406 309.347656 378.566406 309.785156 378.417969 310.222656 C 378.125 311.828125 379.148438 313.289062 380.757812 313.582031 C 382.363281 313.875 383.824219 312.851562 384.117188 311.246094 C 384.261719 310.808594 384.261719 310.222656 384.410156 309.785156 C 384.847656 308.179688 383.679688 306.71875 382.070312 306.425781 Z M 382.070312 306.425781 " fill-opacity="1" fill-rule="nonzero"/><path fill="#a1d2b9" d="M 366.730469 238.347656 C 365.710938 237.035156 363.957031 236.742188 362.640625 237.765625 C 361.328125 238.785156 361.035156 240.539062 362.058594 241.855469 C 362.347656 242.292969 362.640625 242.585938 362.933594 243.023438 C 363.808594 244.335938 365.710938 244.628906 367.023438 243.609375 C 368.339844 242.585938 368.632812 240.832031 367.609375 239.515625 C 367.460938 239.078125 367.171875 238.785156 366.730469 238.347656 Z M 366.730469 238.347656 " fill-opacity="1" fill-rule="nonzero"/><path fill="#a1d2b9" d="M 366.441406 346.890625 C 365.125 345.867188 363.371094 346.160156 362.347656 347.476562 C 362.058594 347.914062 361.765625 348.207031 361.472656 348.644531 C 360.449219 349.957031 360.742188 351.710938 362.058594 352.734375 C 363.371094 353.757812 365.125 353.464844 366.148438 352.148438 C 366.441406 351.710938 366.730469 351.417969 367.023438 350.980469 C 367.902344 349.667969 367.609375 347.765625 366.441406 346.890625 Z M 366.441406 346.890625 " fill-opacity="1" fill-rule="nonzero"/><path fill="#a1d2b9" d="M 356.796875 227.097656 C 355.628906 225.929688 353.730469 226.078125 352.707031 227.246094 C 351.539062 228.414062 351.683594 230.3125 352.851562 231.335938 C 353.144531 231.628906 353.582031 231.921875 353.875 232.359375 C 355.042969 233.527344 356.945312 233.527344 357.964844 232.359375 C 359.136719 231.191406 359.136719 229.289062 357.964844 228.269531 C 357.527344 227.828125 357.089844 227.539062 356.796875 227.097656 Z M 356.796875 227.097656 " fill-opacity="1" fill-rule="nonzero"/><path fill="#a1d2b9" d="M 302.746094 381.804688 C 302.308594 381.804688 301.867188 381.953125 301.285156 381.953125 C 299.679688 382.097656 298.507812 383.558594 298.65625 385.164062 C 298.800781 386.625 300.117188 387.796875 301.578125 387.796875 C 301.722656 387.796875 302.890625 387.648438 303.328125 387.648438 C 304.9375 387.503906 306.105469 386.042969 305.8125 384.433594 C 305.8125 382.828125 304.351562 381.660156 302.746094 381.804688 Z M 302.746094 381.804688 " fill-opacity="1" fill-rule="nonzero"/><path fill="#a1d2b9" d="M 235.546875 361.792969 C 234.375 360.769531 232.476562 360.914062 231.457031 362.085938 C 230.433594 363.253906 230.578125 365.152344 231.746094 366.175781 C 232.1875 366.464844 232.476562 366.757812 232.917969 367.195312 C 234.085938 368.21875 235.984375 368.074219 237.007812 366.757812 C 238.027344 365.445312 237.882812 363.691406 236.566406 362.667969 C 236.277344 362.375 235.984375 362.085938 235.546875 361.792969 Z M 235.546875 361.792969 " fill-opacity="1" fill-rule="nonzero"/><path fill="#a1d2b9" d="M 248.253906 370.703125 C 247.816406 370.410156 247.378906 370.265625 247.085938 369.972656 C 245.773438 369.097656 243.871094 369.535156 243.140625 370.996094 C 242.265625 372.308594 242.703125 374.210938 244.164062 374.941406 C 244.601562 375.230469 245.042969 375.523438 245.480469 375.671875 C 246.792969 376.402344 248.695312 375.960938 249.425781 374.648438 C 250.15625 373.332031 249.714844 371.578125 248.253906 370.703125 Z M 248.253906 370.703125 " fill-opacity="1" fill-rule="nonzero"/><path fill="#a1d2b9" d="M 261.109375 376.839844 C 260.671875 376.691406 260.234375 376.546875 259.796875 376.253906 C 258.335938 375.671875 256.582031 376.402344 255.996094 377.863281 C 255.414062 379.320312 256.144531 381.074219 257.605469 381.660156 C 258.042969 381.804688 258.480469 382.097656 259.066406 382.242188 C 260.527344 382.828125 262.28125 382.097656 262.863281 380.492188 C 263.300781 379.03125 262.570312 377.421875 261.109375 376.839844 Z M 261.109375 376.839844 " fill-opacity="1" fill-rule="nonzero"/><path fill="#a1d2b9" d="M 379.148438 320.742188 C 377.542969 320.304688 375.933594 321.035156 375.496094 322.640625 C 375.351562 323.078125 375.203125 323.515625 375.058594 323.957031 C 374.472656 325.417969 375.351562 327.167969 376.8125 327.753906 C 378.273438 328.339844 380.027344 327.460938 380.609375 326 C 380.757812 325.5625 380.902344 324.976562 381.046875 324.539062 C 381.488281 322.785156 380.609375 321.179688 379.148438 320.742188 Z M 379.148438 320.742188 " fill-opacity="1" fill-rule="nonzero"/><path fill="#a1d2b9" d="M 274.695312 380.78125 C 274.257812 380.636719 273.820312 380.636719 273.382812 380.492188 C 271.773438 380.199219 270.3125 381.074219 269.875 382.683594 C 269.582031 384.289062 270.460938 385.75 272.066406 386.1875 C 272.503906 386.335938 273.964844 386.625 274.113281 386.625 C 275.425781 386.625 276.742188 385.605469 277.035156 384.289062 C 277.328125 382.535156 276.304688 381.074219 274.695312 380.78125 Z M 274.695312 380.78125 " fill-opacity="1" fill-rule="nonzero"/><g clip-path="url(#id10)"><path fill="#a1d2b9" d="M 382.800781 291.523438 C 381.195312 291.523438 379.878906 292.839844 379.878906 294.445312 C 379.878906 294.445312 379.878906 295.761719 379.878906 296.199219 C 379.878906 297.804688 381.195312 299.121094 382.800781 299.121094 C 384.410156 299.121094 385.722656 297.804688 385.722656 296.199219 C 385.722656 295.761719 385.722656 294.445312 385.722656 294.445312 C 385.722656 292.839844 384.410156 291.523438 382.800781 291.523438 Z M 382.800781 291.523438 " fill-opacity="1" fill-rule="nonzero"/></g><g clip-path="url(#id11)"><path fill="#a1d2b9" d="M 288.722656 382.390625 C 288.28125 382.390625 287.84375 382.390625 287.261719 382.390625 C 285.652344 382.390625 284.339844 383.558594 284.191406 385.164062 C 284.046875 386.773438 285.359375 388.085938 286.96875 388.234375 C 287.40625 388.234375 288.574219 388.378906 288.574219 388.378906 C 290.183594 388.378906 291.496094 387.210938 291.496094 385.605469 C 291.496094 383.851562 290.328125 382.390625 288.722656 382.390625 Z M 288.722656 382.390625 " fill-opacity="1" fill-rule="nonzero"/></g></svg>