<?xml version="1.0" standalone="no"?>
<!DOCTYPE svg PUBLIC "-//W3C//DTD SVG 20010904//EN"
 "http://www.w3.org/TR/2001/REC-SVG-20010904/DTD/svg10.dtd">
<svg version="1.0" xmlns="http://www.w3.org/2000/svg"
 width="2400.000000pt" height="2400.000000pt" viewBox="0 0 2400.000000 2400.000000"
 preserveAspectRatio="xMidYMid meet">
<metadata>
Created by potrace 1.11, written by Peter Selinger 2001-2013
</metadata>
<g transform="translate(0.000000,2400.000000) scale(0.100000,-0.100000)"
fill="#000000" stroke="none">
<path d="M4044 17663 c-2 -7 -7 -21 -10 -30 -8 -25 -215 -745 -219 -763 -2 -8
-26 -94 -55 -190 -28 -96 -53 -182 -55 -190 -1 -8 -29 -103 -60 -210 -31 -107
-58 -203 -60 -212 -2 -9 -11 -41 -19 -70 -44 -149 -67 -229 -71 -245 -2 -10
-45 -160 -96 -333 -50 -173 -102 -355 -116 -405 -13 -49 -49 -175 -80 -280
-30 -104 -56 -197 -58 -205 -2 -8 -99 -346 -215 -750 -117 -404 -213 -742
-215 -750 -2 -8 -54 -188 -115 -400 -61 -212 -113 -392 -115 -400 -2 -8 -45
-157 -95 -330 -50 -173 -97 -337 -104 -365 -8 -27 -39 -138 -71 -245 -31 -107
-58 -202 -60 -210 -2 -8 -46 -163 -99 -345 -52 -181 -200 -699 -329 -1150
-130 -451 -333 -1160 -452 -1575 -120 -415 -226 -787 -238 -827 -18 -66 -23
-73 -56 -86 -20 -8 -245 -94 -501 -192 -256 -98 -467 -180 -469 -181 -1 -2 -4
-37 -5 -78 l-1 -76 35 -1 c45 0 2271 0 2287 0 7 1 11 26 10 78 l-2 76 -110 42
c-407 155 -881 339 -887 344 -4 4 1 38 13 76 11 39 22 77 24 85 2 8 40 139 85
290 45 151 83 282 85 290 2 8 65 222 140 475 75 253 142 483 150 510 8 28 23
82 35 120 20 66 46 151 55 185 9 32 36 124 106 363 l73 247 1592 0 1592 0 11
-32 c11 -36 154 -505 201 -658 87 -286 184 -604 205 -670 12 -41 37 -120 53
-175 85 -277 195 -638 214 -700 11 -38 29 -95 38 -125 48 -150 131 -432 128
-434 -3 -3 -325 -85 -363 -92 -11 -3 -141 -35 -290 -72 l-270 -68 -3 -77 c-3
-68 -1 -77 15 -78 23 0 3213 0 3233 0 12 1 15 15 14 71 0 39 -5 75 -10 79 -5
5 -215 60 -466 122 l-457 114 -29 100 c-17 55 -112 368 -212 695 -100 327
-186 611 -192 630 -9 31 -83 277 -108 355 -29 93 -166 544 -190 625 -15 52
-44 148 -64 213 -20 64 -51 168 -70 230 -19 61 -132 432 -251 822 -119 391
-218 717 -220 725 -2 8 -22 74 -45 145 -22 72 -43 138 -45 149 -2 10 -20 68
-39 130 -19 61 -58 188 -86 281 -56 186 -103 338 -157 515 -19 63 -66 216
-103 340 -194 640 -324 1066 -355 1165 -18 61 -56 184 -84 275 -172 571 -266
879 -296 975 -64 209 -132 433 -225 740 -28 94 -55 181 -60 195 -4 14 -20 63
-34 110 -14 47 -106 353 -206 680 -99 327 -183 602 -185 610 -4 13 -25 16
-121 15 -85 0 -117 -3 -120 -12z m-351 -2643 c19 -63 49 -162 67 -220 17 -58
33 -112 35 -120 2 -8 10 -35 18 -60 8 -25 27 -85 42 -135 14 -49 42 -140 61
-201 19 -62 37 -120 39 -130 2 -11 31 -107 64 -214 33 -107 102 -337 154 -510
93 -306 155 -511 299 -985 38 -126 71 -237 73 -245 3 -12 83 -276 195 -645 10
-33 30 -100 45 -150 14 -49 44 -146 65 -215 33 -107 117 -383 299 -990 23 -74
41 -138 41 -142 0 -5 -677 -8 -1504 -8 l-1503 0 63 223 c35 122 68 238 74 257
6 19 53 186 105 370 52 184 101 358 109 385 8 28 92 322 186 655 94 333 180
634 190 670 11 36 90 313 175 615 230 811 304 1073 325 1145 41 143 82 286 85
300 2 8 29 103 60 210 97 337 87 308 96 280 4 -14 23 -77 42 -140z"/>
<path d="M19658 17675 c-2 -1 -57 -5 -123 -9 -592 -30 -1202 -294 -1639 -707
-265 -251 -446 -509 -605 -862 -45 -100 -115 -324 -147 -472 -63 -289 -64
-761 -3 -1130 55 -336 167 -660 321 -928 398 -696 1027 -1289 1968 -1855 91
-55 186 -111 212 -125 25 -14 64 -37 87 -51 22 -14 43 -26 45 -26 7 0 409
-242 556 -335 186 -117 541 -357 655 -443 312 -235 511 -422 783 -736 51 -59
155 -222 199 -310 82 -168 137 -350 158 -526 2 -19 7 -57 10 -85 8 -62 8 -345
1 -420 -4 -30 -8 -81 -11 -112 -5 -53 -18 -140 -31 -218 -78 -459 -308 -890
-624 -1168 -111 -98 -122 -107 -220 -172 -173 -115 -342 -194 -534 -249 -97
-29 -105 -31 -221 -52 -78 -14 -92 -16 -210 -30 -73 -8 -424 -8 -516 0 -132
12 -176 17 -292 37 -157 26 -415 94 -492 129 -11 5 -49 21 -85 36 -249 101
-483 258 -681 455 -174 173 -251 266 -385 464 -267 395 -457 821 -643 1441
l-21 71 -115 -1 -115 0 5 -106 c3 -58 8 -130 10 -160 3 -30 7 -93 10 -140 3
-47 7 -114 10 -150 5 -59 9 -124 20 -310 24 -387 24 -869 0 -1175 -2 -22 -6
-87 -10 -145 -3 -58 -8 -125 -10 -150 -4 -42 -14 -189 -20 -290 -1 -25 -6 -91
-10 -147 l-7 -103 121 0 c111 0 128 3 199 30 162 62 315 178 475 360 56 64
163 213 193 270 l21 39 54 -50 c231 -214 580 -409 969 -541 180 -61 442 -126
580 -143 83 -11 228 -25 310 -31 125 -10 480 -10 600 -1 737 55 1394 347 1875
832 149 149 157 159 259 294 189 253 371 620 441 891 3 8 13 49 25 90 19 72
45 196 56 270 3 19 7 46 9 60 3 14 7 56 10 95 4 38 8 86 11 105 6 43 6 402 0
485 -7 90 -17 197 -21 225 -3 14 -7 45 -10 70 -27 225 -112 533 -207 749 -99
225 -251 469 -473 757 -125 162 -380 429 -553 577 -421 360 -758 591 -1427
977 -589 339 -1183 737 -1450 971 -16 14 -57 50 -90 79 -93 81 -311 305 -399
410 -285 340 -416 714 -410 1170 2 171 9 257 29 382 20 124 20 123 50 235 81
296 226 554 428 762 293 302 617 464 1037 521 79 11 400 15 445 7 11 -3 52 -8
90 -12 39 -3 122 -18 185 -31 548 -117 998 -439 1376 -984 62 -89 164 -248
164 -255 0 -2 13 -26 28 -52 160 -271 365 -776 482 -1185 l34 -116 116 -1
c133 0 119 -12 106 94 -16 131 -22 193 -31 330 -3 50 -8 110 -10 135 -28 321
-28 1378 0 1780 16 229 22 303 30 355 2 17 7 56 10 88 4 32 8 67 10 78 4 20 0
20 -128 17 -124 -3 -137 -5 -211 -37 -217 -93 -441 -301 -613 -567 l-58 -91
-50 44 c-250 222 -507 382 -814 508 -305 125 -511 180 -771 204 -101 10 -376
21 -382 16z"/>
<path d="M8162 17363 l3 -77 464 -116 463 -116 3 -3854 c1 -2120 5 -3875 9
-3900 3 -25 8 -72 11 -105 7 -82 19 -178 40 -310 24 -154 82 -396 131 -541
326 -984 1054 -1643 2089 -1894 129 -32 380 -75 485 -85 36 -3 76 -8 90 -10
191 -28 730 -25 956 5 43 6 97 13 119 16 22 3 47 7 55 9 8 2 31 6 50 9 152 23
389 92 571 167 560 233 984 660 1218 1229 24 58 47 114 52 125 23 55 74 225
104 345 32 128 38 153 50 218 3 15 8 38 10 52 10 48 13 65 19 110 3 25 8 54
10 65 10 50 34 261 41 360 4 44 9 100 13 125 3 25 7 1768 9 3874 2 2107 5
3831 7 3833 2 2 228 90 502 196 l499 192 3 78 3 77 -1166 0 -1165 0 0 -77 0
-78 505 -194 504 -193 -3 -3812 c-1 -2096 -5 -3827 -9 -3846 -3 -19 -8 -69
-12 -110 -8 -100 -13 -141 -36 -295 -22 -146 -44 -271 -55 -307 -3 -9 -7 -26
-9 -37 -12 -65 -74 -264 -117 -381 -85 -228 -215 -483 -314 -617 -22 -28 -48
-64 -59 -79 -61 -83 -221 -249 -304 -314 -24 -19 -49 -40 -56 -47 -23 -22
-180 -120 -255 -160 -189 -101 -496 -197 -693 -219 -29 -3 -58 -7 -64 -9 -62
-20 -463 -23 -599 -6 -141 19 -153 21 -271 52 -549 141 -1028 539 -1296 1079
-34 69 -68 141 -75 160 -128 339 -199 633 -236 970 -22 198 -23 215 -32 380
-5 80 -9 1857 -9 3949 l0 3805 465 116 465 116 0 77 1 77 -1594 0 -1593 0 3
-77z"/>
</g>
</svg>
