<?xml version="1.0" standalone="no"?>
<!DOCTYPE svg PUBLIC "-//W3C//DTD SVG 20010904//EN"
 "http://www.w3.org/TR/2001/REC-SVG-20010904/DTD/svg10.dtd">
<svg version="1.0" xmlns="http://www.w3.org/2000/svg"
 width="248.000000pt" height="248.000000pt" viewBox="0 0 248.000000 248.000000"
 preserveAspectRatio="xMidYMid meet">
<metadata>
Created by potrace 1.11, written by Peter Selinger 2001-2013
</metadata>
<g transform="translate(0.000000,248.000000) scale(0.100000,-0.100000)"
fill="#000000" stroke="none">
<path d="M1896 2255 c15 -60 3 -96 -69 -204 -48 -72 -188 -221 -208 -221 -5 0
-9 -5 -9 -11 0 -23 177 141 204 190 5 9 13 18 17 21 3 3 24 36 44 73 40 73 51
145 26 169 -10 11 -11 7 -5 -17z"/>
<path d="M2060 2196 c0 -2 7 -7 16 -10 8 -3 12 -2 9 4 -6 10 -25 14 -25 6z"/>
<path d="M1582 2173 c-4 -10 -24 -48 -45 -84 -35 -63 -60 -126 -92 -233 -24
-80 -6 -46 30 57 33 97 113 257 128 257 15 0 -14 -133 -44 -203 -27 -63 -19
-71 9 -9 29 66 55 178 48 207 -7 29 -24 32 -34 8z"/>
<path d="M2112 2173 c9 -10 20 -31 26 -48 6 -16 11 -24 11 -17 2 22 -28 82
-40 82 -8 0 -7 -6 3 -17z"/>
<path d="M2145 2037 c10 -75 -3 -103 -69 -151 -63 -45 -108 -70 -236 -129 -74
-34 -88 -44 -63 -43 17 1 29 5 26 9 -3 5 5 11 18 14 12 4 69 29 125 58 105 53
183 106 204 139 17 27 13 136 -6 155 -3 3 -3 -20 1 -52z"/>
<path d="M2200 1895 c8 -11 18 -22 21 -25 17 -13 89 -125 89 -137 0 -8 -9 -42
-20 -76 -11 -34 -22 -74 -25 -87 -2 -14 -16 -35 -30 -47 -15 -13 -22 -23 -17
-23 15 0 53 46 58 71 2 13 15 55 28 94 19 54 22 74 14 90 -17 31 -94 129 -115
145 -17 14 -17 14 -3 -5z"/>
<path d="M1526 1883 c-6 -14 -5 -15 5 -6 7 7 10 15 7 18 -3 3 -9 -2 -12 -12z"/>
<path d="M1503 1739 c21 -13 49 -64 39 -74 -4 -5 -2 -5 5 -2 21 13 47 -90 48
-185 0 -49 3 -88 8 -88 7 0 10 34 9 114 -2 97 -73 246 -117 246 -5 -1 -2 -5 8
-11z"/>
<path d="M1365 1708 c-54 -56 -258 -156 -280 -138 -8 7 -17 5 -27 -8 -21 -24
-29 -50 -18 -57 6 -4 10 5 10 19 0 14 5 28 10 31 7 4 9 -2 4 -19 -9 -36 2 -70
30 -101 20 -22 25 -23 36 -10 7 8 17 12 24 8 6 -4 19 -9 28 -10 10 -2 23 -4
30 -5 7 -2 64 -28 126 -59 117 -59 141 -58 28 1 -36 19 -63 37 -60 41 2 4 -6
5 -18 3 -13 -2 -17 -2 -10 2 6 3 10 10 7 15 -6 9 60 -12 96 -31 14 -8 19 -8
15 -1 -18 29 -229 90 -242 70 -2 -4 -11 -6 -19 -2 -11 4 -13 1 -9 -11 9 -24
-5 -19 -32 10 -24 25 -31 59 -16 79 4 6 29 21 57 32 36 16 53 19 63 11 9 -8
11 -7 7 4 -4 11 2 18 21 22 34 9 122 66 153 100 29 31 15 35 -14 4z m-195
-268 c0 -5 -2 -10 -4 -10 -3 0 -8 5 -11 10 -3 6 -1 10 4 10 6 0 11 -4 11 -10z
m50 -6 c0 -2 -9 -4 -20 -4 -11 0 -20 4 -20 9 0 5 9 7 20 4 11 -3 20 -7 20 -9z
m50 -15 c0 -11 -3 -11 -24 -3 -23 9 -20 23 4 17 11 -3 20 -9 20 -14z"/>
<path d="M1472 1700 c1 -17 2 -29 2 -28 1 2 10 14 21 28 19 24 19 24 1 10 -18
-14 -19 -13 -13 3 3 9 2 17 -3 17 -5 0 -8 -14 -8 -30z"/>
<path d="M1710 1705 c-14 -8 -20 -14 -14 -15 5 0 19 7 30 15 24 18 16 19 -16
0z"/>
<path d="M1501 1686 c-15 -18 5 -34 22 -17 9 9 7 10 -8 5 -18 -7 -18 -6 -6 9
7 9 11 17 8 17 -2 0 -10 -6 -16 -14z"/>
<path d="M1414 1658 c-3 -5 0 -7 7 -6 7 2 14 -4 15 -12 0 -8 2 -17 3 -20 2 -3
4 -12 6 -20 3 -8 18 -55 35 -104 17 -50 33 -104 36 -120 7 -41 14 -166 9 -166
-3 0 -19 32 -36 70 -18 39 -36 70 -41 70 -5 0 -1 -11 8 -24 8 -14 16 -27 15
-30 0 -16 53 -125 60 -121 4 3 7 41 6 85 -1 44 0 80 3 80 3 0 11 -4 19 -9 12
-8 12 -12 2 -25 -8 -9 -9 -16 -4 -16 5 0 19 21 31 46 15 30 18 44 10 42 -7 -3
-14 -14 -16 -26 -3 -18 -6 -20 -28 -10 -14 7 -24 20 -24 32 0 12 -14 59 -30
106 -17 47 -32 93 -34 102 -3 9 -9 25 -14 35 -12 22 -4 45 11 36 7 -3 9 -2 4
2 -10 12 -47 14 -53 3z"/>
<path d="M1480 1655 c-1 -5 -3 -18 -5 -28 -3 -18 -3 -18 16 -1 20 18 26 29 10
20 -5 -4 -12 0 -14 6 -3 7 -6 9 -7 3z"/>
<path d="M1532 1639 c2 -7 -2 -13 -9 -14 -7 0 -18 -7 -25 -15 -11 -12 -11 -12
3 -2 9 6 18 10 21 7 3 -3 11 1 17 9 8 10 9 16 1 21 -6 4 -9 1 -8 -6z"/>
<path d="M1540 1605 c-17 -20 -1 -38 20 -24 12 9 12 10 -3 5 -12 -4 -17 -2
-14 6 2 7 10 12 16 10 7 -1 10 2 6 8 -8 13 -10 13 -25 -5z"/>
<path d="M1329 1580 c-32 -18 -111 -41 -125 -36 -8 3 -13 2 -10 -3 3 -4 -10
-13 -29 -18 -19 -6 -35 -7 -37 -3 -2 4 -10 1 -18 -8 -13 -14 -12 -15 3 -9 10
4 17 2 17 -6 0 -9 2 -9 8 -1 4 7 27 17 52 24 65 17 160 54 160 62 0 10 -1 10
-21 -2z"/>
<path d="M1497 1574 c4 -12 3 -15 -5 -10 -16 10 -15 1 1 -12 10 -8 13 -6 14 8
1 11 -2 22 -8 25 -5 4 -6 -2 -2 -11z"/>
<path d="M1526 1557 c3 -10 9 -15 12 -12 3 3 0 11 -7 18 -10 9 -11 8 -5 -6z"/>
<path d="M1560 1560 c-9 -6 -10 -10 -3 -10 6 0 15 5 18 10 8 12 4 12 -15 0z"/>
<path d="M980 1505 c-13 -14 -22 -26 -19 -28 2 -1 16 10 31 25 15 15 23 28 19
28 -4 0 -18 -11 -31 -25z"/>
<path d="M1517 1515 c-4 -8 -3 -16 1 -19 4 -3 9 4 9 15 2 23 -3 25 -10 4z"/>
<path d="M1570 1523 c0 -5 5 -15 10 -23 7 -12 9 -10 7 8 -1 19 -17 33 -17 15z"/>
<path d="M1820 1520 c0 -5 5 -10 11 -10 5 0 7 5 4 10 -3 6 -8 10 -11 10 -2 0
-4 -4 -4 -10z"/>
<path d="M1850 1518 c0 -3 29 -6 65 -6 36 0 65 4 65 8 0 4 -29 7 -65 6 -36 0
-65 -4 -65 -8z"/>
<path d="M1990 1518 c0 -4 7 -8 15 -8 8 0 15 4 15 8 0 5 -7 9 -15 9 -8 0 -15
-4 -15 -9z"/>
<path d="M2030 1519 c0 -5 15 -9 33 -10 95 -2 149 -27 183 -84 14 -24 27 -53
29 -65 6 -31 15 -38 15 -11 0 32 -45 116 -73 134 -42 27 -187 55 -187 36z"/>
<path d="M1788 1513 c7 -3 16 -2 19 1 4 3 -2 6 -13 5 -11 0 -14 -3 -6 -6z"/>
<path d="M1718 1503 c7 -3 16 -2 19 1 4 3 -2 6 -13 5 -11 0 -14 -3 -6 -6z"/>
<path d="M1040 1481 c0 -6 4 -13 10 -16 6 -3 7 1 4 9 -7 18 -14 21 -14 7z"/>
<path d="M1556 1482 c-3 -4 4 -9 15 -9 23 -2 25 3 4 10 -8 4 -16 3 -19 -1z"/>
<path d="M945 1434 c-12 -19 -14 -29 -5 -39 7 -8 10 -18 7 -22 -3 -4 5 -8 16
-9 12 -1 33 -3 47 -6 25 -5 60 10 60 24 0 5 -12 8 -26 8 -38 0 -86 31 -80 52
6 25 1 22 -19 -8z m32 -34 c14 -11 34 -20 44 -20 11 0 19 -4 19 -9 0 -22 -85
11 -94 35 -7 19 1 17 31 -6z"/>
<path d="M1531 1444 c0 -11 3 -14 6 -6 3 7 2 16 -1 19 -3 4 -6 -2 -5 -13z"/>
<path d="M1576 1447 c3 -10 9 -15 12 -12 3 3 0 11 -7 18 -10 9 -11 8 -5 -6z"/>
<path d="M1434 1406 c1 -8 5 -18 8 -22 4 -3 5 1 4 10 -1 8 -5 18 -8 22 -4 3
-5 -1 -4 -10z"/>
<path d="M1545 1400 c-3 -6 1 -7 9 -4 18 7 21 14 7 14 -6 0 -13 -4 -16 -10z"/>
<path d="M1670 1340 c0 -5 5 -10 11 -10 5 0 7 5 4 10 -3 6 -8 10 -11 10 -2 0
-4 -4 -4 -10z"/>
<path d="M1011 1303 c-6 -21 -11 -44 -11 -52 0 -17 13 -6 16 13 1 7 5 28 9 45
9 44 -2 39 -14 -6z"/>
<path d="M1715 1328 c11 -7 25 -13 30 -14 6 -1 19 -5 30 -9 13 -4 12 -1 -5 8
-14 9 -28 13 -32 11 -3 -2 -9 0 -13 6 -3 5 -12 10 -18 10 -7 0 -3 -6 8 -12z"/>
<path d="M2280 1289 c0 -16 4 -28 9 -25 8 5 3 56 -5 56 -2 0 -4 -14 -4 -31z"/>
<path d="M928 1292 c-8 -10 -13 -23 -12 -29 1 -7 3 -21 4 -30 1 -10 5 -2 9 17
7 41 33 51 49 18 6 -14 11 -17 11 -8 2 40 -38 60 -61 32z"/>
<path d="M1865 1264 c100 -52 212 -130 232 -161 35 -53 20 -181 -26 -221 -14
-13 -19 -22 -11 -20 26 5 41 26 56 79 34 113 16 165 -78 232 -71 51 -181 112
-218 122 -14 3 6 -10 45 -31z"/>
<path d="M1633 1225 c0 -8 4 -12 9 -9 5 3 6 10 3 15 -9 13 -12 11 -12 -6z"/>
<path d="M1000 1216 c0 -12 -5 -16 -15 -12 -19 7 -19 -1 0 -21 8 -8 12 -20 8
-26 -5 -8 -8 -8 -11 1 -4 14 -42 16 -42 2 0 -5 7 -7 15 -4 8 4 15 1 15 -5 0
-6 -6 -11 -14 -11 -7 0 -19 -7 -26 -15 -7 -8 -16 -13 -20 -10 -4 2 -6 -16 -4
-42 2 -36 10 -53 35 -79 35 -36 109 -72 167 -81 75 -11 218 -9 279 4 85 17
121 37 140 78 15 31 15 36 -1 60 -23 35 -99 82 -166 102 -59 19 -271 25 -324
10 -27 -7 -28 -6 -24 17 3 14 1 31 -3 38 -7 10 -9 8 -9 -6z m-20 -98 c0 -27
-13 -57 -21 -52 -5 3 -7 10 -4 15 4 5 2 9 -4 9 -7 0 -8 16 -2 38 3 9 31 0 31
-10z m328 -33 c52 -21 56 -48 11 -64 -50 -17 -159 -14 -199 7 -45 22 -51 54
-13 69 38 16 148 9 201 -12z"/>
<path d="M1195 1084 c-5 -1 -23 -5 -39 -9 -26 -5 -27 -8 -14 -21 8 -8 35 -17
59 -18 53 -4 97 10 82 25 -11 11 -72 27 -88 23z"/>
<path d="M2220 1177 c-25 -28 -34 -42 -20 -32 31 23 85 85 73 84 -4 -1 -28
-24 -53 -52z"/>
<path d="M924 1198 c-13 -20 -13 -37 -1 -45 7 -3 9 -3 5 2 -4 4 -3 16 3 27 12
22 5 36 -7 16z"/>
<path d="M1656 1196 c6 -15 4 -17 -6 -11 -9 6 -11 4 -5 -4 5 -9 10 -10 18 -2
8 8 7 14 -2 24 -10 10 -11 8 -5 -7z"/>
<path d="M1680 1177 c0 -4 15 -21 33 -39 40 -41 112 -136 121 -163 14 -36 17
-70 11 -102 l-6 -32 -42 22 c-41 22 -130 103 -175 162 -13 17 -4 2 19 -33 23
-34 57 -74 75 -89 l34 -26 -41 -44 c-22 -24 -47 -61 -56 -81 -8 -20 -20 -40
-27 -44 -8 -6 -8 -8 1 -8 6 0 25 24 42 53 16 28 43 67 59 85 l28 34 37 -21
c21 -12 40 -21 43 -21 3 0 11 14 18 31 25 60 -10 149 -96 245 -18 20 -31 42
-30 48 2 6 0 8 -4 3 -4 -4 -16 0 -26 10 -10 9 -18 13 -18 10z"/>
<path d="M2153 1125 c0 -8 4 -12 9 -9 5 3 6 10 3 15 -9 13 -12 11 -12 -6z"/>
<path d="M817 1094 c-15 -8 -25 -20 -21 -25 9 -15 15 -89 8 -89 -3 0 -20 6
-37 14 -18 8 -49 20 -70 26 -47 15 -177 22 -177 11 0 -5 13 -7 28 -6 50 4 152
-14 205 -37 55 -24 132 -72 143 -90 4 -7 9 -5 15 3 7 11 9 11 9 -2 0 -9 10
-24 21 -35 29 -26 -29 71 -89 148 -42 54 -47 78 -16 78 8 0 14 5 14 10 0 12 1
12 -33 -6z m52 -123 c23 -29 40 -56 37 -58 -3 -3 -24 10 -48 29 -35 27 -43 39
-43 65 0 18 3 29 6 25 3 -4 25 -31 48 -61z"/>
<path d="M1570 1101 c0 -6 4 -13 10 -16 6 -3 7 1 4 9 -7 18 -14 21 -14 7z"/>
<path d="M412 1032 c-18 -2 -30 -7 -27 -12 3 -5 18 -5 34 0 15 4 42 6 59 4 18
-2 32 0 32 5 0 9 -35 10 -98 3z"/>
<path d="M317 1015 c-27 -7 -52 -17 -55 -21 -4 -4 4 -4 18 0 14 4 40 9 58 13
17 3 32 10 32 14 0 5 -1 9 -2 8 -2 0 -25 -7 -51 -14z"/>
<path d="M168 966 c-73 -32 -143 -76 -120 -76 6 0 14 5 17 10 9 14 92 55 143
70 23 7 42 17 42 22 0 11 6 12 -82 -26z"/>
<path d="M1607 920 c11 -14 23 -34 26 -45 5 -19 5 -19 6 1 0 11 -11 31 -26 45
l-28 24 22 -25z"/>
<path d="M2133 855 c27 -26 28 -28 11 -53 -40 -62 -55 -92 -45 -92 6 0 11 4
11 9 0 5 14 32 31 60 34 54 32 69 -15 93 -16 7 -14 3 7 -17z"/>
<path d="M1575 860 c-22 -4 -62 -11 -90 -14 -27 -4 -78 -11 -111 -16 -34 -6
-74 -11 -88 -12 -14 -1 -26 -6 -26 -10 0 -5 12 -6 28 -4 25 4 97 14 147 20 86
11 185 31 185 38 0 4 -1 8 -2 7 -2 -1 -21 -5 -43 -9z"/>
<path d="M1970 861 c0 -9 38 -12 44 -3 2 4 -7 8 -20 8 -13 1 -24 -1 -24 -5z"/>
<path d="M2290 829 c-25 -11 -70 -44 -100 -73 -33 -33 -80 -65 -118 -81 -34
-15 -60 -30 -58 -32 12 -12 155 69 194 110 24 25 63 54 87 64 25 10 45 21 45
26 0 9 2 10 -50 -14z"/>
<path d="M2351 846 c3 -3 20 -8 39 -11 19 -3 43 -13 53 -22 15 -15 17 -15 12
-1 -8 19 -48 38 -82 38 -15 0 -24 -2 -22 -4z"/>
<path d="M1606 828 c-11 -36 -13 -58 -6 -63 4 -3 10 13 12 35 4 40 1 51 -6 28z"/>
<path d="M1863 787 c-31 -47 -55 -98 -49 -104 8 -8 -15 -27 -64 -51 -25 -12
-34 -20 -20 -16 36 9 143 69 161 91 27 33 69 103 62 103 -5 0 -23 -23 -40 -50
-32 -48 -78 -88 -89 -77 -5 5 18 52 50 100 10 15 17 29 15 32 -3 2 -14 -11
-26 -28z"/>
<path d="M1175 800 c-3 -5 -1 -10 4 -10 6 0 11 5 11 10 0 6 -2 10 -4 10 -3 0
-8 -4 -11 -10z"/>
<path d="M1228 803 c7 -3 16 -2 19 1 4 3 -2 6 -13 5 -11 0 -14 -3 -6 -6z"/>
<path d="M1110 790 c-20 -6 -21 -8 -5 -8 11 0 29 3 40 8 25 11 -1 11 -35 0z"/>
<path d="M2450 780 c0 -5 -8 -18 -17 -28 -10 -10 -25 -27 -33 -37 -14 -19 -14
-19 9 0 32 27 65 75 52 75 -6 0 -11 -4 -11 -10z"/>
<path d="M970 771 c24 -13 90 -21 90 -10 0 5 -10 9 -22 10 -13 0 -36 2 -53 4
-19 3 -25 1 -15 -4z"/>
<path d="M1590 739 c0 -5 5 -7 10 -4 6 3 10 8 10 11 0 2 -4 4 -10 4 -5 0 -10
-5 -10 -11z"/>
<path d="M1385 719 c-16 -7 -15 -8 7 -6 15 2 30 5 33 8 8 8 -18 7 -40 -2z"/>
<path d="M1478 723 c7 -3 16 -2 19 1 4 3 -2 6 -13 5 -11 0 -14 -3 -6 -6z"/>
<path d="M1510 720 c0 -4 11 -10 25 -12 13 -3 22 -2 20 2 -7 11 -45 20 -45 10z"/>
<path d="M1303 714 c8 -9 47 -13 51 -6 2 4 -9 8 -25 8 -17 1 -28 0 -26 -2z"/>
<path d="M1570 701 c0 -5 9 -12 19 -16 11 -3 34 -22 51 -41 23 -27 30 -44 28
-66 -4 -37 -10 -40 -108 -64 -41 -9 -105 -27 -141 -40 -63 -21 -110 -24 -174
-11 -16 4 -10 0 15 -8 50 -17 87 -15 170 11 63 20 53 17 145 39 39 9 76 19 83
21 36 11 30 86 -12 132 -25 28 -76 57 -76 43z"/>
<path d="M2180 672 c0 -5 7 -9 15 -9 8 0 15 4 15 9 0 4 -7 8 -15 8 -8 0 -15
-4 -15 -8z"/>
<path d="M2250 668 c93 -27 140 -62 140 -103 0 -20 -11 -27 -87 -50 -49 -15
-133 -42 -188 -61 -55 -18 -131 -38 -170 -44 -94 -15 -207 -41 -202 -46 3 -3
33 2 68 10 35 8 87 17 114 21 67 8 107 19 260 70 72 23 149 48 171 54 54 14
63 48 27 92 -32 38 -66 55 -123 62 -43 5 -44 5 -10 -5z"/>
<path d="M2117 655 c-21 -7 -42 -17 -45 -21 -4 -4 2 -4 13 0 11 5 35 12 53 18
17 5 32 11 32 13 0 7 -12 5 -53 -10z"/>
<path d="M1959 613 c-16 -7 -29 -15 -29 -18 0 -3 9 -1 19 5 11 5 39 12 62 15
24 3 45 8 48 11 9 9 -72 -1 -100 -13z"/>
<path d="M1112 485 c3 -4 21 -9 40 -12 43 -6 33 4 -12 12 -19 3 -32 3 -28 0z"/>
<path d="M1195 470 c-3 -5 -1 -10 4 -10 6 0 11 5 11 10 0 6 -2 10 -4 10 -3 0
-8 -4 -11 -10z"/>
<path d="M550 366 c0 -2 7 -7 16 -10 8 -3 12 -2 9 4 -6 10 -25 14 -25 6z"/>
<path d="M1662 343 c-24 -8 -41 -17 -39 -19 2 -2 28 5 58 15 30 11 47 20 39
19 -8 0 -34 -6 -58 -15z"/>
<path d="M1896 351 c-4 -5 3 -7 14 -4 23 6 26 13 6 13 -8 0 -17 -4 -20 -9z"/>
<path d="M615 340 c3 -5 8 -10 11 -10 2 0 4 5 4 10 0 6 -5 10 -11 10 -5 0 -7
-4 -4 -10z"/>
<path d="M655 330 c3 -5 8 -10 11 -10 2 0 4 5 4 10 0 6 -5 10 -11 10 -5 0 -7
-4 -4 -10z"/>
<path d="M1823 328 c-18 -6 -33 -15 -33 -19 0 -4 15 -2 33 5 17 7 39 16 47 19
29 10 -12 6 -47 -5z"/>
<path d="M680 326 c0 -4 147 -52 190 -61 40 -9 129 -35 169 -49 24 -9 51 -16
60 -16 29 1 -123 51 -229 75 -16 4 -133 38 -169 50 -12 3 -21 4 -21 1z"/>
<path d="M1576 318 c3 -4 11 -5 19 -1 21 7 19 12 -4 10 -11 0 -18 -5 -15 -9z"/>
<path d="M1759 300 c-9 -5 -31 -12 -50 -15 -47 -8 -53 -18 -6 -11 38 6 77 22
77 31 0 7 -2 6 -21 -5z"/>
<path d="M1478 277 c-32 -5 -58 -14 -58 -19 0 -5 4 -7 8 -4 5 3 31 8 58 12 27
3 51 8 53 10 10 9 -7 9 -61 1z"/>
<path d="M1550 278 c0 -4 7 -8 15 -8 8 0 15 4 15 8 0 5 -7 9 -15 9 -8 0 -15
-4 -15 -9z"/>
<path d="M1590 281 c0 -4 16 -8 35 -9 19 -1 35 2 35 6 0 4 -16 8 -35 9 -19 1
-35 -2 -35 -6z"/>
<path d="M1333 254 c-73 -14 -175 -54 -138 -53 11 0 31 6 45 14 14 8 58 20 98
26 39 7 72 17 72 21 0 4 -1 8 -2 7 -2 0 -35 -7 -75 -15z"/>
<path d="M1104 242 c4 -3 14 -7 22 -8 9 -1 13 0 10 4 -4 3 -14 7 -22 8 -9 1
-13 0 -10 -4z"/>
<path d="M1150 240 c0 -5 7 -7 15 -4 8 4 15 8 15 10 0 2 -7 4 -15 4 -8 0 -15
-4 -15 -10z"/>
</g>
</svg>
